<svg xmlns="http://www.w3.org/2000/svg" xmlns:xlink="http://www.w3.org/1999/xlink" width="143" zoomAndPan="magnify" viewBox="0 0 107.25 107.249999" height="143" preserveAspectRatio="xMidYMid meet" version="1.0"><defs><clipPath id="fe34dcc9d9"><path d="M 0 0 L 106.503906 0 L 106.503906 106.503906 L 0 106.503906 Z M 0 0 " clip-rule="nonzero"/></clipPath></defs><g clip-path="url(#fe34dcc9d9)"><path fill="#ff66c4" d="M 0 0 L 0 25.03125 L 8.34375 16.6875 L 31.230469 39.574219 L 39.574219 31.230469 L 16.6875 8.34375 L 25.03125 0 Z M 81.171875 0 L 89.515625 8.34375 L 66.628906 31.230469 L 74.972656 39.574219 L 97.859375 16.6875 L 106.203125 25.03125 L 106.203125 0 Z M 53.101562 5.898438 C 46.570312 5.898438 40.339844 7.238281 34.675781 9.644531 L 43.964844 18.945312 C 46.882812 18.160156 49.9375 17.699219 53.101562 17.699219 C 56.265625 17.699219 59.320312 18.160156 62.238281 18.945312 L 71.527344 9.644531 C 65.863281 7.238281 59.632812 5.898438 53.101562 5.898438 Z M 9.644531 34.675781 C 7.238281 40.339844 5.898438 46.570312 5.898438 53.101562 C 5.898438 59.632812 7.238281 65.863281 9.644531 71.527344 L 18.945312 62.238281 C 18.160156 59.320312 17.699219 56.265625 17.699219 53.101562 C 17.699219 49.9375 18.160156 46.882812 18.945312 43.964844 Z M 96.558594 34.675781 L 87.257812 43.964844 C 88.042969 46.882812 88.503906 49.9375 88.503906 53.101562 C 88.503906 56.265625 88.042969 59.320312 87.257812 62.238281 L 96.558594 71.527344 C 98.964844 65.863281 100.300781 59.632812 100.300781 53.101562 C 100.300781 46.570312 98.964844 40.339844 96.558594 34.675781 Z M 31.230469 66.628906 L 8.34375 89.515625 L 0 81.171875 L 0 106.203125 L 25.03125 106.203125 L 16.6875 97.859375 L 39.574219 74.972656 Z M 74.972656 66.628906 L 66.628906 74.972656 L 89.515625 97.859375 L 81.171875 106.203125 L 106.203125 106.203125 L 106.203125 81.171875 L 97.859375 89.515625 Z M 43.964844 87.257812 L 34.675781 96.558594 C 40.339844 98.964844 46.570312 100.300781 53.101562 100.300781 C 59.632812 100.300781 65.863281 98.964844 71.527344 96.558594 L 62.238281 87.257812 C 59.320312 88.042969 56.265625 88.503906 53.101562 88.503906 C 49.9375 88.503906 46.882812 88.042969 43.964844 87.257812 Z M 43.964844 87.257812 " fill-opacity="1" fill-rule="nonzero"/></g></svg>