<svg xmlns="http://www.w3.org/2000/svg" xmlns:xlink="http://www.w3.org/1999/xlink" width="134" zoomAndPan="magnify" viewBox="0 0 100.5 101.999999" height="136" preserveAspectRatio="xMidYMid meet" version="1.0"><path fill="#ff66c4" d="M 84.914062 35.675781 C 86.578125 34.21875 88.128906 32.859375 89.960938 31.253906 C 94.394531 39.738281 95.5625 48.453125 94.3125 57.453125 C 92.625 69.625 86.695312 79.492188 76.875 86.871094 C 57.394531 101.515625 29.589844 97.613281 14.703125 78.253906 C -0.00390625 59.128906 3.371094 31.453125 22.195312 16.484375 C 42.597656 0.265625 69.25 6.230469 81.132812 19.636719 C 79.113281 20.601562 77.152344 21.539062 75.242188 22.449219 C 54.933594 6.636719 33.117188 13.871094 22.558594 25.171875 C 10.207031 38.382812 8.695312 58.296875 19.148438 73.0625 C 29.699219 87.96875 49.421875 93.273438 66.0625 85.582031 C 75.425781 81.257812 81.992188 74.175781 85.667969 64.5625 C 89.347656 54.9375 88.796875 45.300781 84.914062 35.675781 Z M 84.914062 35.675781 " fill-opacity="1" fill-rule="nonzero"/><path fill="#ff66c4" d="M 16.734375 42.835938 C 20.667969 39.050781 24.664062 37.625 29.480469 39.082031 C 33.636719 40.335938 36.828125 43.0625 39.785156 46.074219 C 41.550781 47.875 43.175781 49.8125 45.015625 51.859375 C 46.789062 49.964844 48.414062 48.183594 50.085938 46.449219 C 57.921875 38.308594 66.195312 30.695312 76.140625 25.136719 C 81.199219 22.308594 86.503906 20.164062 92.34375 19.730469 C 94.628906 19.5625 96.9375 19.703125 99.972656 19.703125 C 99.035156 20.667969 98.699219 21.136719 98.253906 21.457031 C 80.324219 34.378906 65.148438 49.945312 53.03125 68.457031 C 51.394531 70.957031 49.339844 72.824219 46.25 73.304688 C 43.65625 73.707031 41.265625 73.210938 39.710938 71.058594 C 37.914062 68.570312 36.378906 65.875 34.886719 63.183594 C 32.855469 59.515625 31.117188 55.683594 28.984375 52.078125 C 26.328125 47.585938 22.804688 44.007812 16.734375 42.835938 Z M 16.734375 42.835938 " fill-opacity="1" fill-rule="nonzero"/></svg>