<svg xmlns="http://www.w3.org/2000/svg" xmlns:xlink="http://www.w3.org/1999/xlink" width="103" zoomAndPan="magnify" viewBox="0 0 77.25 77.25" height="103" preserveAspectRatio="xMidYMid meet" version="1.0"><defs><clipPath id="24e34a55b8"><path d="M 0 0 L 75.765625 0 L 75.765625 75.765625 L 0 75.765625 Z M 0 0 " clip-rule="nonzero"/></clipPath></defs><path fill="#ff66c4" d="M 50.785156 19.53125 C 51.121094 19.53125 51.457031 19.5625 51.792969 19.628906 C 52.125 19.695312 52.445312 19.789062 52.761719 19.917969 C 53.074219 20.046875 53.371094 20.203125 53.652344 20.386719 C 53.933594 20.570312 54.195312 20.78125 54.433594 21.015625 C 54.671875 21.25 54.886719 21.507812 55.074219 21.785156 C 55.265625 22.0625 55.421875 22.355469 55.554688 22.660156 C 55.683594 22.96875 55.78125 23.285156 55.847656 23.613281 C 55.914062 23.941406 55.945312 24.269531 55.945312 24.601562 C 55.945312 24.933594 55.914062 25.265625 55.84375 25.589844 C 55.78125 25.917969 55.683594 26.234375 55.550781 26.542969 C 55.421875 26.851562 55.261719 27.140625 55.074219 27.417969 C 54.886719 27.695312 54.671875 27.953125 54.433594 28.1875 C 54.195312 28.421875 53.933594 28.632812 53.652344 28.816406 C 53.367188 29.003906 53.070312 29.160156 52.757812 29.285156 C 52.445312 29.414062 52.125 29.511719 51.789062 29.574219 C 51.457031 29.640625 51.121094 29.671875 50.785156 29.671875 C 50.445312 29.671875 50.109375 29.640625 49.777344 29.574219 C 49.441406 29.511719 49.121094 29.414062 48.808594 29.285156 C 48.492188 29.160156 48.195312 29.003906 47.914062 28.816406 C 47.632812 28.632812 47.371094 28.421875 47.132812 28.1875 C 46.890625 27.953125 46.679688 27.695312 46.488281 27.417969 C 46.300781 27.140625 46.140625 26.851562 46.011719 26.542969 C 45.882812 26.234375 45.785156 25.917969 45.71875 25.589844 C 45.652344 25.265625 45.621094 24.933594 45.621094 24.601562 C 45.621094 24.269531 45.652344 23.941406 45.71875 23.613281 C 45.785156 23.285156 45.882812 22.96875 46.011719 22.660156 C 46.144531 22.355469 46.300781 22.0625 46.488281 21.785156 C 46.679688 21.507812 46.894531 21.253906 47.132812 21.015625 C 47.371094 20.78125 47.632812 20.570312 47.914062 20.386719 C 48.195312 20.203125 48.492188 20.046875 48.808594 19.917969 C 49.121094 19.789062 49.441406 19.695312 49.777344 19.628906 C 50.109375 19.5625 50.445312 19.53125 50.785156 19.53125 Z M 55.207031 30.5 L 55.207031 30.523438 C 55.765625 30.59375 56.207031 30.859375 56.535156 31.320312 L 62.199219 39.351562 C 62.34375 39.558594 62.441406 39.785156 62.496094 40.03125 C 62.550781 40.277344 62.558594 40.523438 62.515625 40.773438 C 62.472656 41.019531 62.382812 41.253906 62.25 41.464844 C 62.117188 41.679688 61.949219 41.859375 61.742188 42.007812 C 61.535156 42.15625 61.308594 42.257812 61.058594 42.316406 C 60.8125 42.371094 60.558594 42.378906 60.308594 42.335938 C 60.058594 42.292969 59.824219 42.203125 59.609375 42.070312 C 59.390625 41.933594 59.210938 41.761719 59.0625 41.550781 L 55.210938 36.097656 L 55.210938 40.113281 C 55.226562 40.210938 55.234375 40.3125 55.230469 40.410156 L 55.230469 54.4375 C 55.230469 54.691406 55.179688 54.933594 55.085938 55.167969 C 54.984375 55.402344 54.847656 55.609375 54.667969 55.789062 C 54.488281 55.96875 54.28125 56.105469 54.046875 56.203125 C 53.8125 56.300781 53.566406 56.347656 53.3125 56.347656 C 53.058594 56.347656 52.816406 56.300781 52.578125 56.203125 C 52.34375 56.105469 52.136719 55.96875 51.957031 55.789062 C 51.777344 55.609375 51.636719 55.402344 51.542969 55.167969 C 51.445312 54.933594 51.394531 54.691406 51.394531 54.4375 L 51.394531 42.832031 L 50.203125 42.832031 L 50.203125 54.4375 C 50.203125 54.691406 50.152344 54.933594 50.054688 55.167969 C 49.957031 55.402344 49.816406 55.609375 49.636719 55.789062 C 49.457031 55.96875 49.25 56.105469 49.015625 56.203125 C 48.78125 56.300781 48.535156 56.347656 48.28125 56.347656 C 48.027344 56.347656 47.785156 56.300781 47.550781 56.203125 C 47.316406 56.105469 47.109375 55.96875 46.925781 55.789062 C 46.746094 55.609375 46.609375 55.402344 46.511719 55.167969 C 46.414062 54.933594 46.367188 54.691406 46.363281 54.4375 L 46.363281 42.832031 L 46.359375 42.832031 L 46.359375 35.667969 L 42.203125 41.546875 C 42.058594 41.753906 41.875 41.925781 41.660156 42.0625 C 41.445312 42.195312 41.210938 42.285156 40.960938 42.328125 C 40.710938 42.371094 40.460938 42.363281 40.214844 42.308594 C 39.964844 42.25 39.738281 42.148438 39.53125 42 C 39.324219 41.855469 39.15625 41.675781 39.023438 41.460938 C 38.886719 41.246094 38.800781 41.015625 38.757812 40.769531 C 38.714844 40.519531 38.71875 40.273438 38.773438 40.027344 C 38.828125 39.777344 38.925781 39.550781 39.070312 39.34375 L 44.757812 31.3125 C 45.140625 30.769531 45.667969 30.5 46.335938 30.507812 C 46.34375 30.507812 46.351562 30.507812 46.359375 30.507812 L 54.941406 30.507812 Z M 55.207031 30.5 " fill-opacity="1" fill-rule="nonzero"/><path fill="#ff66c4" d="M 26.140625 19.53125 C 26.71875 19.53125 27.28125 19.625 27.832031 19.8125 C 28.378906 20 28.878906 20.265625 29.335938 20.621094 C 29.789062 20.972656 30.171875 21.386719 30.484375 21.867188 C 30.796875 22.347656 31.023438 22.863281 31.160156 23.414062 C 31.613281 23.253906 32.09375 23.175781 32.578125 23.191406 C 33.5625 23.222656 34.53125 23.640625 35.226562 24.34375 C 35.921875 25.042969 36.328125 26.015625 36.351562 27.003906 L 32.640625 28.589844 C 32.800781 28.160156 32.835938 27.683594 32.730469 27.238281 C 32.558594 26.488281 32.023438 25.859375 31.394531 25.414062 C 31.347656 25.378906 31.292969 25.347656 31.25 25.3125 C 31.160156 25.917969 30.96875 26.488281 30.671875 27.023438 C 30.375 27.5625 29.992188 28.027344 29.523438 28.429688 C 29.050781 28.828125 28.527344 29.136719 27.945312 29.347656 C 27.363281 29.5625 26.761719 29.667969 26.140625 29.667969 C 25.503906 29.667969 24.890625 29.554688 24.296875 29.332031 C 23.703125 29.105469 23.171875 28.785156 22.699219 28.371094 C 22.226562 27.953125 21.84375 27.464844 21.554688 26.910156 C 21.265625 26.355469 21.085938 25.765625 21.015625 25.148438 C 20.871094 25.226562 20.726562 25.316406 20.589844 25.410156 C 19.960938 25.859375 19.425781 26.484375 19.253906 27.238281 C 19.152344 27.683594 19.1875 28.160156 19.34375 28.585938 L 15.632812 27.003906 C 15.65625 26.015625 16.066406 25.042969 16.761719 24.339844 C 17.457031 23.640625 18.421875 23.21875 19.40625 23.1875 C 19.984375 23.164062 20.566406 23.289062 21.09375 23.523438 C 21.21875 22.957031 21.4375 22.429688 21.746094 21.9375 C 22.054688 21.445312 22.441406 21.015625 22.898438 20.652344 C 23.355469 20.289062 23.863281 20.011719 24.417969 19.820312 C 24.976562 19.625 25.546875 19.53125 26.136719 19.53125 Z M 30.566406 30.5 L 30.566406 30.523438 C 31.125 30.59375 31.566406 30.859375 31.890625 31.320312 L 37.554688 39.351562 C 37.699219 39.558594 37.800781 39.785156 37.855469 40.03125 C 37.910156 40.277344 37.917969 40.523438 37.875 40.773438 C 37.832031 41.019531 37.742188 41.25 37.609375 41.464844 C 37.472656 41.679688 37.304688 41.859375 37.101562 42.007812 C 36.890625 42.15625 36.664062 42.257812 36.414062 42.316406 C 36.167969 42.371094 35.917969 42.378906 35.667969 42.335938 C 35.414062 42.292969 35.179688 42.203125 34.964844 42.070312 C 34.75 41.933594 34.566406 41.761719 34.421875 41.550781 L 30.566406 36.097656 L 30.566406 38.941406 L 38.230469 46.894531 C 38.375 47.046875 38.484375 47.207031 38.558594 47.375 C 38.632812 47.546875 38.671875 47.71875 38.667969 47.894531 C 38.664062 48.066406 38.625 48.238281 38.542969 48.410156 C 38.460938 48.578125 38.347656 48.738281 38.195312 48.886719 C 38.042969 49.039062 37.859375 49.175781 37.644531 49.296875 C 37.429688 49.417969 37.195312 49.523438 36.933594 49.609375 C 36.675781 49.695312 36.398438 49.761719 36.109375 49.804688 C 35.820312 49.847656 35.527344 49.867188 35.226562 49.867188 L 30.589844 49.832031 L 30.589844 54.429688 C 30.589844 54.683594 30.539062 54.929688 30.441406 55.164062 C 30.34375 55.398438 30.207031 55.605469 30.027344 55.785156 C 29.847656 55.964844 29.640625 56.101562 29.402344 56.199219 C 29.167969 56.296875 28.925781 56.34375 28.671875 56.34375 C 28.417969 56.34375 28.171875 56.296875 27.9375 56.199219 C 27.703125 56.101562 27.496094 55.964844 27.316406 55.785156 C 27.136719 55.605469 26.996094 55.398438 26.898438 55.164062 C 26.800781 54.929688 26.753906 54.683594 26.753906 54.429688 L 26.753906 49.808594 L 25.558594 49.804688 L 25.558594 54.429688 C 25.558594 54.683594 25.507812 54.929688 25.410156 55.164062 C 25.3125 55.398438 25.175781 55.605469 24.996094 55.785156 C 24.816406 55.964844 24.609375 56.101562 24.375 56.199219 C 24.140625 56.296875 23.894531 56.34375 23.640625 56.34375 C 23.386719 56.34375 23.144531 56.296875 22.90625 56.199219 C 22.671875 56.101562 22.464844 55.964844 22.285156 55.785156 C 22.105469 55.605469 21.96875 55.398438 21.871094 55.164062 C 21.773438 54.929688 21.722656 54.683594 21.722656 54.429688 L 21.722656 49.773438 L 16.691406 49.742188 L 16.691406 49.746094 C 16.394531 49.746094 16.097656 49.722656 15.8125 49.675781 C 15.523438 49.628906 15.25 49.558594 14.996094 49.46875 C 14.738281 49.382812 14.503906 49.273438 14.292969 49.148438 C 14.085938 49.023438 13.90625 48.886719 13.761719 48.734375 C 13.613281 48.582031 13.503906 48.421875 13.429688 48.25 C 13.355469 48.082031 13.316406 47.910156 13.320312 47.734375 C 13.324219 47.558594 13.363281 47.386719 13.445312 47.21875 C 13.527344 47.050781 13.640625 46.890625 13.792969 46.738281 L 21.71875 38.890625 L 21.71875 35.660156 L 17.5625 41.539062 C 17.417969 41.746094 17.234375 41.917969 17.019531 42.050781 C 16.804688 42.1875 16.570312 42.277344 16.320312 42.320312 C 16.070312 42.363281 15.820312 42.355469 15.570312 42.296875 C 15.324219 42.242188 15.097656 42.140625 14.890625 41.992188 C 14.683594 41.847656 14.511719 41.664062 14.378906 41.453125 C 14.246094 41.238281 14.15625 41.007812 14.113281 40.757812 C 14.070312 40.511719 14.074219 40.261719 14.128906 40.015625 C 14.183594 39.769531 14.285156 39.542969 14.429688 39.335938 L 20.113281 31.304688 C 20.5 30.761719 21.027344 30.492188 21.695312 30.496094 C 21.703125 30.496094 21.707031 30.496094 21.714844 30.496094 L 30.300781 30.496094 Z M 30.566406 30.5 " fill-opacity="1" fill-rule="nonzero"/><g clip-path="url(#24e34a55b8)"><path fill="#ff66c4" d="M 37.9375 0.0078125 C 17.03125 0.0078125 0.0078125 17.03125 0.0078125 37.9375 C 0.0078125 47.125 3.34375 55.96875 9.339844 62.851562 C 9.34375 62.855469 9.347656 62.863281 9.351562 62.867188 C 9.359375 62.871094 9.363281 62.875 9.367188 62.882812 C 9.929688 63.523438 10.511719 64.148438 11.117188 64.757812 C 18.230469 71.867188 27.878906 75.867188 37.9375 75.867188 C 47.996094 75.867188 57.644531 71.867188 64.757812 64.757812 C 71.867188 57.644531 75.867188 47.996094 75.867188 37.9375 C 75.867188 28.59375 72.414062 19.605469 66.226562 12.675781 C 66.214844 12.660156 66.203125 12.648438 66.191406 12.632812 C 66.1875 12.628906 66.183594 12.625 66.179688 12.621094 C 65.71875 12.109375 65.246094 11.605469 64.757812 11.117188 C 57.644531 4.007812 47.996094 0.0078125 37.9375 0.0078125 Z M 37.9375 6.972656 C 45.539062 6.972656 52.847656 9.769531 58.496094 14.785156 L 12.433594 55.496094 C 8.902344 50.367188 6.972656 44.253906 6.972656 37.9375 C 6.972656 20.796875 20.796875 6.972656 37.9375 6.972656 Z M 63.152344 19.96875 C 66.867188 25.179688 68.902344 31.453125 68.902344 37.9375 C 68.902344 46.152344 65.640625 54.023438 59.832031 59.832031 C 54.023438 65.640625 46.152344 68.902344 37.9375 68.902344 C 30.167969 68.902344 22.703125 65.984375 17.003906 60.753906 Z M 63.152344 19.96875 " fill-opacity="1" fill-rule="evenodd"/></g></svg>