<svg xmlns="http://www.w3.org/2000/svg" xmlns:xlink="http://www.w3.org/1999/xlink" width="143" zoomAndPan="magnify" viewBox="0 0 107.25 57.749998" height="77" preserveAspectRatio="xMidYMid meet" version="1.0"><defs><clipPath id="dc2237b6b7"><path d="M 25 0.078125 L 55 0.078125 L 55 42 L 25 42 Z M 25 0.078125 " clip-rule="nonzero"/></clipPath><clipPath id="3fc631a1f1"><path d="M 43 0.078125 L 78 0.078125 L 78 18 L 43 18 Z M 43 0.078125 " clip-rule="nonzero"/></clipPath><clipPath id="daae62c465"><path d="M 0 17 L 106.503906 17 L 106.503906 57.425781 L 0 57.425781 Z M 0 17 " clip-rule="nonzero"/></clipPath></defs><g clip-path="url(#dc2237b6b7)"><path fill="#ff66c4" d="M 44.386719 2.664062 C 38.28125 3.523438 33.96875 6.855469 32.492188 12.859375 C 30.71875 20.082031 29.417969 27.425781 28.175781 34.765625 C 28.023438 35.667969 29.28125 37.46875 30.242188 37.785156 C 33.613281 38.90625 40.472656 41.222656 40.398438 41.636719 C 35.980469 40.75 31.523438 39.996094 27.167969 38.855469 C 26.363281 38.644531 25.347656 36.769531 25.484375 35.8125 C 26.554688 28.296875 27.300781 20.660156 29.269531 13.367188 C 31.796875 4.019531 37.574219 0.425781 47.710938 0.519531 C 50.03125 0.539062 52.351562 0.878906 54.671875 1.070312 C 54.671875 1.21875 47.800781 2.183594 44.386719 2.664062 Z M 44.386719 2.664062 " fill-opacity="1" fill-rule="evenodd"/></g><g clip-path="url(#3fc631a1f1)"><path fill="#ff66c4" d="M 68.238281 1.234375 C 73.019531 0.0703125 76.539062 2.933594 77.042969 7.929688 C 77.375 11.222656 77.105469 14.582031 76.28125 17.984375 C 76.035156 16.175781 75.738281 14.371094 75.546875 12.550781 C 74.660156 4.140625 72.675781 2.839844 64.390625 5.144531 C 60.320312 6.277344 56.261719 7.507812 52.121094 8.285156 C 49.230469 8.828125 46.210938 8.671875 43.25 8.828125 C 43.246094 8.632812 59.835938 3.277344 68.238281 1.234375 Z M 68.238281 1.234375 " fill-opacity="1" fill-rule="evenodd"/></g><g clip-path="url(#daae62c465)"><path fill="#ff66c4" d="M 15.003906 17.917969 C 15.003906 17.917969 14.835938 18.003906 14.515625 18.167969 C 14.195312 18.339844 13.707031 18.566406 13.117188 18.941406 C 11.917969 19.644531 10.21875 20.816406 8.417969 22.65625 C 6.636719 24.503906 4.792969 27.089844 3.628906 30.4375 C 2.472656 33.757812 1.984375 37.847656 2.945312 42.007812 C 3.425781 44.070312 4.285156 46.140625 5.621094 47.925781 C 5.777344 48.160156 5.964844 48.367188 6.140625 48.582031 C 6.316406 48.800781 6.5 49.011719 6.699219 49.207031 L 6.992188 49.511719 C 7.03125 49.550781 7.105469 49.636719 7.121094 49.640625 L 7.289062 49.796875 C 7.515625 50 7.753906 50.234375 7.972656 50.410156 C 8.816406 51.128906 9.816406 51.824219 10.851562 52.371094 C 12.945312 53.488281 15.339844 54.109375 17.84375 54.226562 C 20.351562 54.339844 22.960938 54.019531 25.550781 53.339844 C 30.75 51.988281 35.828125 49.375 40.722656 46.351562 C 45.609375 43.296875 50.304688 39.695312 54.703125 35.796875 C 55.804688 34.835938 56.863281 33.832031 57.976562 32.804688 C 59.101562 31.769531 60.238281 30.773438 61.410156 29.796875 C 63.757812 27.855469 66.242188 26.039062 68.910156 24.527344 C 71.558594 22.992188 74.429688 21.808594 77.335938 21.023438 C 80.25 20.253906 83.125 19.773438 86.015625 19.523438 C 88.898438 19.285156 91.78125 19.273438 94.605469 19.746094 C 97.402344 20.214844 100.230469 21.160156 102.472656 23.046875 C 103.582031 23.984375 104.503906 25.152344 105.113281 26.429688 C 105.734375 27.703125 106.074219 29.050781 106.203125 30.359375 C 106.277344 31.015625 106.285156 31.660156 106.28125 32.296875 L 106.253906 32.777344 L 106.191406 33.328125 C 106.136719 33.664062 106.066406 33.996094 105.972656 34.316406 C 105.605469 35.609375 104.953125 36.730469 104.203125 37.6875 C 102.691406 39.601562 100.832031 40.953125 98.976562 41.972656 C 97.109375 42.988281 95.226562 43.6875 93.414062 44.15625 C 89.792969 45.105469 86.457031 45.082031 83.847656 44.542969 C 81.214844 44.019531 79.359375 42.929688 78.246094 42.082031 C 77.679688 41.660156 77.292969 41.28125 77.03125 41.03125 C 76.777344 40.769531 76.648438 40.632812 76.648438 40.632812 C 76.648438 40.632812 76.789062 40.757812 77.0625 40.996094 C 77.34375 41.21875 77.757812 41.5625 78.351562 41.925781 C 79.519531 42.671875 81.414062 43.527344 83.960938 43.859375 C 86.496094 44.199219 89.667969 43.960938 93.042969 42.878906 C 94.726562 42.332031 96.460938 41.5625 98.125 40.519531 C 99.777344 39.476562 101.410156 38.167969 102.597656 36.492188 C 103.1875 35.65625 103.65625 34.734375 103.878906 33.765625 C 103.9375 33.523438 103.976562 33.28125 104.003906 33.035156 L 104.03125 32.703125 L 104.03125 32.296875 C 104.007812 31.746094 103.976562 31.191406 103.886719 30.652344 C 103.574219 28.472656 102.589844 26.429688 100.8125 25.0625 C 99.058594 23.675781 96.679688 22.917969 94.179688 22.59375 C 91.664062 22.273438 88.996094 22.3125 86.304688 22.59375 C 83.621094 22.882812 80.871094 23.402344 78.226562 24.160156 C 75.578125 24.9375 73.039062 26.058594 70.601562 27.46875 C 68.160156 28.878906 65.847656 30.585938 63.625 32.453125 C 62.519531 33.390625 61.417969 34.363281 60.351562 35.355469 C 59.277344 36.363281 58.179688 37.425781 57.035156 38.433594 C 52.46875 42.4375 47.621094 46.09375 42.515625 49.246094 C 37.414062 52.390625 31.984375 54.972656 26.296875 56.355469 C 23.457031 57.019531 20.527344 57.375 17.652344 57.125 C 14.777344 56.894531 11.972656 56.066406 9.574219 54.671875 C 8.367188 53.976562 7.300781 53.183594 6.277344 52.25 C 6.015625 52.019531 5.820312 51.808594 5.59375 51.589844 L 5.425781 51.429688 C 5.324219 51.332031 5.300781 51.292969 5.234375 51.222656 L 4.898438 50.851562 C 4.449219 50.359375 4.054688 49.824219 3.691406 49.285156 C 2.230469 47.121094 1.390625 44.734375 0.964844 42.417969 C 0.105469 37.761719 0.925781 33.398438 2.371094 29.953125 C 3.808594 26.46875 5.960938 23.914062 7.929688 22.148438 C 9.921875 20.378906 11.765625 19.382812 13.03125 18.773438 C 13.65625 18.449219 14.164062 18.269531 14.496094 18.125 C 14.828125 17.988281 15.003906 17.917969 15.003906 17.917969 Z M 15.003906 17.917969 " fill-opacity="1" fill-rule="nonzero"/></g></svg>