<svg xmlns="http://www.w3.org/2000/svg" xmlns:xlink="http://www.w3.org/1999/xlink" width="108" zoomAndPan="magnify" viewBox="0 0 81 86.999996" height="116" preserveAspectRatio="xMidYMid meet" version="1.0"><defs><clipPath id="15c9e6918b"><path d="M 28 5 L 35.84375 5 L 35.84375 38 L 28 38 Z M 28 5 " clip-rule="nonzero"/></clipPath><clipPath id="520884fdc6"><path d="M 27 18 L 35.84375 18 L 35.84375 39 L 27 39 Z M 27 18 " clip-rule="nonzero"/></clipPath><clipPath id="538d7bd099"><path d="M 33 1.730469 L 80.824219 1.730469 L 80.824219 86.800781 L 33 86.800781 Z M 33 1.730469 " clip-rule="nonzero"/></clipPath></defs><path fill="#ff66c4" d="M 15.03125 6.640625 C 15.582031 6.691406 16.097656 6.835938 16.628906 6.960938 C 16.699219 6.980469 16.71875 6.886719 16.660156 6.859375 C 16.148438 6.648438 15.582031 6.578125 15.03125 6.550781 C 14.972656 6.546875 14.976562 6.636719 15.03125 6.640625 " fill-opacity="1" fill-rule="nonzero"/><path fill="#ff66c4" d="M 15.113281 7.304688 C 15.652344 7.238281 16.1875 7.15625 16.726562 7.101562 C 16.8125 7.09375 16.8125 6.960938 16.726562 6.96875 C 16.183594 7.027344 15.636719 7.101562 15.105469 7.242188 C 15.070312 7.25 15.078125 7.308594 15.113281 7.304688 " fill-opacity="1" fill-rule="nonzero"/><path fill="#ff66c4" d="M 20.203125 6.605469 C 19.546875 6.683594 18.898438 6.804688 18.277344 7.03125 C 18.183594 7.066406 18.21875 7.207031 18.316406 7.183594 C 18.949219 7.015625 19.578125 6.851562 20.222656 6.75 C 20.300781 6.738281 20.285156 6.597656 20.203125 6.605469 " fill-opacity="1" fill-rule="nonzero"/><path fill="#ff66c4" d="M 20.21875 7.386719 C 19.625 7.273438 19.023438 7.203125 18.425781 7.125 C 18.289062 7.105469 18.289062 7.320312 18.425781 7.335938 C 19.015625 7.40625 19.605469 7.484375 20.199219 7.523438 C 20.28125 7.53125 20.296875 7.398438 20.21875 7.386719 " fill-opacity="1" fill-rule="nonzero"/><path fill="#ff66c4" d="M 22.183594 3.480469 C 21.816406 3.140625 21.457031 2.773438 21.0625 2.46875 C 20.996094 2.417969 20.917969 2.523438 20.972656 2.582031 C 21.320312 2.9375 21.722656 3.246094 22.097656 3.566406 C 22.15625 3.613281 22.238281 3.535156 22.183594 3.480469 " fill-opacity="1" fill-rule="nonzero"/><path fill="#ff66c4" d="M 12.75 3.613281 C 13.355469 3.28125 14 2.925781 14.527344 2.476562 C 14.574219 2.441406 14.515625 2.371094 14.46875 2.398438 C 13.859375 2.734375 13.289062 3.164062 12.714844 3.554688 C 12.679688 3.578125 12.710938 3.632812 12.75 3.613281 " fill-opacity="1" fill-rule="nonzero"/><path fill="#ff66c4" d="M 7.800781 5.9375 C 8.789062 5.671875 9.789062 5.378906 10.753906 5.039062 C 10.828125 5.011719 10.796875 4.90625 10.722656 4.921875 C 9.722656 5.148438 8.722656 5.488281 7.78125 5.886719 C 7.753906 5.898438 7.773438 5.945312 7.800781 5.9375 " fill-opacity="1" fill-rule="nonzero"/><path fill="#ff66c4" d="M 15.917969 1.105469 C 15.675781 1.441406 15.394531 1.75 15.164062 2.09375 C 15.136719 2.136719 15.203125 2.167969 15.230469 2.132812 C 15.472656 1.800781 15.71875 1.46875 15.949219 1.125 C 15.960938 1.105469 15.933594 1.089844 15.917969 1.105469 " fill-opacity="1" fill-rule="nonzero"/><path fill="#ff66c4" d="M 16.667969 0.894531 C 16.066406 1.46875 15.488281 2.148438 15.148438 2.910156 C 15.117188 2.972656 15.203125 3.027344 15.242188 2.964844 C 15.675781 2.238281 16.109375 1.546875 16.707031 0.933594 C 16.730469 0.910156 16.691406 0.871094 16.667969 0.894531 " fill-opacity="1" fill-rule="nonzero"/><path fill="#ff66c4" d="M 17.316406 0.882812 C 16.472656 1.773438 15.707031 2.75 15.097656 3.816406 C 15.058594 3.886719 15.164062 3.949219 15.207031 3.878906 C 15.84375 2.832031 16.546875 1.847656 17.378906 0.945312 C 17.417969 0.902344 17.355469 0.839844 17.316406 0.882812 " fill-opacity="1" fill-rule="nonzero"/><path fill="#ff66c4" d="M 18.347656 0.589844 C 17.273438 1.78125 16.226562 2.996094 15.234375 4.257812 C 15.179688 4.324219 15.273438 4.421875 15.328125 4.351562 C 16.335938 3.101562 17.355469 1.863281 18.417969 0.660156 C 18.457031 0.613281 18.390625 0.542969 18.347656 0.589844 " fill-opacity="1" fill-rule="nonzero"/><path fill="#ff66c4" d="M 18.917969 0.742188 C 17.855469 1.96875 16.761719 3.179688 15.75 4.445312 C 15.691406 4.519531 15.789062 4.621094 15.855469 4.550781 C 16.929688 3.335938 17.9375 2.046875 18.960938 0.789062 C 18.984375 0.757812 18.941406 0.714844 18.917969 0.742188 " fill-opacity="1" fill-rule="nonzero"/><path fill="#ff66c4" d="M 19.386719 0.964844 C 18.308594 2.277344 17.171875 3.609375 16.226562 5.019531 C 16.183594 5.082031 16.277344 5.15625 16.332031 5.101562 C 17.496094 3.875 18.445312 2.394531 19.484375 1.0625 C 19.539062 0.992188 19.445312 0.890625 19.386719 0.964844 " fill-opacity="1" fill-rule="nonzero"/><path fill="#ff66c4" d="M 20.015625 1.125 C 19.023438 2.632812 17.761719 3.890625 16.675781 5.316406 C 16.621094 5.386719 16.734375 5.46875 16.796875 5.410156 C 18.0625 4.183594 19.1875 2.679688 20.121094 1.1875 C 20.164062 1.121094 20.058594 1.0625 20.015625 1.125 " fill-opacity="1" fill-rule="nonzero"/><path fill="#ff66c4" d="M 20.242188 1.980469 C 19.3125 3.261719 18.222656 4.40625 17.238281 5.644531 C 17.167969 5.734375 17.289062 5.867188 17.371094 5.773438 C 18.425781 4.585938 19.457031 3.355469 20.378906 2.058594 C 20.4375 1.976562 20.300781 1.898438 20.242188 1.980469 " fill-opacity="1" fill-rule="nonzero"/><path fill="#ff66c4" d="M 20.488281 2.761719 C 19.6875 3.75 18.835938 4.699219 17.988281 5.648438 C 17.917969 5.730469 18.035156 5.847656 18.109375 5.769531 C 18.960938 4.824219 19.777344 3.839844 20.558594 2.832031 C 20.597656 2.78125 20.527344 2.710938 20.488281 2.761719 " fill-opacity="1" fill-rule="nonzero"/><path fill="#ff66c4" d="M 23.828125 4.519531 C 25.113281 4.949219 26.390625 5.398438 27.660156 5.878906 C 27.757812 5.914062 27.800781 5.761719 27.703125 5.722656 C 26.445312 5.214844 25.160156 4.785156 23.847656 4.441406 C 23.796875 4.425781 23.777344 4.503906 23.828125 4.519531 " fill-opacity="1" fill-rule="nonzero"/><path fill="#ff66c4" d="M 20.066406 17.414062 C 20.382812 14.539062 20.742188 11.65625 20.9375 8.769531 C 20.945312 8.691406 20.824219 8.691406 20.816406 8.769531 C 20.550781 11.648438 20.136719 14.527344 19.988281 17.414062 C 19.988281 17.464844 20.0625 17.460938 20.066406 17.414062 " fill-opacity="1" fill-rule="nonzero"/><path fill="#ff66c4" d="M 15.042969 16.835938 C 14.761719 14.15625 14.515625 11.445312 14.375 8.769531 C 14.367188 8.648438 14.175781 8.644531 14.183594 8.769531 C 14.324219 11.429688 14.398438 14.222656 14.984375 16.84375 C 14.992188 16.875 15.046875 16.867188 15.042969 16.835938 " fill-opacity="1" fill-rule="nonzero"/><path fill="#ff66c4" d="M 8.820312 33.121094 C 8.640625 35.035156 8.328125 36.941406 8.179688 38.855469 C 8.175781 38.917969 8.28125 38.933594 8.292969 38.871094 C 8.652344 36.988281 8.773438 35.03125 8.941406 33.121094 C 8.949219 33.042969 8.828125 33.042969 8.820312 33.121094 " fill-opacity="1" fill-rule="nonzero"/><path fill="#ff66c4" d="M 9.511719 35.261719 C 9.339844 36.46875 9.195312 37.691406 9.160156 38.910156 C 9.160156 38.984375 9.273438 38.984375 9.277344 38.910156 C 9.351562 37.695312 9.425781 36.492188 9.589844 35.285156 C 9.597656 35.230469 9.519531 35.210938 9.511719 35.261719 " fill-opacity="1" fill-rule="nonzero"/><path fill="#ff66c4" d="M 26.734375 33.121094 C 26.910156 35.171875 27.101562 37.3125 27.542969 39.324219 C 27.5625 39.433594 27.746094 39.410156 27.734375 39.300781 C 27.550781 37.230469 27.1875 35.15625 26.910156 33.097656 C 26.898438 33 26.722656 33.019531 26.734375 33.121094 " fill-opacity="1" fill-rule="nonzero"/><path fill="#ff66c4" d="M 26.136719 35.769531 C 26.265625 36.890625 26.382812 38.011719 26.511719 39.132812 C 26.527344 39.253906 26.714844 39.261719 26.707031 39.132812 C 26.664062 38.003906 26.511719 36.851562 26.28125 35.75 C 26.265625 35.671875 26.128906 35.6875 26.136719 35.769531 " fill-opacity="1" fill-rule="nonzero"/><path fill="#ff66c4" d="M 12.183594 29.421875 C 10.828125 29.296875 9.457031 29.058594 8.097656 29.066406 C 7.984375 29.066406 7.988281 29.230469 8.097656 29.238281 C 9.449219 29.355469 10.824219 29.488281 12.183594 29.476562 C 12.21875 29.476562 12.21875 29.425781 12.183594 29.421875 " fill-opacity="1" fill-rule="nonzero"/><path fill="#ff66c4" d="M 23.429688 29.503906 C 24.796875 29.652344 26.242188 29.300781 27.609375 29.21875 C 27.648438 29.214844 27.652344 29.152344 27.609375 29.152344 C 26.234375 29.191406 24.777344 29.210938 23.425781 29.484375 C 23.414062 29.484375 23.417969 29.503906 23.429688 29.503906 " fill-opacity="1" fill-rule="nonzero"/><path fill="#ff66c4" d="M 6.824219 7.164062 C 6.4375 8.070312 6.078125 8.988281 5.769531 9.921875 C 5.753906 9.972656 5.835938 9.996094 5.851562 9.945312 C 6.171875 9.015625 6.503906 8.097656 6.878906 7.1875 C 6.890625 7.15625 6.835938 7.132812 6.824219 7.164062 " fill-opacity="1" fill-rule="nonzero"/><path fill="#ff66c4" d="M 6.253906 10.910156 C 6.449219 10.085938 6.730469 9.289062 7.066406 8.511719 C 7.09375 8.449219 7.003906 8.394531 6.976562 8.457031 C 6.617188 9.238281 6.359375 10.050781 6.179688 10.890625 C 6.167969 10.9375 6.242188 10.960938 6.253906 10.910156 " fill-opacity="1" fill-rule="nonzero"/><path fill="#ff66c4" d="M 6.664062 11.632812 C 6.828125 11.109375 7.039062 10.605469 7.242188 10.097656 C 7.269531 10.03125 7.15625 9.984375 7.125 10.046875 C 6.886719 10.546875 6.71875 11.074219 6.574219 11.609375 C 6.558594 11.667969 6.644531 11.691406 6.664062 11.632812 " fill-opacity="1" fill-rule="nonzero"/><path fill="#ff66c4" d="M 6.773438 13.132812 C 7.046875 12.539062 7.296875 11.929688 7.527344 11.3125 C 7.550781 11.25 7.441406 11.203125 7.414062 11.265625 C 7.148438 11.867188 6.902344 12.480469 6.683594 13.097656 C 6.664062 13.148438 6.75 13.183594 6.773438 13.132812 " fill-opacity="1" fill-rule="nonzero"/><path fill="#ff66c4" d="M 6.992188 13.960938 C 7.355469 13.371094 7.652344 12.746094 7.828125 12.078125 C 7.847656 12.011719 7.753906 11.988281 7.730469 12.050781 C 7.507812 12.695312 7.257812 13.320312 6.929688 13.921875 C 6.90625 13.964844 6.96875 14 6.992188 13.960938 " fill-opacity="1" fill-rule="nonzero"/><path fill="#ff66c4" d="M 7.082031 15.214844 C 7.359375 14.832031 7.570312 14.394531 7.730469 13.957031 C 7.753906 13.902344 7.660156 13.863281 7.636719 13.914062 C 7.445312 14.34375 7.234375 14.761719 7.035156 15.1875 C 7.019531 15.21875 7.0625 15.246094 7.082031 15.214844 " fill-opacity="1" fill-rule="nonzero"/><path fill="#ff66c4" d="M 29.828125 8.617188 C 29.542969 8.027344 29.300781 7.425781 29.089844 6.804688 C 29.054688 6.703125 28.894531 6.75 28.929688 6.847656 C 29.152344 7.476562 29.410156 8.089844 29.707031 8.6875 C 29.746094 8.769531 29.867188 8.699219 29.828125 8.617188 " fill-opacity="1" fill-rule="nonzero"/><path fill="#ff66c4" d="M 29.484375 9.667969 C 29.363281 9.109375 29.214844 8.558594 29.039062 8.015625 C 29 7.902344 28.824219 7.949219 28.859375 8.066406 C 29.027344 8.609375 29.191406 9.15625 29.34375 9.707031 C 29.371094 9.800781 29.507812 9.761719 29.484375 9.667969 " fill-opacity="1" fill-rule="nonzero"/><path fill="#ff66c4" d="M 29.011719 10.90625 C 28.964844 10.367188 28.828125 9.855469 28.570312 9.382812 C 28.527344 9.304688 28.410156 9.375 28.449219 9.453125 C 28.679688 9.914062 28.839844 10.394531 28.90625 10.90625 C 28.914062 10.972656 29.019531 10.972656 29.011719 10.90625 " fill-opacity="1" fill-rule="nonzero"/><path fill="#ff66c4" d="M 28.824219 12.21875 C 28.667969 11.8125 28.507812 11.40625 28.347656 11 C 28.320312 10.933594 28.207031 10.960938 28.234375 11.03125 C 28.40625 11.4375 28.574219 11.84375 28.75 12.25 C 28.769531 12.289062 28.839844 12.261719 28.824219 12.21875 " fill-opacity="1" fill-rule="nonzero"/><path fill="#ff66c4" d="M 29.023438 13.570312 C 28.855469 13.175781 28.65625 12.796875 28.390625 12.457031 C 28.34375 12.394531 28.234375 12.476562 28.28125 12.542969 C 28.515625 12.894531 28.738281 13.246094 28.921875 13.628906 C 28.957031 13.699219 29.054688 13.636719 29.023438 13.570312 " fill-opacity="1" fill-rule="nonzero"/><path fill="#ff66c4" d="M 28.804688 14.722656 C 28.628906 14.414062 28.40625 14.125 28.199219 13.839844 C 28.136719 13.753906 27.988281 13.832031 28.050781 13.925781 C 28.25 14.226562 28.449219 14.539062 28.683594 14.816406 C 28.742188 14.882812 28.84375 14.796875 28.804688 14.722656 " fill-opacity="1" fill-rule="nonzero"/><path fill="#ff66c4" d="M 23.902344 4.988281 C 23.535156 5.527344 23.269531 6.179688 23.09375 6.808594 C 23.070312 6.898438 23.203125 6.933594 23.234375 6.847656 C 23.464844 6.230469 23.722656 5.628906 23.964844 5.015625 C 23.980469 4.976562 23.921875 4.957031 23.902344 4.988281 " fill-opacity="1" fill-rule="nonzero"/><path fill="#ff66c4" d="M 24.058594 5.753906 C 23.644531 6.628906 23.214844 7.5 22.824219 8.386719 C 22.785156 8.46875 22.902344 8.539062 22.941406 8.457031 C 23.363281 7.582031 23.75 6.691406 24.148438 5.804688 C 24.171875 5.746094 24.089844 5.695312 24.058594 5.753906 " fill-opacity="1" fill-rule="nonzero"/><path fill="#ff66c4" d="M 24.121094 6.859375 C 23.441406 8.15625 22.816406 9.476562 22.261719 10.832031 C 22.222656 10.925781 22.375 10.964844 22.414062 10.871094 C 22.972656 9.535156 23.5625 8.210938 24.207031 6.910156 C 24.238281 6.855469 24.152344 6.804688 24.121094 6.859375 " fill-opacity="1" fill-rule="nonzero"/><path fill="#ff66c4" d="M 23.683594 8.902344 C 23.054688 10.195312 22.464844 11.5 21.917969 12.828125 C 21.898438 12.875 21.972656 12.894531 21.992188 12.847656 C 22.535156 11.527344 23.113281 10.21875 23.726562 8.929688 C 23.742188 8.898438 23.699219 8.875 23.683594 8.902344 " fill-opacity="1" fill-rule="nonzero"/><path fill="#ff66c4" d="M 23.503906 10.398438 C 22.960938 11.796875 22.28125 13.117188 21.488281 14.390625 C 21.4375 14.476562 21.570312 14.554688 21.625 14.46875 C 22.441406 13.199219 23.09375 11.847656 23.613281 10.429688 C 23.640625 10.359375 23.53125 10.332031 23.503906 10.398438 " fill-opacity="1" fill-rule="nonzero"/><path fill="#ff66c4" d="M 22.445312 14.84375 C 21.894531 15.929688 21.367188 17.023438 20.886719 18.140625 C 20.851562 18.222656 20.96875 18.296875 21.007812 18.210938 C 21.5 17.097656 22.003906 15.992188 22.542969 14.898438 C 22.578125 14.835938 22.480469 14.777344 22.445312 14.84375 " fill-opacity="1" fill-rule="nonzero"/><path fill="#ff66c4" d="M 22.488281 16.410156 C 21.722656 17.742188 20.96875 19.085938 20.292969 20.464844 C 20.261719 20.523438 20.351562 20.574219 20.378906 20.515625 C 21.09375 19.152344 21.792969 17.785156 22.542969 16.445312 C 22.566406 16.40625 22.507812 16.371094 22.488281 16.410156 " fill-opacity="1" fill-rule="nonzero"/><path fill="#ff66c4" d="M 11.984375 6.988281 C 11.785156 7.457031 11.671875 7.976562 11.53125 8.464844 C 11.507812 8.539062 11.625 8.570312 11.644531 8.496094 C 11.78125 8.007812 11.957031 7.511719 12.03125 7.007812 C 12.035156 6.984375 11.996094 6.960938 11.984375 6.988281 " fill-opacity="1" fill-rule="nonzero"/><path fill="#ff66c4" d="M 12.101562 7.976562 C 11.878906 8.746094 11.628906 9.511719 11.441406 10.289062 C 11.425781 10.34375 11.503906 10.363281 11.523438 10.3125 C 11.765625 9.546875 11.949219 8.765625 12.160156 7.992188 C 12.171875 7.953125 12.113281 7.9375 12.101562 7.976562 " fill-opacity="1" fill-rule="nonzero"/><path fill="#ff66c4" d="M 12.261719 9.570312 C 12 10.269531 11.742188 10.964844 11.480469 11.664062 C 11.460938 11.722656 11.554688 11.75 11.578125 11.691406 C 11.824219 10.988281 12.074219 10.289062 12.324219 9.585938 C 12.335938 9.546875 12.273438 9.53125 12.261719 9.570312 " fill-opacity="1" fill-rule="nonzero"/><path fill="#ff66c4" d="M 12.433594 11.164062 C 12.09375 11.945312 11.78125 12.761719 11.609375 13.597656 C 11.597656 13.648438 11.671875 13.667969 11.683594 13.617188 C 11.921875 12.792969 12.15625 11.980469 12.492188 11.1875 C 12.503906 11.152344 12.449219 11.128906 12.433594 11.164062 " fill-opacity="1" fill-rule="nonzero"/><path fill="#ff66c4" d="M 12.699219 12.765625 C 12.367188 13.628906 12.023438 14.488281 11.703125 15.359375 C 11.683594 15.414062 11.773438 15.4375 11.792969 15.382812 C 12.132812 14.523438 12.449219 13.652344 12.773438 12.789062 C 12.792969 12.742188 12.71875 12.722656 12.699219 12.765625 " fill-opacity="1" fill-rule="nonzero"/><path fill="#ff66c4" d="M 13.238281 14.234375 C 12.863281 15.097656 12.492188 15.957031 12.121094 16.816406 C 12.078125 16.917969 12.214844 16.976562 12.257812 16.875 C 12.621094 16.011719 12.984375 15.144531 13.34375 14.28125 C 13.371094 14.21875 13.261719 14.175781 13.238281 14.234375 " fill-opacity="1" fill-rule="nonzero"/><path fill="#ff66c4" d="M 13.757812 16.179688 C 13.320312 16.949219 12.972656 17.75 12.742188 18.609375 C 12.722656 18.679688 12.835938 18.710938 12.855469 18.640625 C 13.109375 17.804688 13.421875 16.992188 13.828125 16.21875 C 13.851562 16.171875 13.785156 16.132812 13.757812 16.179688 " fill-opacity="1" fill-rule="nonzero"/><path fill="#ff66c4" d="M 13.96875 18.378906 C 13.648438 19.027344 13.363281 19.6875 13.125 20.371094 C 13.097656 20.445312 13.21875 20.480469 13.246094 20.40625 C 13.484375 19.734375 13.746094 19.070312 14.050781 18.425781 C 14.074219 18.371094 13.996094 18.324219 13.96875 18.378906 " fill-opacity="1" fill-rule="nonzero"/><path fill="#ff66c4" d="M 14.15625 20.785156 C 13.898438 21.378906 13.625 21.96875 13.386719 22.574219 C 13.355469 22.652344 13.488281 22.707031 13.523438 22.628906 C 13.800781 22.050781 14.046875 21.457031 14.304688 20.871094 C 14.351562 20.769531 14.199219 20.679688 14.15625 20.785156 " fill-opacity="1" fill-rule="nonzero"/><path fill="#ff66c4" d="M 30.746094 31.691406 C 30.847656 33.605469 31.058594 35.511719 31.199219 37.421875 C 31.207031 37.546875 31.394531 37.546875 31.390625 37.421875 C 31.304688 35.507812 31.015625 33.605469 30.894531 31.691406 C 30.886719 31.597656 30.742188 31.59375 30.746094 31.691406 " fill-opacity="1" fill-rule="nonzero"/><path fill="#ff66c4" d="M 32.492188 35.160156 C 32.53125 35.984375 32.542969 36.820312 32.625 37.640625 C 32.636719 37.746094 32.792969 37.75 32.789062 37.640625 C 32.773438 36.816406 32.679688 35.984375 32.621094 35.160156 C 32.613281 35.078125 32.488281 35.078125 32.492188 35.160156 " fill-opacity="1" fill-rule="nonzero"/><path fill="#ff66c4" d="M 4.894531 32.238281 C 4.777344 34.082031 4.550781 35.960938 4.574219 37.808594 C 4.574219 37.902344 4.703125 37.894531 4.714844 37.808594 C 4.9375 35.972656 4.917969 34.085938 5 32.238281 C 5.003906 32.171875 4.898438 32.171875 4.894531 32.238281 " fill-opacity="1" fill-rule="nonzero"/><path fill="#ff66c4" d="M 3.683594 34.886719 C 3.648438 35.820312 3.589844 36.761719 3.59375 37.699219 C 3.59375 37.761719 3.691406 37.761719 3.695312 37.699219 C 3.742188 36.761719 3.726562 35.824219 3.734375 34.886719 C 3.734375 34.851562 3.683594 34.855469 3.683594 34.886719 " fill-opacity="1" fill-rule="nonzero"/><path fill="#ff66c4" d="M 24.933594 54.402344 C 24.933594 62.230469 24.726562 70.058594 24.449219 77.882812 C 24.382812 79.847656 24.289062 81.816406 24.21875 83.78125 C 24.214844 83.929688 24.441406 83.925781 24.449219 83.78125 C 24.921875 75.976562 24.980469 68.125 25.082031 60.308594 C 25.105469 58.339844 25.121094 56.371094 25.121094 54.402344 C 25.121094 54.285156 24.933594 54.285156 24.933594 54.402344 " fill-opacity="1" fill-rule="nonzero"/><path fill="#ff66c4" d="M 23.980469 61.566406 C 23.851562 65.132812 23.800781 68.699219 23.738281 72.261719 C 23.703125 74.148438 23.667969 76.035156 23.628906 77.921875 C 23.59375 79.59375 23.46875 81.285156 23.519531 82.957031 C 23.523438 83.066406 23.675781 83.0625 23.6875 82.957031 C 23.851562 81.335938 23.804688 79.675781 23.832031 78.042969 C 23.867188 76.117188 23.890625 74.191406 23.917969 72.261719 C 23.964844 68.699219 24.003906 65.132812 24.121094 61.566406 C 24.125 61.476562 23.984375 61.480469 23.980469 61.566406 " fill-opacity="1" fill-rule="nonzero"/><path fill="#ff66c4" d="M 10.402344 54.074219 C 10.257812 55.886719 10.359375 57.742188 10.375 59.5625 C 10.394531 62.027344 10.425781 64.492188 10.457031 66.957031 C 10.515625 71.625 10.589844 76.292969 10.679688 80.964844 C 10.699219 81.957031 10.722656 82.953125 10.742188 83.949219 C 10.746094 84.15625 11.066406 84.15625 11.0625 83.949219 C 10.902344 76.097656 10.722656 68.242188 10.589844 60.390625 C 10.554688 58.292969 10.621094 56.164062 10.460938 54.074219 C 10.460938 54.035156 10.402344 54.035156 10.402344 54.074219 " fill-opacity="1" fill-rule="nonzero"/><path fill="#ff66c4" d="M 11.367188 61.734375 C 11.207031 63.273438 11.324219 64.878906 11.328125 66.425781 C 11.332031 68.398438 11.347656 70.371094 11.359375 72.34375 C 11.378906 75.882812 11.421875 79.417969 11.421875 82.957031 C 11.421875 83.089844 11.625 83.089844 11.625 82.957031 C 11.640625 79.417969 11.59375 75.882812 11.554688 72.34375 C 11.53125 70.410156 11.507812 68.472656 11.484375 66.535156 C 11.464844 64.949219 11.570312 63.3125 11.410156 61.734375 C 11.40625 61.707031 11.371094 61.707031 11.367188 61.734375 " fill-opacity="1" fill-rule="nonzero"/><path fill="#ff66c4" d="M 17.460938 34.113281 C 17.390625 35.472656 17.40625 36.835938 17.4375 38.195312 C 17.441406 38.304688 17.613281 38.304688 17.609375 38.195312 C 17.546875 36.835938 17.539062 35.476562 17.519531 34.113281 C 17.519531 34.078125 17.464844 34.078125 17.460938 34.113281 " fill-opacity="1" fill-rule="nonzero"/><path fill="#ff66c4" d="M 18.652344 40.5625 C 18.675781 38.96875 18.671875 37.363281 18.601562 35.769531 C 18.59375 35.675781 18.453125 35.671875 18.453125 35.769531 C 18.433594 37.363281 18.488281 38.972656 18.566406 40.5625 C 18.566406 40.621094 18.652344 40.621094 18.652344 40.5625 " fill-opacity="1" fill-rule="nonzero"/><path fill="#ff66c4" d="M 19.914062 41.226562 C 19.921875 40.363281 19.882812 39.492188 19.816406 38.636719 C 19.808594 38.539062 19.667969 38.539062 19.667969 38.636719 C 19.675781 39.496094 19.707031 40.367188 19.789062 41.226562 C 19.796875 41.304688 19.914062 41.308594 19.914062 41.226562 " fill-opacity="1" fill-rule="nonzero"/><path fill="#ff66c4" d="M 24.175781 45.800781 C 24.316406 43.632812 24.464844 41.414062 24.339844 39.242188 C 24.335938 39.144531 24.195312 39.144531 24.191406 39.242188 C 24.109375 41.421875 24.175781 43.617188 24.125 45.800781 C 24.125 45.832031 24.171875 45.832031 24.175781 45.800781 " fill-opacity="1" fill-rule="nonzero"/><path fill="#ff66c4" d="M 25.101562 43.210938 C 25.160156 41.816406 25.242188 40.417969 25.253906 39.023438 C 25.257812 38.914062 25.097656 38.914062 25.089844 39.023438 C 25.019531 40.417969 25.015625 41.816406 24.988281 43.210938 C 24.988281 43.285156 25.101562 43.285156 25.101562 43.210938 " fill-opacity="1" fill-rule="nonzero"/><path fill="#ff66c4" d="M 21.171875 41.722656 C 21.183594 41.117188 21.1875 40.507812 21.179688 39.902344 C 21.179688 39.832031 21.070312 39.832031 21.070312 39.902344 C 21.058594 40.507812 21.066406 41.117188 21.078125 41.722656 C 21.078125 41.78125 21.171875 41.78125 21.171875 41.722656 " fill-opacity="1" fill-rule="nonzero"/><path fill="#ff66c4" d="M 22.140625 43.15625 C 22.269531 41.929688 22.273438 40.640625 22.246094 39.40625 C 22.242188 39.300781 22.085938 39.300781 22.082031 39.40625 C 22.019531 40.636719 21.980469 41.925781 22.074219 43.15625 C 22.078125 43.199219 22.136719 43.195312 22.140625 43.15625 " fill-opacity="1" fill-rule="nonzero"/><path fill="#ff66c4" d="M 10.382812 42.992188 C 10.4375 41.820312 10.464844 40.632812 10.417969 39.460938 C 10.410156 39.335938 10.226562 39.335938 10.222656 39.460938 C 10.175781 40.632812 10.203125 41.820312 10.253906 42.992188 C 10.257812 43.074219 10.378906 43.074219 10.382812 42.992188 " fill-opacity="1" fill-rule="nonzero"/><path fill="#ff66c4" d="M 11.460938 45.636719 C 11.65625 43.535156 11.578125 41.351562 11.527344 39.242188 C 11.523438 39.101562 11.308594 39.101562 11.308594 39.242188 C 11.300781 41.363281 11.257812 43.519531 11.378906 45.636719 C 11.378906 45.691406 11.457031 45.691406 11.460938 45.636719 " fill-opacity="1" fill-rule="nonzero"/><path fill="#ff66c4" d="M 13.625 43.542969 C 13.628906 42.144531 13.667969 40.75 13.691406 39.351562 C 13.695312 39.253906 13.550781 39.257812 13.546875 39.351562 C 13.457031 40.742188 13.46875 42.148438 13.53125 43.542969 C 13.535156 43.601562 13.625 43.601562 13.625 43.542969 " fill-opacity="1" fill-rule="nonzero"/><path fill="#ff66c4" d="M 14.597656 41.886719 C 14.632812 41.0625 14.652344 40.234375 14.636719 39.40625 C 14.636719 39.3125 14.492188 39.3125 14.492188 39.40625 C 14.476562 40.234375 14.496094 41.0625 14.53125 41.886719 C 14.53125 41.929688 14.597656 41.929688 14.597656 41.886719 " fill-opacity="1" fill-rule="nonzero"/><path fill="#ff66c4" d="M 15.691406 41.171875 C 15.683594 40.140625 15.679688 39.113281 15.632812 38.082031 C 15.628906 37.980469 15.472656 37.976562 15.472656 38.082031 C 15.460938 39.113281 15.492188 40.140625 15.523438 41.171875 C 15.527344 41.277344 15.691406 41.277344 15.691406 41.171875 " fill-opacity="1" fill-rule="nonzero"/><path fill="#ff66c4" d="M 16.191406 39.792969 C 16.1875 39.808594 16.183594 39.820312 16.179688 39.832031 C 16.175781 39.851562 16.183594 39.871094 16.199219 39.878906 C 16.214844 39.886719 16.230469 39.894531 16.242188 39.902344 C 16.265625 39.914062 16.304688 39.910156 16.316406 39.882812 C 16.511719 39.476562 16.390625 38.835938 16.394531 38.390625 C 16.398438 37.664062 16.414062 36.9375 16.398438 36.210938 C 16.398438 36.078125 16.199219 36.078125 16.195312 36.210938 C 16.1875 36.800781 16.199219 37.390625 16.207031 37.980469 C 16.214844 38.550781 16.128906 39.242188 16.253906 39.792969 C 16.246094 39.761719 16.199219 39.765625 16.191406 39.792969 " fill-opacity="1" fill-rule="nonzero"/><path fill="#ff66c4" d="M 3.777344 22.792969 C 4.09375 23.019531 4.402344 23.253906 4.726562 23.460938 C 4.785156 23.496094 4.851562 23.410156 4.800781 23.367188 C 4.492188 23.125 4.164062 22.90625 3.84375 22.679688 C 3.777344 22.632812 3.710938 22.746094 3.777344 22.792969 " fill-opacity="1" fill-rule="nonzero"/><path fill="#ff66c4" d="M 31.910156 21.832031 C 31.542969 22.152344 31.175781 22.503906 30.855469 22.871094 C 30.773438 22.96875 30.902344 23.097656 30.996094 23.011719 C 31.363281 22.691406 31.714844 22.324219 32.03125 21.953125 C 32.105469 21.871094 31.996094 21.761719 31.910156 21.832031 " fill-opacity="1" fill-rule="nonzero"/><path fill="#ff66c4" d="M 21.675781 14.472656 C 21.84375 14.738281 22.84375 14.703125 23.09375 14.722656 C 24.101562 14.8125 25.109375 14.863281 26.121094 14.914062 C 26.53125 14.933594 26.523438 14.308594 26.121094 14.277344 C 25.117188 14.203125 24.101562 14.1875 23.09375 14.207031 C 22.8125 14.210938 21.871094 14.105469 21.675781 14.371094 C 21.65625 14.398438 21.660156 14.445312 21.675781 14.472656 " fill-opacity="1" fill-rule="nonzero"/><path fill="#ff66c4" d="M 21.910156 13.425781 C 22.105469 13.753906 23.378906 13.699219 23.695312 13.726562 C 24.472656 13.785156 25.253906 13.835938 26.03125 13.886719 C 26.417969 13.910156 26.421875 13.296875 26.03125 13.28125 C 25.253906 13.25 24.472656 13.222656 23.695312 13.203125 C 23.351562 13.195312 22.15625 13.007812 21.910156 13.328125 C 21.890625 13.355469 21.894531 13.398438 21.910156 13.425781 " fill-opacity="1" fill-rule="nonzero"/><path fill="#ff66c4" d="M 26.335938 13.765625 C 26.382812 13.726562 26.402344 13.675781 26.414062 13.621094 C 26.285156 13.582031 26.15625 13.546875 26.027344 13.511719 C 25.996094 13.671875 25.964844 13.828125 25.941406 13.988281 C 25.902344 14.222656 25.777344 14.605469 25.972656 14.792969 C 26.082031 14.894531 26.261719 14.902344 26.367188 14.792969 C 26.542969 14.609375 26.453125 14.265625 26.441406 14.039062 C 26.4375 13.878906 26.433594 13.722656 26.421875 13.566406 C 26.40625 13.308594 26.023438 13.304688 26.019531 13.566406 C 26.019531 13.644531 26.042969 13.703125 26.089844 13.765625 C 26.152344 13.839844 26.273438 13.820312 26.335938 13.765625 " fill-opacity="1" fill-rule="nonzero"/><path fill="#ff66c4" d="M 17.359375 8.21875 C 17.039062 14.113281 17.253906 20.066406 17.40625 25.964844 C 17.410156 26.0625 17.566406 26.0625 17.5625 25.964844 C 17.417969 20.050781 17.757812 14.128906 17.5625 8.21875 C 17.558594 8.085938 17.367188 8.089844 17.359375 8.21875 " fill-opacity="1" fill-rule="nonzero"/><path fill="#ff66c4" d="M 15.03125 4.160156 C 15.71875 4.980469 16.738281 5.460938 17.5 6.203125 C 17.703125 6.402344 18.015625 6.089844 17.8125 5.894531 C 17.03125 5.148438 16.03125 4.675781 15.183594 4.011719 C 15.074219 3.929688 14.941406 4.054688 15.03125 4.160156 " fill-opacity="1" fill-rule="nonzero"/><path fill="#ff66c4" d="M 20.113281 3.804688 C 19.691406 4.371094 19.179688 4.832031 18.609375 5.242188 C 18.140625 5.574219 17.625 5.875 17.222656 6.289062 C 17.101562 6.410156 17.257812 6.613281 17.410156 6.527344 C 18.515625 5.894531 19.632812 5.011719 20.320312 3.925781 C 20.402344 3.792969 20.203125 3.683594 20.113281 3.804688 " fill-opacity="1" fill-rule="nonzero"/><path fill="#ff66c4" d="M 22.71875 82.40625 C 22.78125 78.910156 22.90625 75.414062 22.964844 71.914062 C 23.082031 64.777344 23.160156 57.636719 23.210938 50.5 C 23.242188 46.769531 23.445312 43.027344 23.351562 39.296875 C 23.347656 39.058594 23 39.0625 22.984375 39.296875 C 22.792969 42.558594 22.847656 45.839844 22.820312 49.105469 C 22.789062 52.804688 22.703125 56.503906 22.652344 60.203125 C 22.574219 66.371094 22.476562 72.546875 22.546875 78.714844 C 22.5625 79.945312 22.578125 81.175781 22.574219 82.40625 C 22.574219 82.5 22.71875 82.5 22.71875 82.40625 " fill-opacity="1" fill-rule="nonzero"/><path fill="#ff66c4" d="M 12.570312 82.734375 C 13.011719 77.121094 12.855469 71.414062 12.835938 65.785156 C 12.816406 60.191406 12.8125 54.597656 12.847656 49.003906 C 12.867188 45.765625 12.898438 42.53125 12.929688 39.296875 C 12.933594 39.015625 12.503906 39.015625 12.496094 39.296875 C 12.175781 50.53125 12.421875 61.789062 12.433594 73.027344 C 12.4375 76.257812 12.351562 79.507812 12.480469 82.734375 C 12.484375 82.792969 12.566406 82.792969 12.570312 82.734375 " fill-opacity="1" fill-rule="nonzero"/><path fill="#ff66c4" d="M 7.4375 16.613281 C 6.273438 20.046875 5.316406 23.578125 4.8125 27.171875 C 4.324219 30.644531 3.914062 34.257812 4.121094 37.765625 C 4.128906 37.882812 4.296875 37.882812 4.300781 37.765625 C 4.457031 34.125 4.542969 30.558594 5.179688 26.960938 C 5.800781 23.476562 6.582031 20.046875 7.652344 16.671875 C 7.695312 16.535156 7.484375 16.476562 7.4375 16.613281 " fill-opacity="1" fill-rule="nonzero"/><path fill="#ff66c4" d="M 31.957031 37.601562 C 31.898438 34.816406 31.597656 32.050781 31.402344 29.273438 C 31.273438 27.449219 31.230469 25.667969 30.707031 23.90625 C 29.984375 21.464844 29.140625 19.066406 28.375 16.644531 C 28.332031 16.511719 28.125 16.570312 28.164062 16.703125 C 28.917969 19.082031 29.59375 21.496094 30.339844 23.882812 C 30.902344 25.691406 30.898438 27.53125 31.046875 29.410156 C 31.261719 32.144531 31.585938 34.867188 31.804688 37.601562 C 31.8125 37.699219 31.957031 37.699219 31.957031 37.601562 " fill-opacity="1" fill-rule="nonzero"/><path fill="#ff66c4" d="M 8.003906 28.757812 C 9.472656 28.910156 10.949219 29.0625 12.421875 29.105469 C 12.644531 29.109375 12.640625 28.78125 12.421875 28.761719 C 10.953125 28.640625 9.480469 28.5625 8.003906 28.488281 C 7.828125 28.480469 7.835938 28.742188 8.003906 28.757812 " fill-opacity="1" fill-rule="nonzero"/><path fill="#ff66c4" d="M 8.0625 27.523438 C 9.539062 27.707031 11.035156 27.742188 12.519531 27.820312 C 12.699219 27.828125 12.742188 27.53125 12.5625 27.503906 C 11.078125 27.296875 9.558594 27.398438 8.0625 27.292969 C 7.910156 27.28125 7.917969 27.507812 8.0625 27.523438 " fill-opacity="1" fill-rule="nonzero"/><path fill="#ff66c4" d="M 12.53125 27.636719 C 12.472656 28.050781 12.289062 28.515625 12.324219 28.933594 C 12.335938 29.097656 12.585938 29.15625 12.628906 28.972656 C 12.675781 28.765625 12.660156 28.542969 12.671875 28.332031 C 12.683594 28.105469 12.695312 27.882812 12.691406 27.660156 C 12.691406 27.570312 12.542969 27.542969 12.53125 27.636719 " fill-opacity="1" fill-rule="nonzero"/><path fill="#ff66c4" d="M 27.660156 28.488281 C 26.1875 28.5625 24.710938 28.640625 23.242188 28.761719 C 23.027344 28.78125 23.019531 29.109375 23.242188 29.105469 C 24.714844 29.0625 26.191406 28.910156 27.660156 28.757812 C 27.828125 28.742188 27.835938 28.480469 27.660156 28.488281 " fill-opacity="1" fill-rule="nonzero"/><path fill="#ff66c4" d="M 27.601562 27.292969 C 26.109375 27.398438 24.585938 27.296875 23.101562 27.503906 C 22.921875 27.527344 22.964844 27.828125 23.144531 27.820312 C 24.628906 27.742188 26.128906 27.707031 27.601562 27.523438 C 27.746094 27.507812 27.753906 27.28125 27.601562 27.292969 " fill-opacity="1" fill-rule="nonzero"/><path fill="#ff66c4" d="M 22.972656 27.660156 C 22.96875 27.882812 22.980469 28.105469 22.992188 28.332031 C 23.003906 28.542969 22.988281 28.765625 23.035156 28.972656 C 23.074219 29.15625 23.328125 29.097656 23.339844 28.933594 C 23.375 28.515625 23.191406 28.050781 23.132812 27.636719 C 23.121094 27.542969 22.972656 27.566406 22.972656 27.660156 " fill-opacity="1" fill-rule="nonzero"/><path fill="#ff66c4" d="M 14.769531 1.429688 C 15.527344 1.085938 16.496094 1.097656 17.3125 1.105469 C 18.269531 1.113281 19.222656 1.179688 20.082031 1.625 C 20.59375 1.894531 21.179688 1.222656 20.722656 0.800781 C 19.859375 0.0078125 18.210938 0.00390625 17.121094 0.078125 C 16.308594 0.132812 14.75 0.222656 14.390625 1.140625 C 14.296875 1.375 14.589844 1.511719 14.769531 1.429688 " fill-opacity="1" fill-rule="nonzero"/><path fill="#ff66c4" d="M 14.699219 8.46875 C 14.804688 11.8125 15.136719 15.15625 15.527344 18.476562 C 15.875 21.457031 16.226562 24.46875 16.898438 27.394531 C 17.0625 28.105469 18.175781 27.804688 17.996094 27.09375 C 17.273438 24.230469 16.871094 21.273438 16.46875 18.351562 C 16.019531 15.070312 15.609375 11.773438 15.421875 8.46875 C 15.394531 8.007812 14.683594 8 14.699219 8.46875 " fill-opacity="1" fill-rule="nonzero"/><path fill="#ff66c4" d="M 15.222656 0.652344 C 14.808594 0.785156 14.792969 1.539062 14.746094 1.871094 C 14.582031 3.125 14.582031 4.414062 14.574219 5.675781 C 14.570312 6.105469 15.253906 6.105469 15.246094 5.675781 C 15.226562 4.710938 15.222656 3.746094 15.265625 2.785156 C 15.273438 2.585938 15.3125 1.136719 15.351562 1.121094 C 15.632812 1.003906 15.53125 0.554688 15.222656 0.652344 " fill-opacity="1" fill-rule="nonzero"/><path fill="#ff66c4" d="M 12.429688 3.257812 C 13.074219 2.84375 13.675781 2.363281 14.324219 1.953125 C 14.703125 1.710938 15.125 1.523438 15.402344 1.164062 C 15.628906 0.871094 15.257812 0.535156 14.964844 0.59375 C 14.515625 0.691406 14.105469 1.101562 13.75 1.371094 C 13.164062 1.816406 12.488281 2.292969 12.082031 2.910156 C 11.945312 3.121094 12.21875 3.394531 12.429688 3.257812 " fill-opacity="1" fill-rule="nonzero"/><path fill="#ff66c4" d="M 11.9375 3.246094 C 11.628906 4.394531 11.664062 5.667969 11.6875 6.84375 C 11.773438 10.863281 12.507812 14.855469 13.421875 18.757812 C 14.300781 22.511719 15.390625 26.214844 16.617188 29.867188 C 16.875 30.632812 18.101562 30.300781 17.835938 29.53125 C 15.890625 23.933594 14.136719 18.230469 13.121094 12.382812 C 12.667969 9.765625 12.308594 7.109375 12.402344 4.449219 C 12.414062 4.125 12.445312 3.5625 12.472656 3.394531 C 12.535156 3.046875 12.03125 2.890625 11.9375 3.246094 " fill-opacity="1" fill-rule="nonzero"/><path fill="#ff66c4" d="M 23.09375 3.042969 C 22.679688 2.410156 22.019531 1.890625 21.449219 1.402344 C 21.105469 1.101562 20.75 0.699219 20.300781 0.5625 C 19.984375 0.46875 19.679688 0.847656 19.863281 1.132812 C 20.109375 1.507812 20.550781 1.738281 20.90625 1.996094 C 21.523438 2.449219 22.109375 2.972656 22.75 3.390625 C 22.957031 3.527344 23.230469 3.253906 23.09375 3.042969 " fill-opacity="1" fill-rule="nonzero"/><path fill="#ff66c4" d="M 6.746094 5.71875 C 7.664062 5.476562 8.546875 5.035156 9.4375 4.707031 C 10.34375 4.378906 11.269531 4.089844 12.167969 3.738281 C 12.675781 3.539062 12.488281 2.738281 11.9375 2.898438 C 10.980469 3.183594 10.046875 3.578125 9.128906 3.976562 C 8.246094 4.355469 7.277344 4.730469 6.527344 5.347656 C 6.351562 5.496094 6.542969 5.773438 6.746094 5.71875 " fill-opacity="1" fill-rule="nonzero"/><path fill="#ff66c4" d="M 29.171875 5.289062 C 28.667969 4.777344 27.75 4.496094 27.109375 4.226562 C 25.828125 3.683594 24.375 2.921875 22.964844 2.863281 C 22.644531 2.847656 22.558594 3.285156 22.808594 3.441406 C 24.625 4.574219 26.984375 4.71875 28.871094 5.679688 C 29.117188 5.804688 29.375 5.496094 29.171875 5.289062 " fill-opacity="1" fill-rule="nonzero"/><path fill="#ff66c4" d="M 17.1875 33.917969 C 17.515625 34.984375 17.9375 36.027344 18.429688 37.027344 C 18.894531 37.964844 19.546875 39.433594 20.589844 39.863281 C 21.078125 40.0625 21.679688 39.894531 22.183594 39.84375 C 23.019531 39.765625 23.855469 39.683594 24.691406 39.609375 C 25.824219 39.507812 26.953125 39.398438 28.085938 39.3125 C 28.671875 39.269531 28.679688 38.351562 28.085938 38.394531 C 27.121094 38.46875 26.152344 38.53125 25.1875 38.605469 C 24.394531 38.667969 23.605469 38.734375 22.816406 38.804688 C 22.308594 38.851562 21.492188 39.113281 21 39 C 20.632812 38.914062 20.3125 38.390625 20.117188 38.113281 C 19.742188 37.578125 19.4375 37 19.132812 36.421875 C 18.652344 35.519531 18.210938 34.597656 17.765625 33.675781 C 17.609375 33.355469 17.085938 33.582031 17.1875 33.917969 " fill-opacity="1" fill-rule="nonzero"/><path fill="#ff66c4" d="M 28.855469 5.449219 C 28.382812 6.589844 28.21875 7.910156 28.035156 9.125 C 27.867188 10.246094 27.730469 11.367188 27.625 12.496094 C 27.511719 13.6875 27.433594 14.886719 27.386719 16.082031 C 27.339844 17.257812 27.210938 18.523438 27.421875 19.679688 C 27.507812 20.136719 28.292969 20.152344 28.359375 19.679688 C 28.515625 18.558594 28.386719 17.375 28.394531 16.238281 C 28.40625 15.042969 28.449219 13.84375 28.527344 12.652344 C 28.605469 11.507812 28.710938 10.371094 28.851562 9.234375 C 29.003906 8.007812 29.292969 6.75 29.292969 5.507812 C 29.292969 5.242188 28.945312 5.230469 28.855469 5.449219 " fill-opacity="1" fill-rule="nonzero"/><path fill="#ff66c4" d="M 28.46875 39.023438 C 28.578125 38.433594 28.511719 37.785156 28.507812 37.1875 C 28.5 35.574219 28.453125 33.960938 28.421875 32.347656 C 28.332031 27.605469 28.4375 22.871094 28.453125 18.128906 C 28.453125 17.371094 27.359375 17.394531 27.292969 18.128906 C 26.875 22.820312 27.152344 27.660156 27.519531 32.347656 C 27.644531 33.941406 27.789062 35.53125 28.003906 37.117188 C 28.085938 37.730469 28.117188 38.4375 28.339844 39.023438 C 28.359375 39.078125 28.457031 39.09375 28.46875 39.023438 " fill-opacity="1" fill-rule="nonzero"/><g clip-path="url(#15c9e6918b)"><path fill="#ff66c4" d="M 28.917969 5.609375 C 29.699219 6.675781 29.914062 8.234375 30.265625 9.472656 C 30.796875 11.339844 31.230469 13.238281 31.65625 15.132812 C 32.546875 19.117188 33.269531 23.117188 33.59375 27.191406 C 33.855469 30.515625 33.992188 33.828125 34.460938 37.132812 C 34.566406 37.863281 35.859375 37.695312 35.761719 36.957031 C 34.992188 31.128906 35.265625 25.097656 33.765625 19.378906 C 32.910156 16.109375 32.234375 12.800781 31.238281 9.566406 C 30.820312 8.214844 30.320312 6.363281 29.25 5.355469 C 29.085938 5.195312 28.769531 5.410156 28.917969 5.609375 " fill-opacity="1" fill-rule="nonzero"/></g><g clip-path="url(#520884fdc6)"><path fill="#ff66c4" d="M 27.609375 18.273438 C 28.785156 23.867188 29.125 29.300781 29.542969 35.027344 C 29.601562 35.875 29.664062 36.71875 29.722656 37.566406 C 29.746094 37.878906 29.972656 38.148438 30.304688 38.148438 C 31.882812 38.144531 33.6875 38.046875 35.195312 37.542969 C 35.847656 37.328125 35.574219 36.300781 34.910156 36.507812 C 33.488281 36.953125 31.785156 36.988281 30.304688 36.984375 C 30.496094 37.179688 30.691406 37.371094 30.882812 37.566406 C 30.734375 35.363281 30.578125 33.164062 30.410156 30.964844 C 30.238281 28.660156 30.085938 26.375 29.570312 24.121094 C 29.113281 22.128906 28.660156 20.050781 27.824219 18.179688 C 27.769531 18.050781 27.582031 18.148438 27.609375 18.273438 " fill-opacity="1" fill-rule="nonzero"/></g><path fill="#ff66c4" d="M 17.074219 33.824219 C 16.6875 34.761719 16.351562 35.714844 15.988281 36.660156 C 15.773438 37.226562 15.566406 37.800781 15.308594 38.351562 C 15.210938 38.5625 15.109375 38.777344 14.988281 38.976562 C 14.894531 39.132812 14.785156 39.152344 14.886719 39.121094 C 14.660156 39.1875 14.164062 39.03125 13.925781 39.003906 C 13.582031 38.964844 13.238281 38.925781 12.890625 38.890625 C 12.117188 38.808594 11.34375 38.734375 10.574219 38.660156 C 9.617188 38.566406 8.65625 38.488281 7.703125 38.394531 C 7.113281 38.335938 7.117188 39.257812 7.703125 39.3125 C 8.792969 39.417969 9.878906 39.546875 10.96875 39.660156 C 11.832031 39.75 12.699219 39.851562 13.566406 39.9375 C 14.054688 39.988281 14.878906 40.246094 15.332031 40.003906 C 16.105469 39.589844 16.449219 38.03125 16.71875 37.289062 C 17.105469 36.214844 17.441406 35.109375 17.679688 33.992188 C 17.765625 33.585938 17.222656 33.457031 17.074219 33.824219 " fill-opacity="1" fill-rule="nonzero"/><path fill="#ff66c4" d="M 6.496094 5.507812 C 6.496094 6.695312 6.769531 7.902344 6.917969 9.082031 C 7.0625 10.269531 7.179688 11.457031 7.257812 12.652344 C 7.332031 13.792969 7.378906 14.9375 7.390625 16.082031 C 7.402344 17.269531 7.265625 18.507812 7.429688 19.679688 C 7.492188 20.152344 8.28125 20.136719 8.363281 19.679688 C 8.578125 18.523438 8.445312 17.257812 8.402344 16.082031 C 8.355469 14.886719 8.277344 13.6875 8.164062 12.496094 C 8.058594 11.367188 7.921875 10.246094 7.75 9.125 C 7.570312 7.910156 7.40625 6.589844 6.933594 5.449219 C 6.84375 5.234375 6.496094 5.238281 6.496094 5.507812 " fill-opacity="1" fill-rule="nonzero"/><path fill="#ff66c4" d="M 7.449219 38.707031 C 7.636719 38.203125 7.65625 37.613281 7.726562 37.082031 C 7.921875 35.648438 8.046875 34.210938 8.148438 32.769531 C 8.503906 27.875 8.789062 22.867188 8.492188 17.960938 C 8.449219 17.222656 7.355469 17.210938 7.335938 17.960938 C 7.203125 22.890625 7.351562 27.835938 7.289062 32.769531 C 7.269531 34.226562 7.242188 35.679688 7.261719 37.136719 C 7.269531 37.652344 7.21875 38.199219 7.320312 38.707031 C 7.332031 38.777344 7.425781 38.761719 7.449219 38.707031 " fill-opacity="1" fill-rule="nonzero"/><path fill="#ff66c4" d="M 6.535156 5.355469 C 5.636719 6.207031 5.207031 7.6875 4.820312 8.824219 C 4.183594 10.703125 3.730469 12.660156 3.28125 14.589844 C 2.347656 18.585938 1.445312 22.539062 1.039062 26.636719 C 0.699219 30.074219 0.546875 33.527344 0.09375 36.957031 C -0.00390625 37.6875 1.289062 37.871094 1.390625 37.132812 C 2.214844 31.34375 2.269531 25.492188 3.339844 19.734375 C 3.9375 16.523438 4.558594 13.316406 5.378906 10.152344 C 5.746094 8.726562 5.976562 6.832031 6.871094 5.609375 C 7.015625 5.410156 6.703125 5.195312 6.535156 5.355469 " fill-opacity="1" fill-rule="nonzero"/><path fill="#ff66c4" d="M 7.960938 18.179688 C 7.222656 19.84375 6.886719 21.675781 6.492188 23.441406 C 6.285156 24.371094 6.066406 25.304688 5.941406 26.25 C 5.5625 29.132812 5.394531 32.054688 5.167969 34.957031 C 5.101562 35.828125 5.035156 36.695312 4.96875 37.566406 C 5.164062 37.371094 5.355469 37.179688 5.550781 36.984375 C 4.070312 36.988281 2.367188 36.953125 0.945312 36.507812 C 0.28125 36.300781 0.0078125 37.328125 0.660156 37.542969 C 2.164062 38.046875 3.972656 38.144531 5.550781 38.148438 C 5.882812 38.148438 6.109375 37.878906 6.132812 37.566406 C 6.296875 35.421875 6.46875 33.277344 6.652344 31.132812 C 6.839844 28.886719 7.019531 26.558594 7.304688 24.464844 C 7.585938 22.402344 7.753906 20.3125 8.179688 18.273438 C 8.207031 18.148438 8.019531 18.050781 7.960938 18.179688 " fill-opacity="1" fill-rule="nonzero"/><path fill="#ff66c4" d="M 17.425781 34.042969 C 17.777344 33.152344 17.839844 32.105469 17.851562 31.15625 C 17.855469 30.640625 17.941406 29.925781 17.742188 29.4375 C 17.570312 29.027344 16.992188 28.964844 16.84375 29.4375 C 16.679688 29.949219 16.800781 30.632812 16.824219 31.15625 C 16.859375 32.109375 16.894531 33.128906 17.179688 34.042969 C 17.21875 34.171875 17.382812 34.15625 17.425781 34.042969 " fill-opacity="1" fill-rule="nonzero"/><path fill="#ff66c4" d="M 17.578125 30.253906 C 18.867188 27.515625 19.679688 24.503906 20.46875 21.597656 C 21.621094 17.339844 22.648438 12.949219 23.230469 8.574219 C 23.464844 6.824219 23.691406 4.996094 23.414062 3.234375 C 23.339844 2.742188 22.589844 2.953125 22.667969 3.441406 C 22.898438 4.90625 22.71875 6.457031 22.546875 7.914062 C 22.300781 10.007812 21.929688 12.085938 21.511719 14.148438 C 20.671875 18.277344 19.5625 22.34375 18.476562 26.414062 C 18.140625 27.667969 17.863281 28.964844 17.378906 30.167969 C 17.332031 30.28125 17.523438 30.363281 17.578125 30.253906 " fill-opacity="1" fill-rule="nonzero"/><path fill="#ff66c4" d="M 19.59375 8.652344 C 19.148438 12.339844 18.765625 16.035156 18.324219 19.726562 C 18.097656 21.582031 17.859375 23.441406 17.59375 25.292969 C 17.46875 26.144531 17.339844 26.996094 17.199219 27.847656 C 17.082031 28.574219 16.769531 29.46875 16.867188 30.195312 C 16.921875 30.613281 17.488281 30.882812 17.734375 30.433594 C 18.089844 29.773438 18.105469 28.863281 18.226562 28.128906 C 18.363281 27.277344 18.488281 26.425781 18.613281 25.574219 C 18.875 23.71875 19.117188 21.859375 19.339844 20 C 19.789062 16.226562 20.183594 12.445312 20.421875 8.652344 C 20.457031 8.109375 19.65625 8.136719 19.59375 8.652344 " fill-opacity="1" fill-rule="nonzero"/><path fill="#ff66c4" d="M 20.023438 1.242188 C 20.238281 1.59375 20.085938 2.339844 20.078125 2.726562 C 20.058594 3.609375 20 4.492188 19.929688 5.375 C 19.894531 5.820312 20.613281 5.828125 20.632812 5.375 C 20.683594 4.324219 20.757812 3.246094 20.664062 2.195312 C 20.625 1.808594 20.613281 1.300781 20.355469 0.984375 C 20.203125 0.792969 19.902344 1.039062 20.023438 1.242188 " fill-opacity="1" fill-rule="nonzero"/><path fill="#ff66c4" d="M 16.546875 6.222656 C 16.46875 6.5 16.488281 6.804688 16.480469 7.089844 C 16.472656 7.410156 16.453125 7.730469 16.472656 8.050781 C 16.484375 8.234375 16.625 8.410156 16.828125 8.402344 C 17.457031 8.378906 18.175781 8.472656 18.738281 8.128906 C 18.847656 8.066406 18.863281 7.878906 18.738281 7.816406 C 18.144531 7.535156 17.460938 7.65625 16.828125 7.695312 C 16.945312 7.8125 17.0625 7.929688 17.179688 8.050781 C 17.15625 7.722656 17.09375 7.402344 17.035156 7.082031 C 16.980469 6.78125 16.953125 6.46875 16.832031 6.1875 C 16.777344 6.058594 16.582031 6.105469 16.546875 6.222656 " fill-opacity="1" fill-rule="nonzero"/><path fill="#ff66c4" d="M 18.289062 8.203125 C 18.886719 8.28125 18.871094 6.433594 18.855469 6.113281 C 18.84375 5.929688 18.699219 5.753906 18.5 5.761719 C 18.0625 5.773438 16.160156 5.617188 16.542969 6.480469 C 16.597656 6.605469 16.789062 6.585938 16.851562 6.480469 C 16.753906 6.453125 16.75 6.453125 16.839844 6.472656 C 16.859375 6.480469 16.882812 6.484375 16.90625 6.492188 C 16.988281 6.511719 17.074219 6.535156 17.160156 6.539062 C 17.355469 6.550781 17.570312 6.519531 17.765625 6.507812 C 18.011719 6.496094 18.257812 6.480469 18.5 6.46875 C 18.382812 6.351562 18.265625 6.234375 18.144531 6.113281 C 18.171875 6.476562 18.21875 6.839844 18.234375 7.203125 C 18.246094 7.429688 18.289062 7.769531 18.15625 7.96875 C 18.082031 8.078125 18.183594 8.191406 18.289062 8.203125 " fill-opacity="1" fill-rule="nonzero"/><path fill="#ff66c4" d="M 18.566406 6.429688 C 19.425781 6.050781 20.339844 5.851562 21.210938 5.507812 C 21.527344 5.382812 21.394531 4.871094 21.066406 4.992188 C 20.167969 5.324219 19.304688 5.796875 18.515625 6.339844 C 18.457031 6.375 18.507812 6.453125 18.566406 6.429688 " fill-opacity="1" fill-rule="nonzero"/><path fill="#ff66c4" d="M 18.386719 7.894531 C 18.847656 8.425781 19.488281 8.632812 20.117188 8.910156 C 20.453125 9.058594 20.992188 9.4375 21.347656 9.113281 C 21.667969 8.820312 21.613281 7.898438 21.640625 7.515625 C 21.703125 6.75 21.738281 5.992188 21.492188 5.253906 C 21.398438 4.96875 20.972656 5.011719 20.964844 5.324219 C 20.941406 6.410156 21.101562 7.726562 20.757812 8.773438 C 20.839844 8.691406 20.921875 8.609375 21.003906 8.523438 C 20.75 8.601562 20.125 8.226562 19.867188 8.148438 C 19.40625 8.007812 18.953125 7.855469 18.5 7.695312 C 18.378906 7.652344 18.316406 7.8125 18.386719 7.894531 " fill-opacity="1" fill-rule="nonzero"/><path fill="#ff66c4" d="M 17.035156 6.167969 C 16.457031 5.96875 15.917969 5.667969 15.320312 5.5 C 14.863281 5.371094 14.285156 5.113281 13.8125 5.222656 C 13.683594 5.253906 13.628906 5.4375 13.730469 5.527344 C 14.121094 5.851562 14.765625 5.988281 15.246094 6.152344 C 15.847656 6.359375 16.386719 6.40625 17.011719 6.363281 C 17.121094 6.355469 17.144531 6.207031 17.035156 6.167969 " fill-opacity="1" fill-rule="nonzero"/><path fill="#ff66c4" d="M 13.910156 8.90625 C 14.832031 8.59375 15.824219 8.246094 16.796875 8.152344 C 17.269531 8.109375 17.183594 7.421875 16.707031 7.503906 C 15.683594 7.683594 14.710938 8.152344 13.796875 8.632812 C 13.648438 8.710938 13.75 8.960938 13.910156 8.90625 " fill-opacity="1" fill-rule="nonzero"/><path fill="#ff66c4" d="M 13.710938 5.285156 C 13.546875 5.90625 13.480469 6.550781 13.460938 7.191406 C 13.441406 7.800781 13.398438 8.316406 13.753906 8.832031 C 13.792969 8.886719 13.875 8.875 13.898438 8.8125 C 14.097656 8.230469 13.988281 7.664062 13.984375 7.058594 C 13.980469 6.464844 13.996094 5.875 13.910156 5.285156 C 13.894531 5.179688 13.734375 5.191406 13.710938 5.285156 " fill-opacity="1" fill-rule="nonzero"/><path fill="#ff66c4" d="M 10.125 83.449219 C 10.238281 78.433594 10.101562 73.410156 10.066406 68.398438 C 10.003906 60.4375 9.898438 52.476562 9.75 44.515625 C 9.71875 42.6875 9.683594 40.859375 9.652344 39.027344 C 9.636719 38.3125 8.519531 38.308594 8.535156 39.027344 C 8.625 44.046875 8.714844 49.0625 8.828125 54.078125 C 9.007812 62.042969 9.246094 70.003906 9.476562 77.964844 C 9.53125 79.792969 9.582031 81.621094 9.691406 83.449219 C 9.707031 83.726562 10.117188 83.730469 10.125 83.449219 " fill-opacity="1" fill-rule="nonzero"/><path fill="#ff66c4" d="M 9.835938 83.785156 C 10.796875 84.324219 11.910156 84.574219 13.003906 84.625 C 14.042969 84.671875 15.390625 84.582031 16.273438 83.988281 C 16.734375 83.675781 16.449219 82.972656 15.894531 83.089844 C 14.902344 83.300781 14.050781 83.710938 13.003906 83.738281 C 11.988281 83.761719 11.015625 83.53125 10.027344 83.332031 C 9.761719 83.28125 9.578125 83.644531 9.835938 83.785156 " fill-opacity="1" fill-rule="nonzero"/><path fill="#ff66c4" d="M 17.453125 37.167969 C 17.136719 40.253906 17.074219 43.375 16.925781 46.46875 C 16.734375 50.375 16.566406 54.285156 16.394531 58.191406 C 16.089844 65.15625 15.820312 72.125 15.613281 79.09375 C 15.570312 80.542969 15.535156 81.992188 15.484375 83.445312 C 15.457031 84.144531 16.542969 84.140625 16.566406 83.445312 C 16.710938 79.398438 16.882812 75.351562 17.019531 71.304688 C 17.28125 63.519531 17.535156 55.734375 17.703125 47.945312 C 17.777344 44.363281 17.96875 40.753906 17.855469 37.167969 C 17.847656 36.90625 17.476562 36.914062 17.453125 37.167969 " fill-opacity="1" fill-rule="nonzero"/><path fill="#ff66c4" d="M 25.621094 83.449219 C 25.953125 78.433594 26.039062 73.402344 26.21875 68.378906 C 26.503906 60.4375 26.742188 52.492188 26.945312 44.546875 C 26.988281 42.707031 27.035156 40.867188 27.082031 39.027344 C 27.101562 38.308594 25.984375 38.3125 25.96875 39.027344 C 25.839844 44.050781 25.710938 49.074219 25.601562 54.097656 C 25.4375 62.042969 25.328125 69.984375 25.214844 77.929688 C 25.1875 79.769531 25.160156 81.609375 25.1875 83.449219 C 25.191406 83.730469 25.605469 83.726562 25.621094 83.449219 " fill-opacity="1" fill-rule="nonzero"/><path fill="#ff66c4" d="M 25.296875 83.285156 C 24.359375 83.480469 23.429688 83.726562 22.464844 83.714844 C 21.472656 83.699219 20.660156 83.308594 19.722656 83.089844 C 19.175781 82.960938 18.871094 83.683594 19.34375 83.988281 C 21.066406 85.097656 23.792969 84.6875 25.488281 83.742188 C 25.742188 83.597656 25.5625 83.234375 25.296875 83.285156 " fill-opacity="1" fill-rule="nonzero"/><path fill="#ff66c4" d="M 17.433594 37.167969 C 17.332031 40.261719 17.496094 43.378906 17.570312 46.46875 C 17.664062 50.378906 17.78125 54.285156 17.902344 58.191406 C 18.117188 65.15625 18.367188 72.128906 18.683594 79.09375 C 18.75 80.542969 18.824219 81.992188 18.882812 83.445312 C 18.910156 84.140625 19.996094 84.144531 19.96875 83.445312 C 19.804688 79.398438 19.671875 75.351562 19.503906 71.304688 C 19.183594 63.515625 18.859375 55.730469 18.453125 47.945312 C 18.269531 44.363281 18.199219 40.742188 17.835938 37.167969 C 17.808594 36.917969 17.441406 36.90625 17.433594 37.167969 " fill-opacity="1" fill-rule="nonzero"/><g clip-path="url(#538d7bd099)"><path fill="#ff66c4" d="M 41.1875 70.605469 C 41.484375 69.953125 41.761719 69.285156 42.023438 68.609375 C 41.144531 68.855469 40.304688 68.980469 39.441406 69.308594 C 38.070312 69.816406 37.757812 71.097656 36.882812 72.039062 C 36.519531 72.433594 34.390625 73.671875 34.414062 74.109375 C 34.464844 75.132812 35.070312 74.710938 35.9375 74.769531 C 36.183594 74.789062 36.398438 74.925781 36.46875 75.179688 C 36.644531 75.769531 36.152344 76.300781 35.886719 76.851562 C 37.125 76.308594 38.75 76.117188 39.371094 74.882812 C 39.808594 74.03125 40.144531 73.132812 40.671875 72.328125 C 40.703125 72.289062 40.726562 72.238281 40.75 72.199219 C 40.554688 72.289062 40.355469 72.375 40.152344 72.472656 C 39.625 72.742188 39.027344 72.84375 38.480469 73.058594 C 37.816406 73.320312 37.53125 72.25 38.183594 71.996094 C 38.855469 71.734375 39.617188 71.609375 40.238281 71.246094 C 40.582031 71.039062 40.863281 70.796875 41.1875 70.605469 Z M 52.96875 29.414062 C 52.09375 30.925781 51.597656 33.300781 51.242188 34.652344 C 50.730469 36.617188 50.347656 38.605469 49.808594 40.566406 C 49.179688 42.875 48.960938 45.25 48.492188 47.589844 C 48.117188 49.472656 47.429688 51.191406 46.972656 53.027344 C 46.085938 56.558594 46.273438 60.164062 44.796875 63.570312 C 43.839844 65.789062 43.359375 68.152344 42.460938 70.398438 C 42.507812 70.5 42.511719 70.617188 42.457031 70.757812 C 42.3125 71.125 42.367188 71.65625 42.179688 71.996094 C 42.011719 72.308594 41.796875 72.582031 41.625 72.886719 C 41.082031 73.835938 40.699219 74.878906 40.097656 75.785156 C 39.234375 77.085938 37.523438 77.226562 36.230469 77.894531 C 36.519531 78.347656 36.851562 78.84375 37.191406 78.804688 C 37.402344 78.78125 37.613281 78.949219 37.765625 79.09375 C 40.246094 77.71875 42.875 74.582031 43.589844 71.875 C 44.144531 69.757812 44.628906 67.636719 45.144531 65.511719 C 45.320312 64.820312 46.382812 65.113281 46.210938 65.804688 C 45.515625 68.644531 45.171875 71.699219 43.761719 74.289062 C 42.558594 76.507812 40.632812 78.765625 38.40625 80.003906 C 38.648438 80.492188 38.84375 80.90625 39.675781 81.019531 C 40.667969 81.15625 41.242188 80.914062 42.097656 80.78125 C 42.492188 80.722656 43.121094 80.53125 43.484375 80.757812 C 43.738281 80.914062 44.851562 78.867188 44.859375 78.847656 C 45.019531 78.25 45.261719 77.730469 45.609375 77.207031 C 46.394531 76.011719 46.5625 74.550781 46.730469 73.164062 C 47.226562 69.03125 47.765625 64.996094 47.765625 60.824219 C 47.765625 58.660156 48.136719 56.398438 48.324219 54.234375 C 48.484375 52.429688 48.207031 50.585938 48.664062 48.820312 C 48.835938 48.128906 49.898438 48.421875 49.730469 49.109375 C 49 51.953125 49.535156 55.210938 49.183594 58.136719 C 48.925781 60.277344 48.679688 62.449219 48.707031 64.621094 C 48.746094 67.515625 48.175781 70.300781 47.832031 73.164062 C 47.550781 75.445312 46.738281 77.078125 45.921875 79.144531 C 45.738281 79.617188 45.390625 80.464844 44.9375 81.121094 C 45.996094 81.714844 47.101562 81.785156 48.199219 81.335938 C 48.75 79.046875 49.515625 76.757812 49.601562 74.386719 C 49.664062 72.628906 49.675781 70.945312 50.164062 69.246094 C 51.449219 64.769531 51.199219 60.171875 51.199219 55.570312 C 51.199219 51.21875 51.085938 46.90625 51.578125 42.582031 C 52.082031 38.199219 52.484375 33.804688 52.96875 29.414062 Z M 52.800781 11.457031 C 52.84375 11.304688 52.84375 11.195312 52.839844 10.953125 C 52.214844 11.113281 51.425781 11.328125 51.1875 11.5 C 51.238281 11.617188 51.28125 11.734375 51.316406 11.859375 C 51.679688 11.777344 52.09375 11.773438 52.484375 11.839844 C 52.566406 11.703125 52.683594 11.582031 52.800781 11.457031 Z M 53.28125 14.429688 C 53.195312 14.53125 53.242188 14.234375 53.242188 14.1875 C 53.234375 14.082031 53.234375 13.984375 53.234375 13.882812 C 53.195312 13.609375 53.140625 13.253906 52.871094 13.113281 C 52.515625 12.925781 51.976562 12.867188 51.550781 12.949219 C 51.636719 13.597656 51.679688 14.269531 51.742188 14.816406 C 51.757812 14.953125 51.777344 15.082031 51.792969 15.222656 C 52.195312 14.917969 52.683594 14.699219 53.082031 14.648438 C 53.113281 14.644531 53.136719 14.648438 53.164062 14.644531 C 53.183594 14.570312 53.222656 14.496094 53.28125 14.429688 Z M 53.925781 15.9375 C 53.734375 15.792969 53.519531 15.699219 53.269531 15.726562 C 52.988281 15.761719 52.734375 15.980469 52.496094 16.121094 C 52.496094 16.125 52.152344 16.398438 52.199219 16.285156 C 52.152344 16.410156 52.070312 16.496094 51.980469 16.558594 C 52.003906 16.726562 52.027344 16.90625 52.054688 17.082031 C 52.59375 16.644531 53.25 16.203125 53.925781 15.9375 Z M 57.601562 26.191406 C 57.511719 25.671875 57.257812 24.921875 56.816406 24.683594 C 56.140625 24.332031 55.53125 24.558594 54.828125 24.636719 C 54.117188 24.707031 54.128906 23.605469 54.828125 23.535156 C 54.996094 23.515625 55.164062 23.496094 55.335938 23.476562 C 55.339844 23.464844 55.339844 23.457031 55.351562 23.445312 C 55.722656 22.84375 54.769531 21.9375 54.148438 21.957031 C 53.859375 21.96875 53.304688 21.988281 52.957031 22.097656 C 53.335938 23.542969 53.757812 24.972656 53.855469 26.457031 C 55.066406 26.28125 56.328125 26.210938 57.601562 26.191406 Z M 58.054688 59.109375 C 58.144531 49.207031 58.171875 39.257812 57.28125 29.386719 C 56.898438 29.378906 56.511719 29.378906 56.128906 29.367188 C 55.792969 32.339844 55.554688 35.179688 55.574219 38.179688 C 55.578125 38.894531 54.476562 38.894531 54.472656 38.179688 C 54.453125 35.15625 54.691406 32.328125 55.035156 29.332031 C 54.71875 29.320312 54.402344 29.289062 54.082031 29.246094 C 53.527344 34.300781 53.066406 39.363281 52.457031 44.410156 C 51.953125 48.652344 52.300781 53.082031 52.300781 57.351562 C 52.300781 61.480469 52.410156 65.527344 51.226562 69.535156 C 50.605469 71.640625 50.792969 73.875 50.507812 76.035156 C 50.265625 77.917969 49.722656 79.714844 49.277344 81.550781 C 49.4375 81.832031 49.457031 82.167969 49.1875 82.421875 C 48.945312 82.636719 50.074219 83.625 50.207031 84.042969 C 50.542969 85.121094 52.183594 83.601562 52.828125 83.25 C 53.746094 82.757812 54.671875 83.011719 55.585938 82.566406 C 56.183594 81.191406 56.945312 79.746094 57.160156 78.289062 C 57.535156 75.753906 57.308594 73.171875 57.605469 70.628906 C 58.042969 66.886719 58.023438 62.878906 58.054688 59.109375 Z M 59.640625 2.832031 C 59.417969 2.832031 59.195312 2.824219 58.972656 2.839844 C 58.980469 2.898438 58.972656 2.960938 58.980469 3.019531 C 59 3.265625 59.039062 3.511719 59.070312 3.757812 C 59.109375 4.140625 59.160156 4.484375 59.148438 4.851562 C 59.210938 4.851562 59.285156 4.851562 59.34375 4.851562 C 59.351562 4.636719 59.355469 4.417969 59.402344 4.207031 C 59.472656 3.9375 59.433594 3.679688 59.484375 3.410156 C 59.496094 3.359375 59.597656 2.832031 59.640625 2.832031 Z M 60.949219 6.832031 C 60.960938 6.601562 60.976562 6.394531 60.988281 6.234375 C 60.328125 6.027344 59.710938 5.925781 58.972656 5.945312 C 58.675781 5.949219 57.515625 5.917969 57.101562 6.097656 C 57.113281 6.304688 57.121094 6.523438 57.121094 6.757812 C 57.933594 6.742188 58.65625 6.6875 59.445312 6.738281 C 59.960938 6.769531 60.46875 6.722656 60.949219 6.832031 Z M 64 45.019531 C 64.136719 42.339844 64.25 39.65625 63.914062 36.984375 C 63.597656 34.476562 63.164062 31.996094 63.027344 29.472656 C 62.820312 29.488281 62.613281 29.5 62.40625 29.507812 C 62.679688 32.082031 63.171875 34.609375 63.25 37.222656 C 63.320312 39.648438 63.820312 42.160156 63.359375 44.578125 C 62.875 47.113281 62.652344 49.679688 62.316406 52.242188 C 61.96875 54.871094 62.164062 57.617188 61.546875 60.214844 C 61.382812 60.90625 60.320312 60.613281 60.484375 59.917969 C 61.15625 57.085938 61.15625 53.792969 61.34375 50.878906 C 61.46875 48.925781 61.792969 46.90625 62.160156 44.984375 C 63.117188 39.972656 61.84375 34.535156 61.304688 29.535156 C 61.070312 29.535156 60.839844 29.535156 60.613281 29.535156 C 60.621094 33.320312 61.085938 37.113281 61.085938 40.898438 C 61.085938 41.375 59.984375 41.375 59.984375 40.898438 C 59.984375 37.320312 59.566406 30.410156 59.511719 29.5 C 59.136719 29.480469 58.761719 29.460938 58.390625 29.433594 C 59.296875 39.515625 59.433594 49.792969 59.148438 59.910156 C 59.03125 64.0625 58.597656 68.238281 58.574219 72.386719 C 58.566406 74.648438 58.722656 77.28125 58.003906 79.460938 C 57.625 80.601562 57.140625 81.679688 56.679688 82.785156 C 56.699219 82.863281 56.699219 82.953125 56.679688 83.054688 C 56.492188 83.726562 57.34375 85.730469 58.371094 84.949219 C 59.53125 84.074219 60.191406 82.3125 60.5625 81.003906 C 61.277344 78.515625 61.914062 76.058594 62.324219 73.5 C 62.988281 69.28125 63.261719 65.125 63.261719 60.867188 C 63.261719 55.5625 63.734375 50.316406 64 45.019531 Z M 64.058594 27.957031 C 64.058594 27.765625 64.066406 27.570312 64.070312 27.378906 C 64.039062 27.378906 64.007812 27.390625 63.96875 27.390625 C 61.105469 27.390625 57.101562 27.035156 53.855469 27.566406 C 53.84375 27.707031 53.835938 27.851562 53.820312 27.996094 C 53.816406 28.003906 53.816406 28.011719 53.816406 28.019531 C 53.820312 28.042969 53.824219 28.070312 53.824219 28.089844 C 55.253906 28.332031 56.679688 28.097656 58.128906 28.304688 C 59.382812 28.484375 60.710938 28.367188 61.972656 28.367188 C 62.484375 28.359375 62.996094 28.367188 63.511719 28.375 C 63.773438 28.253906 63.976562 28.179688 64.128906 28.140625 C 64.089844 28.089844 64.058594 28.03125 64.058594 27.957031 Z M 64.660156 22.257812 C 64.085938 22.027344 63.410156 22.164062 62.894531 22.441406 C 62.523438 22.640625 62.335938 22.800781 62.257812 23.128906 C 62.34375 23.132812 62.433594 23.140625 62.519531 23.152344 C 63.222656 23.25 62.921875 24.316406 62.226562 24.214844 C 61.699219 24.144531 61.054688 24.316406 60.6875 24.714844 C 60.296875 25.140625 60.390625 25.679688 60.40625 26.21875 C 61.625 26.25 62.820312 26.289062 63.96875 26.289062 C 64.027344 26.289062 64.070312 26.304688 64.117188 26.308594 C 64.210938 24.960938 64.40625 23.613281 64.660156 22.257812 Z M 64.738281 12.660156 C 64.660156 12.546875 64.597656 12.414062 64.566406 12.265625 C 64.550781 12.1875 64.550781 12.023438 64.539062 11.992188 C 64.527344 11.972656 64.5 11.863281 64.488281 11.8125 C 64.488281 11.804688 64.484375 11.796875 64.484375 11.792969 C 64.441406 11.609375 64.464844 11.433594 64.480469 11.265625 C 64.480469 11.253906 64.484375 11.246094 64.488281 11.234375 C 63.929688 11 63.378906 10.738281 62.855469 10.441406 C 62.753906 10.382812 62.652344 10.328125 62.5625 10.261719 C 61.792969 10.878906 60.851562 11.335938 59.859375 11.414062 C 59.148438 11.472656 59.15625 10.371094 59.859375 10.3125 C 60.488281 10.261719 61.167969 9.9375 61.695312 9.550781 C 61.492188 9.324219 61.320312 9.070312 61.167969 8.773438 C 61.066406 8.570312 61.007812 8.292969 60.976562 7.984375 C 60.347656 7.734375 59.445312 7.828125 58.78125 7.828125 C 58.261719 7.828125 57.449219 7.828125 57.042969 7.828125 C 56.914062 8.585938 56.628906 9.296875 56.078125 9.730469 C 56.167969 9.785156 56.296875 9.84375 56.34375 9.871094 C 56.464844 9.945312 56.550781 9.992188 56.691406 10.023438 C 57.054688 10.113281 57.40625 10.230469 57.78125 10.273438 C 58.480469 10.355469 58.488281 11.457031 57.78125 11.375 C 56.863281 11.273438 55.699219 11.039062 55.082031 10.28125 C 54.703125 10.441406 54.300781 10.570312 53.933594 10.675781 C 53.933594 10.691406 53.941406 10.695312 53.941406 10.703125 C 53.941406 11.183594 53.953125 11.480469 53.839844 11.832031 C 53.792969 11.972656 53.699219 12.148438 53.589844 12.246094 C 53.585938 12.253906 53.578125 12.261719 53.570312 12.265625 C 53.675781 12.34375 53.777344 12.425781 53.859375 12.515625 C 54.335938 13.035156 54.523438 14.140625 54.246094 14.859375 C 54.550781 15.015625 54.820312 15.238281 55.09375 15.503906 C 55.164062 15.570312 55.203125 15.640625 55.230469 15.710938 C 55.398438 15.722656 55.566406 15.75 55.734375 15.804688 C 56.652344 16.109375 57.507812 16.625 58.222656 17.285156 C 58.222656 15.886719 58.222656 14.730469 58.222656 13.578125 C 58.222656 12.621094 59.179688 12.621094 59.179688 13.578125 C 59.179688 14.371094 59.179688 15.730469 59.179688 16.804688 C 59.304688 16.652344 59.441406 16.503906 59.597656 16.359375 C 60.230469 15.78125 61.390625 15.867188 62.167969 15.867188 C 62.277344 15.867188 62.390625 15.878906 62.503906 15.898438 C 63.089844 15.457031 63.820312 15.222656 64.566406 15.34375 C 64.332031 14.789062 64.230469 14.167969 64.273438 13.632812 C 64.304688 13.210938 64.480469 12.898438 64.738281 12.660156 Z M 65.285156 19.335938 C 65.257812 19.304688 65.238281 19.285156 65.210938 19.25 C 64.933594 18.859375 64.824219 18.367188 64.445312 18.035156 C 64 17.648438 63.367188 17.480469 62.828125 17.265625 C 61.304688 16.65625 59.5625 17.140625 59.410156 18.972656 C 59.402344 19.027344 59.394531 19.074219 59.382812 19.117188 C 59.441406 19.519531 59.417969 19.921875 59.410156 20.328125 C 59.398438 21.035156 58.296875 21.042969 58.304688 20.328125 C 58.316406 19.949219 58.363281 19.558594 58.28125 19.175781 C 58.261719 19.089844 58.242188 19 58.210938 18.917969 C 57.613281 18.082031 56.34375 16.8125 55.292969 16.875 C 54.066406 16.941406 53.105469 17.574219 52.25 18.371094 C 52.3125 18.773438 52.367188 19.175781 52.421875 19.570312 C 52.488281 20.0625 52.585938 20.554688 52.695312 21.042969 C 53.027344 20.957031 53.394531 20.917969 53.695312 20.886719 C 54.390625 20.816406 54.898438 20.988281 55.464844 21.390625 C 56.179688 21.894531 56.710938 22.632812 56.53125 23.445312 C 56.988281 23.5 57.414062 23.667969 57.785156 24.082031 C 58.320312 24.679688 58.585938 25.417969 58.703125 26.191406 C 58.90625 26.191406 59.101562 26.191406 59.304688 26.199219 C 59.289062 25.746094 59.203125 25.191406 59.382812 24.773438 C 59.5625 24.339844 59.800781 24 60.175781 23.707031 C 60.464844 23.484375 60.78125 23.328125 61.125 23.230469 C 61.222656 22.398438 61.558594 21.914062 62.335938 21.492188 C 63.128906 21.0625 64.023438 20.933594 64.875 21.183594 C 65.003906 20.5625 65.140625 19.949219 65.285156 19.335938 Z M 65.644531 17.835938 C 65.6875 17.664062 65.730469 17.492188 65.773438 17.316406 C 65.328125 16.78125 64.648438 16.402344 63.988281 16.453125 C 64.320312 16.617188 64.621094 16.792969 64.847656 16.941406 C 65.21875 17.179688 65.445312 17.496094 65.644531 17.835938 Z M 65.976562 41.851562 C 66.035156 39.582031 65.789062 37.320312 65.816406 35.054688 C 65.792969 34.957031 65.769531 34.855469 65.75 34.753906 C 65.484375 33.332031 65.464844 30.660156 64.613281 29.304688 C 64.445312 29.328125 64.28125 29.351562 64.117188 29.371094 C 64.117188 29.378906 64.125 29.386719 64.125 29.394531 C 64.304688 32.796875 65.160156 36.148438 65.226562 39.554688 C 65.296875 43.210938 64.992188 46.863281 64.738281 50.515625 C 64.3125 56.511719 64.796875 62.625 64.082031 68.582031 C 63.789062 71.035156 63.667969 73.757812 63.046875 76.148438 C 62.375 78.699219 61.910156 81.484375 60.625 83.816406 C 61.421875 83.601562 62.082031 82.824219 63.109375 83.265625 C 63.492188 83.425781 65.773438 84.578125 65.734375 83.226562 C 65.710938 82.160156 65.660156 81.09375 65.660156 80.027344 C 65.660156 75.199219 65.640625 70.371094 65.621094 65.539062 C 65.59375 60.167969 65.574219 54.792969 65.707031 49.429688 C 65.769531 46.902344 65.910156 44.375 65.976562 41.851562 Z M 65.230469 12.230469 C 65.582031 12.210938 66.25 11.9375 66.558594 12.054688 C 66.34375 11.972656 65.652344 11.539062 65.40625 11.609375 C 65.199219 11.671875 65.082031 12.238281 65.230469 12.230469 Z M 66.769531 13.152344 C 66.203125 13.136719 65.359375 13.195312 65.359375 13.820312 C 65.359375 14.382812 65.582031 15.363281 66.183594 15.660156 C 66.386719 14.828125 66.585938 13.988281 66.769531 13.152344 Z M 71.457031 61.050781 C 71.472656 61.042969 71.488281 61.042969 71.507812 61.042969 C 71.445312 60.589844 71.371094 60.144531 71.257812 59.695312 C 70.988281 58.613281 70.667969 57.464844 70.628906 56.347656 C 70.546875 53.890625 70.191406 51.214844 69.53125 48.714844 C 69.621094 50.394531 69.714844 52.074219 69.933594 53.710938 C 70.25 56.082031 70.671875 58.433594 71.371094 60.71875 C 71.40625 60.828125 71.429688 60.941406 71.457031 61.050781 Z M 74.003906 80.710938 C 74.800781 79.878906 73.964844 78.957031 73.316406 78.238281 C 71.8125 76.578125 72.265625 74.21875 71.902344 72.121094 C 71.546875 70.085938 71.347656 68.359375 71.332031 66.105469 C 71.152344 65.582031 71.003906 65.042969 70.929688 64.460938 C 70.617188 62.117188 69.828125 59.96875 69.433594 57.65625 C 68.632812 52.914062 68.542969 48.132812 67.984375 43.375 C 67.800781 41.824219 67.34375 40.339844 66.878906 38.863281 C 66.875 42.066406 66.910156 45.269531 66.832031 48.476562 C 66.726562 52.902344 66.695312 57.324219 66.707031 61.75 C 66.714844 66.484375 66.761719 71.222656 66.761719 75.964844 C 66.761719 77.792969 66.695312 79.636719 66.773438 81.46875 C 66.832031 81.515625 66.882812 81.578125 66.921875 81.671875 C 67.59375 83.1875 69.707031 79.945312 70.988281 80.453125 C 72 80.851562 72.882812 81.890625 74.003906 80.710938 Z M 79.078125 76.359375 C 79.078125 74.429688 78.125 72.492188 77.074219 70.890625 C 75.871094 69.050781 74.226562 67.808594 72.609375 66.414062 C 73.1875 67.683594 73.816406 68.960938 74.238281 70.289062 C 74.960938 72.566406 75.480469 74.558594 78.019531 75.347656 C 78.691406 75.5625 78.402344 76.625 77.722656 76.410156 C 74.132812 75.289062 73.824219 72.085938 72.546875 69 C 72.546875 68.992188 72.539062 68.992188 72.539062 68.992188 C 72.621094 69.945312 72.757812 70.84375 72.964844 71.828125 C 73.378906 73.773438 73.089844 76.546875 74.585938 77.964844 C 74.800781 78.171875 74.976562 78.382812 75.117188 78.597656 C 76.566406 78.417969 79.078125 78.378906 79.078125 76.359375 Z M 79.839844 73.980469 C 80.152344 75.105469 80.703125 77.445312 79.695312 78.425781 C 78.574219 79.53125 77.039062 79.460938 75.542969 79.644531 C 75.65625 80.414062 75.332031 81.167969 74.585938 81.78125 C 74.023438 82.242188 73.542969 82.570312 72.769531 82.402344 C 72.113281 82.261719 71.613281 82.082031 71.042969 81.746094 C 70.351562 81.34375 69.53125 82.441406 69.109375 82.785156 C 68.472656 83.304688 67.5625 83.414062 66.851562 83.101562 C 66.851562 83.679688 66.789062 84.25 66.535156 84.777344 C 66.449219 84.949219 66.242188 85.042969 66.054688 85.050781 C 65.042969 85.078125 62.523438 83.878906 61.707031 84.425781 C 61.046875 84.867188 60.582031 85.078125 59.898438 84.953125 C 59.332031 85.6875 58.25 86.800781 57.472656 86.15625 C 56.34375 85.21875 55.480469 84.988281 55.441406 83.894531 C 55.167969 84 54.878906 84.0625 54.542969 84.019531 C 53.511719 83.890625 52.890625 84.695312 52.109375 85.222656 C 51.257812 85.796875 49.9375 85.566406 49.207031 84.980469 C 49.046875 84.851562 49.027344 84.625 49.0625 84.441406 C 49.1875 83.8125 47.890625 83.433594 47.734375 82.757812 C 47.398438 82.816406 46.976562 82.765625 46.675781 82.730469 C 45.710938 82.605469 44.925781 82.4375 44.117188 81.910156 C 43.976562 81.980469 43.835938 82.027344 43.683594 82.027344 C 42.535156 82.027344 41.394531 82.203125 40.1875 82.195312 C 38.9375 82.1875 37.632812 81.636719 37.183594 80.410156 C 36.933594 79.730469 36.472656 80.074219 36.074219 79.675781 C 35.605469 79.207031 35.460938 78.457031 34.984375 78.027344 C 34.796875 77.855469 34.777344 77.640625 34.855469 77.460938 C 34.71875 77.34375 34.636719 77.160156 34.6875 76.929688 C 34.714844 76.792969 34.972656 76.292969 35.167969 75.917969 C 34.460938 75.980469 33.679688 76.027344 33.46875 75.226562 C 33.25 74.390625 33.132812 73.292969 33.988281 72.75 C 34.335938 72.53125 34.722656 72.398438 35.074219 72.179688 C 35.808594 71.734375 36.078125 71.058594 36.578125 70.414062 C 36.976562 69.890625 37.375 69.347656 37.910156 68.957031 C 38.398438 68.597656 38.976562 68.144531 39.546875 67.921875 C 40.359375 67.605469 41.253906 67.714844 42.097656 67.441406 C 42.234375 67.398438 42.347656 67.410156 42.449219 67.445312 C 43.050781 65.753906 43.5625 64.023438 44.066406 62.3125 C 44.742188 60.066406 45.308594 57.796875 45.492188 55.433594 C 45.628906 53.6875 46.179688 52.363281 46.617188 50.738281 C 47.269531 48.316406 47.675781 45.851562 48.085938 43.382812 C 48.46875 41.050781 49.28125 38.824219 49.699219 36.515625 C 50.144531 34.085938 50.859375 29.808594 52.730469 27.886719 C 53 25.199219 51.75 22.792969 51.402344 20.171875 C 51.21875 18.808594 50.984375 17.457031 50.804688 16.09375 C 50.648438 14.945312 50.6875 12.925781 50.15625 11.859375 C 50.136719 11.816406 50.121094 11.773438 50.113281 11.730469 C 50.019531 11.617188 49.988281 11.460938 50.058594 11.273438 C 50.546875 10.042969 52.589844 10.015625 53.628906 9.601562 C 54.417969 9.289062 55.691406 8.960938 55.851562 8 C 55.960938 7.367188 56.050781 6.679688 55.992188 6.03125 C 55.976562 5.894531 56.011719 5.78125 56.074219 5.695312 C 56.082031 5.601562 56.121094 5.496094 56.195312 5.402344 C 56.550781 4.945312 57.355469 4.871094 58.042969 4.859375 C 58.074219 4.121094 57.871094 3.402344 57.871094 2.664062 C 57.871094 1.882812 58.40625 1.75 59.082031 1.734375 C 59.828125 1.714844 60.429688 1.730469 60.707031 2.527344 C 60.847656 2.921875 60.582031 3.375 60.566406 3.765625 C 60.550781 4.171875 60.453125 4.554688 60.449219 4.957031 C 60.449219 4.957031 60.445312 4.964844 60.445312 4.96875 C 60.769531 5.027344 61.09375 5.113281 61.4375 5.222656 C 61.746094 5.125 62.128906 5.351562 62.128906 5.914062 C 62.128906 6.871094 61.847656 8.320312 62.621094 8.972656 C 63.195312 9.46875 63.882812 9.671875 64.550781 10.015625 C 65.542969 10.527344 66.675781 10.902344 67.714844 11.335938 C 68.042969 11.476562 68.132812 11.832031 68.042969 12.101562 C 68.070312 12.191406 68.078125 12.28125 68.058594 12.386719 C 67.046875 17.351562 65.289062 27.234375 65.167969 27.921875 C 65.277344 27.980469 65.351562 28.089844 65.378906 28.25 C 65.398438 28.367188 65.414062 28.460938 65.414062 28.554688 C 66.191406 29.734375 66.324219 31.605469 66.539062 32.902344 C 66.636719 33.472656 66.75 34.035156 66.875 34.589844 C 66.878906 34.601562 66.875 34.609375 66.878906 34.621094 C 67.285156 36.40625 67.835938 38.140625 68.367188 39.910156 C 68.832031 41.46875 69.085938 43.078125 69.253906 44.710938 C 69.3125 44.757812 69.363281 44.824219 69.402344 44.914062 C 70.789062 48.210938 71.59375 52.136719 71.710938 55.714844 C 71.761719 57.273438 72.125 58.996094 72.550781 60.488281 C 72.917969 61.78125 72.804688 64.386719 72.761719 65.132812 C 73.460938 65.832031 74.171875 66.488281 75.070312 66.996094 C 75.683594 67.347656 76.316406 67.683594 76.710938 68.292969 C 77.832031 70.035156 79.28125 71.957031 79.839844 73.980469 " fill-opacity="1" fill-rule="nonzero"/></g><path fill="#ff66c4" d="M 61.410156 62.5 C 61.539062 65.664062 61.007812 72.046875 61.007812 72.046875 C 61.007812 72.527344 59.90625 72.527344 59.90625 72.046875 C 59.90625 68.695312 60.433594 65.675781 60.304688 62.519531 C 60.277344 61.808594 61.378906 61.796875 61.410156 62.5 " fill-opacity="1" fill-rule="nonzero"/><path fill="#ff66c4" d="M 56.136719 39.9375 C 56.136719 43.097656 55.976562 49.523438 55.976562 49.523438 C 55.976562 50.003906 54.875 50.003906 54.875 49.523438 C 54.875 46.167969 55.035156 43.09375 55.035156 39.9375 C 55.035156 39.230469 56.136719 39.230469 56.136719 39.9375 " fill-opacity="1" fill-rule="nonzero"/><path fill="#ff66c4" d="M 55.980469 66.945312 C 55.988281 69.050781 56.054688 71.144531 55.71875 73.230469 C 55.335938 75.597656 54.523438 77.804688 53.878906 80.101562 C 53.6875 80.785156 52.625 80.515625 52.8125 79.832031 C 53.527344 77.304688 54.523438 74.882812 54.726562 72.246094 C 54.886719 70.171875 54.878906 68.136719 54.875 66.0625 C 54.867188 61.480469 54.875 56.710938 54.875 52.398438 C 54.875 51.4375 55.976562 51.4375 55.976562 52.398438 C 55.976562 57.191406 55.96875 62.070312 55.980469 66.945312 " fill-opacity="1" fill-rule="nonzero"/><path fill="#ff66c4" d="M 46.425781 61.199219 C 46.679688 60.539062 47.742188 60.828125 47.488281 61.492188 C 47.355469 61.835938 47.214844 62.214844 47.1875 62.582031 C 47.167969 62.871094 47.058594 63.136719 47.03125 63.421875 C 46.957031 64.121094 45.855469 64.125 45.925781 63.421875 C 45.964844 63.058594 46.03125 62.675781 46.105469 62.3125 C 46.1875 61.929688 46.289062 61.5625 46.425781 61.199219 " fill-opacity="1" fill-rule="nonzero"/></svg>