<svg xmlns="http://www.w3.org/2000/svg" xmlns:xlink="http://www.w3.org/1999/xlink" width="141" zoomAndPan="magnify" viewBox="0 0 105.75 79.499998" height="106" preserveAspectRatio="xMidYMid meet" version="1.0"><defs><clipPath id="f2da2af82c"><path d="M 0.207031 0 L 17 0 L 17 79 L 0.207031 79 Z M 0.207031 0 " clip-rule="nonzero"/></clipPath><clipPath id="cab5251ecd"><path d="M 93 0 L 104.550781 0 L 104.550781 79 L 93 79 Z M 93 0 " clip-rule="nonzero"/></clipPath></defs><g clip-path="url(#f2da2af82c)"><path fill="#754643" d="M 15.191406 0.171875 C 14.289062 0.171875 13.5625 0.90625 13.5625 1.808594 L 13.5625 13.113281 L 10.144531 13.113281 L 10.144531 1.808594 C 10.144531 0.90625 9.417969 0.171875 8.515625 0.171875 C 7.613281 0.171875 6.882812 0.90625 6.882812 1.808594 L 6.882812 13.113281 L 3.46875 13.113281 L 3.46875 1.808594 C 3.46875 0.90625 2.738281 0.171875 1.835938 0.171875 C 0.933594 0.171875 0.207031 0.90625 0.207031 1.808594 L 0.207031 14.746094 C 0.207031 15.652344 0.9375 16.382812 1.835938 16.382812 L 6.882812 16.382812 L 6.882812 41.25 C 6.089844 41.507812 5.367188 41.921875 4.773438 42.492188 L 4.660156 42.585938 C 3.660156 43.570312 3.046875 44.957031 3.046875 46.457031 L 3.046875 73.488281 C 3.046875 74.988281 3.660156 76.355469 4.660156 77.355469 C 5.660156 78.359375 7.019531 78.972656 8.515625 78.972656 C 10.007812 78.972656 11.375 78.359375 12.371094 77.355469 C 13.367188 76.351562 13.980469 74.988281 13.980469 73.488281 L 13.980469 46.457031 C 13.980469 44.957031 13.347656 43.589844 12.371094 42.589844 C 11.761719 41.96875 10.992188 41.523438 10.144531 41.253906 L 10.144531 16.386719 L 15.191406 16.386719 C 16.09375 16.386719 16.824219 15.652344 16.824219 14.75 L 16.824219 1.808594 C 16.824219 0.90625 16.09375 0.171875 15.191406 0.171875 Z M 10.722656 73.472656 C 10.722656 74.085938 10.472656 74.625 10.070312 75.03125 C 9.664062 75.433594 9.109375 75.6875 8.515625 75.6875 C 7.902344 75.6875 7.363281 75.433594 6.960938 75.03125 C 6.558594 74.628906 6.308594 74.089844 6.308594 73.472656 L 6.308594 46.441406 C 6.308594 45.824219 6.558594 45.285156 6.960938 44.878906 L 7.015625 44.824219 C 7.421875 44.476562 7.9375 44.246094 8.515625 44.246094 C 9.128906 44.246094 9.664062 44.496094 10.070312 44.878906 C 10.472656 45.285156 10.722656 45.84375 10.722656 46.441406 Z M 10.722656 73.472656 " fill-opacity="1" fill-rule="nonzero"/></g><path fill="#754643" d="M 53.796875 4.96875 C 43.914062 4.96875 34.957031 9.011719 28.449219 15.539062 C 21.945312 22.0625 17.914062 31.074219 17.914062 40.972656 C 17.914062 50.886719 21.945312 59.878906 28.449219 66.40625 C 34.953125 72.933594 43.933594 76.976562 53.796875 76.976562 C 63.679688 76.976562 72.640625 72.933594 79.144531 66.40625 C 85.652344 59.878906 89.679688 50.871094 89.679688 40.972656 C 89.679688 31.058594 85.648438 22.066406 79.144531 15.539062 C 72.640625 9.011719 63.660156 4.96875 53.796875 4.96875 Z M 76.839844 64.09375 C 70.929688 70.027344 62.777344 73.703125 53.796875 73.703125 C 44.835938 73.703125 36.683594 70.023438 30.753906 64.09375 C 24.84375 58.164062 21.179688 49.964844 21.179688 40.972656 C 21.179688 31.964844 24.84375 23.777344 30.753906 17.851562 C 36.664062 11.917969 44.835938 8.242188 53.796875 8.242188 C 62.777344 8.242188 70.933594 11.921875 76.839844 17.851562 C 82.753906 23.78125 86.414062 31.964844 86.414062 40.972656 C 86.417969 49.980469 82.753906 58.164062 76.839844 64.09375 Z M 76.839844 64.09375 " fill-opacity="1" fill-rule="nonzero"/><path fill="#754643" d="M 48.597656 28.976562 C 49.328125 30.363281 49.363281 31.882812 49.40625 33.308594 C 49.480469 35.90625 49.539062 38.3125 52.359375 40.355469 L 52.476562 40.429688 C 53.339844 41.046875 54.277344 41.414062 55.238281 41.566406 C 56.292969 41.738281 57.386719 41.683594 58.441406 41.453125 C 59.824219 41.164062 61.183594 40.546875 62.433594 39.816406 C 63.070312 39.4375 63.675781 39.015625 64.246094 38.589844 C 64.1875 38.640625 64.121094 38.683594 64.066406 38.738281 C 63.085938 39.71875 62.472656 41.085938 62.472656 42.570312 C 62.472656 44.070312 63.085938 45.417969 64.066406 46.402344 C 65.042969 47.382812 66.40625 47.996094 67.882812 47.996094 C 69.324219 47.996094 70.628906 47.441406 71.566406 46.476562 L 71.683594 46.378906 C 72.660156 45.398438 73.273438 44.03125 73.273438 42.546875 C 73.273438 41.0625 72.660156 39.71875 71.683594 38.738281 C 70.703125 37.753906 69.359375 37.136719 67.882812 37.136719 C 66.796875 37.136719 65.800781 37.46875 64.953125 38.023438 C 65.402344 37.648438 65.832031 37.273438 66.191406 36.90625 C 67.152344 35.964844 68.457031 35.308594 69.703125 34.710938 C 72.429688 33.402344 74.941406 32.171875 75.308594 28.320312 C 75.75 23.660156 73.636719 22.199219 71.453125 20.714844 C 70.628906 20.160156 69.800781 19.578125 69.300781 18.789062 C 69.109375 18.480469 68.9375 18.019531 68.746094 17.578125 C 68.191406 16.191406 67.597656 14.765625 65.734375 13.746094 C 62.949219 12.242188 60.765625 13.320312 58.75 14.324219 C 57.945312 14.726562 57.195312 15.09375 56.699219 15.09375 C 56.429688 15.09375 55.988281 15.035156 55.507812 14.976562 C 52.609375 14.613281 48.199219 14.054688 46.375 19.023438 C 45.089844 22.488281 46.796875 25.625 48.21875 28.265625 Z M 66.386719 41.085938 C 66.789062 40.703125 67.308594 40.453125 67.902344 40.453125 C 68.496094 40.453125 69.035156 40.683594 69.417969 41.066406 C 69.800781 41.453125 70.03125 41.992188 70.03125 42.585938 C 70.03125 43.183594 69.78125 43.722656 69.398438 44.109375 L 69.339844 44.183594 C 68.972656 44.53125 68.457031 44.742188 67.898438 44.742188 C 67.304688 44.742188 66.765625 44.492188 66.382812 44.105469 C 66 43.703125 65.75 43.164062 65.769531 42.601562 C 65.769531 42.011719 66.003906 41.472656 66.386719 41.085938 Z M 49.421875 20.179688 C 50.363281 17.636719 53.242188 18.003906 55.121094 18.234375 C 55.71875 18.308594 56.234375 18.367188 56.695312 18.367188 C 57.925781 18.367188 59.015625 17.828125 60.167969 17.269531 C 61.453125 16.636719 62.871094 15.941406 64.160156 16.636719 C 65.003906 17.078125 65.347656 17.964844 65.691406 18.808594 C 65.921875 19.367188 66.152344 19.90625 66.515625 20.503906 C 67.378906 21.890625 68.492188 22.660156 69.605469 23.410156 C 70.96875 24.355469 72.308594 25.261719 72.042969 28.011719 C 71.832031 30.054688 70.121094 30.882812 68.261719 31.789062 C 66.785156 32.519531 65.230469 33.269531 63.867188 34.617188 C 63.042969 35.445312 61.96875 36.3125 60.757812 37.023438 C 59.800781 37.582031 58.765625 38.042969 57.726562 38.273438 C 57.035156 38.429688 56.367188 38.46875 55.75 38.371094 C 55.253906 38.273438 54.773438 38.101562 54.332031 37.792969 L 54.257812 37.734375 C 52.742188 36.617188 52.683594 35.003906 52.644531 33.25 C 52.605469 31.441406 52.546875 29.511719 51.472656 27.472656 L 51.070312 26.71875 C 49.980469 24.683594 48.65625 22.238281 49.421875 20.179688 Z M 49.421875 20.179688 " fill-opacity="1" fill-rule="nonzero"/><path fill="#754643" d="M 61.011719 32.195312 C 62.699219 32.195312 64.253906 31.480469 65.367188 30.386719 C 66.484375 29.265625 67.171875 27.710938 67.171875 26.011719 C 67.171875 24.300781 66.480469 22.761719 65.367188 21.640625 C 64.253906 20.523438 62.703125 19.832031 61.011719 19.832031 C 59.304688 19.832031 57.769531 20.527344 56.65625 21.640625 C 55.542969 22.761719 54.855469 24.316406 54.855469 26.011719 C 54.855469 27.726562 55.546875 29.265625 56.65625 30.386719 C 57.769531 31.5 59.324219 32.195312 61.011719 32.195312 Z M 58.960938 23.949219 C 59.496094 23.429688 60.226562 23.101562 61.011719 23.101562 C 61.820312 23.101562 62.546875 23.429688 63.066406 23.949219 C 63.585938 24.492188 63.910156 25.21875 63.910156 26.011719 C 63.910156 26.820312 63.585938 27.550781 63.066406 28.070312 C 62.527344 28.59375 61.800781 28.917969 61.011719 28.917969 C 60.207031 28.917969 59.480469 28.609375 58.960938 28.070312 C 58.441406 27.53125 58.113281 26.800781 58.113281 26.011719 C 58.113281 25.203125 58.441406 24.472656 58.960938 23.949219 Z M 58.960938 23.949219 " fill-opacity="1" fill-rule="nonzero"/><path fill="#754643" d="M 68.574219 48.867188 C 67.480469 49.984375 66.789062 51.484375 66.789062 53.160156 C 66.789062 54.835938 67.480469 56.355469 68.574219 57.453125 C 69.664062 58.550781 71.179688 59.242188 72.851562 59.242188 C 74.460938 59.242188 75.9375 58.605469 77.015625 57.550781 L 77.128906 57.453125 C 78.222656 56.355469 78.914062 54.835938 78.914062 53.160156 C 78.914062 51.484375 78.222656 49.964844 77.128906 48.867188 C 76.015625 47.75 74.519531 47.078125 72.851562 47.078125 C 71.183594 47.078125 69.664062 47.769531 68.574219 48.867188 Z M 75.632812 53.160156 C 75.632812 53.929688 75.308594 54.640625 74.808594 55.144531 L 74.753906 55.21875 C 74.253906 55.683594 73.582031 55.972656 72.851562 55.972656 C 72.105469 55.972656 71.394531 55.660156 70.898438 55.160156 C 70.378906 54.640625 70.070312 53.949219 70.070312 53.179688 C 70.070312 52.410156 70.378906 51.695312 70.878906 51.195312 C 71.398438 50.671875 72.085938 50.367188 72.855469 50.367188 C 73.621094 50.367188 74.332031 50.675781 74.832031 51.175781 C 75.332031 51.675781 75.632812 52.390625 75.632812 53.160156 Z M 75.632812 53.160156 " fill-opacity="1" fill-rule="nonzero"/><path fill="#754643" d="M 38.273438 44.863281 C 37.964844 42.917969 38.003906 41.109375 38.347656 39.433594 C 38.675781 37.816406 39.328125 36.257812 40.304688 34.757812 C 41.300781 33.234375 42.628906 31.753906 44.296875 30.347656 C 45.523438 29.308594 46.214844 27.886719 46.332031 26.402344 C 46.46875 24.917969 46.023438 23.398438 44.988281 22.164062 C 43.953125 20.933594 42.53125 20.238281 41.054688 20.125 C 39.578125 19.992188 38.0625 20.433594 36.832031 21.472656 C 34.203125 23.703125 32.074219 26.113281 30.464844 28.710938 C 28.8125 31.328125 27.679688 34.140625 27.066406 37.105469 C 26.453125 40.015625 26.375 43.039062 26.796875 46.171875 C 27.222656 49.292969 28.160156 52.507812 29.582031 55.820312 C 30.195312 57.28125 31.367188 58.34375 32.75 58.898438 C 34.132812 59.4375 35.703125 59.476562 37.164062 58.84375 C 38.621094 58.226562 39.675781 57.050781 40.234375 55.664062 C 40.769531 54.296875 40.808594 52.699219 40.175781 51.234375 C 39.214844 48.960938 38.582031 46.84375 38.273438 44.863281 Z M 35.050781 45.324219 C 35.394531 47.578125 36.109375 49.980469 37.179688 52.484375 C 37.46875 53.140625 37.449219 53.832031 37.21875 54.429688 C 36.988281 55.027344 36.511719 55.546875 35.875 55.816406 C 35.222656 56.105469 34.53125 56.085938 33.9375 55.855469 C 33.34375 55.625 32.824219 55.144531 32.554688 54.507812 C 31.234375 51.445312 30.386719 48.519531 30.003906 45.730469 C 29.640625 42.957031 29.71875 40.277344 30.234375 37.738281 C 30.769531 35.15625 31.75 32.734375 33.1875 30.441406 C 34.648438 28.148438 36.566406 25.972656 38.945312 23.949219 C 39.464844 23.507812 40.136719 23.316406 40.789062 23.371094 C 41.441406 23.429688 42.054688 23.71875 42.496094 24.21875 C 42.9375 24.742188 43.128906 25.414062 43.074219 26.070312 C 43.015625 26.703125 42.730469 27.339844 42.191406 27.78125 C 40.292969 29.402344 38.757812 31.113281 37.585938 32.921875 C 36.398438 34.773438 35.59375 36.699219 35.167969 38.738281 C 34.742188 40.816406 34.703125 43.015625 35.050781 45.324219 Z M 35.050781 45.324219 " fill-opacity="1" fill-rule="nonzero"/><path fill="#754643" d="M 53.242188 43.050781 L 52.664062 43.070312 C 51.761719 43.109375 51.074219 43.859375 51.09375 44.746094 C 51.109375 45.417969 51.132812 46.054688 51.1875 46.648438 C 51.246094 47.265625 51.320312 47.917969 51.417969 48.632812 C 51.515625 49.328125 51.320312 49.980469 50.9375 50.5 C 50.554688 51.019531 49.960938 51.386719 49.269531 51.480469 C 48.578125 51.578125 47.925781 51.386719 47.410156 51 C 46.890625 50.597656 46.527344 50.019531 46.429688 49.324219 L 46.335938 48.6875 C 46.292969 48.246094 46.082031 47.824219 45.722656 47.515625 C 45.03125 46.957031 43.992188 47.070312 43.4375 47.785156 C 42.574219 48.863281 41.882812 50.09375 41.425781 51.441406 C 40.984375 52.75 40.734375 54.136719 40.734375 55.5625 C 40.734375 58.988281 42.132812 62.128906 44.398438 64.398438 C 46.644531 66.671875 49.773438 68.078125 53.203125 68.078125 C 56.636719 68.078125 59.769531 66.671875 62.070312 64.398438 C 64.332031 62.144531 65.734375 59.007812 65.734375 55.5625 C 65.734375 52.136719 64.332031 48.996094 62.070312 46.726562 C 59.804688 44.457031 56.675781 43.050781 53.242188 43.050781 Z M 59.726562 62.09375 C 58.058594 63.769531 55.734375 64.808594 53.203125 64.808594 C 50.667969 64.808594 48.367188 63.769531 46.71875 62.09375 C 45.046875 60.417969 44.011719 58.089844 44.011719 55.546875 C 44.011719 54.507812 44.167969 53.527344 44.472656 52.621094 C 44.761719 52.988281 45.109375 53.3125 45.472656 53.582031 C 46.664062 54.46875 48.179688 54.914062 49.75 54.679688 C 51.324219 54.46875 52.667969 53.621094 53.550781 52.425781 C 54.429688 51.234375 54.871094 49.710938 54.640625 48.132812 C 54.546875 47.554688 54.488281 46.957031 54.429688 46.363281 C 56.484375 46.632812 58.324219 47.59375 59.726562 49 C 61.394531 50.675781 62.433594 53.003906 62.433594 55.546875 C 62.433594 58.105469 61.394531 60.417969 59.726562 62.09375 Z M 59.726562 62.09375 " fill-opacity="1" fill-rule="nonzero"/><path fill="#754643" d="M 48.214844 56.875 C 47.3125 56.875 46.585938 57.609375 46.585938 58.511719 L 46.585938 58.609375 C 46.585938 59.515625 47.316406 60.246094 48.214844 60.246094 C 49.113281 60.246094 49.84375 59.511719 49.84375 58.609375 L 49.84375 58.511719 C 49.84375 57.605469 49.117188 56.875 48.214844 56.875 Z M 48.214844 56.875 " fill-opacity="1" fill-rule="nonzero"/><path fill="#754643" d="M 51.6875 59.804688 C 50.785156 59.804688 50.054688 60.535156 50.054688 61.4375 L 50.054688 61.535156 C 50.054688 62.441406 50.785156 63.171875 51.6875 63.171875 C 52.585938 63.171875 53.316406 62.4375 53.316406 61.535156 L 53.316406 61.4375 C 53.316406 60.53125 52.589844 59.804688 51.6875 59.804688 Z M 51.6875 59.804688 " fill-opacity="1" fill-rule="nonzero"/><path fill="#754643" d="M 52.53125 55.390625 C 51.628906 55.390625 50.902344 56.125 50.902344 57.027344 L 50.902344 57.125 C 50.902344 58.03125 51.632812 58.761719 52.53125 58.761719 C 53.433594 58.761719 54.164062 58.027344 54.164062 57.125 L 54.164062 57.027344 C 54.164062 56.125 53.433594 55.390625 52.53125 55.390625 Z M 52.53125 55.390625 " fill-opacity="1" fill-rule="nonzero"/><g clip-path="url(#cab5251ecd)"><path fill="#754643" d="M 102.9375 42.589844 C 102.292969 41.929688 101.464844 41.460938 100.554688 41.203125 C 101.457031 39.859375 102.136719 38.136719 102.589844 36.160156 C 103.1875 33.636719 103.453125 30.652344 103.453125 27.511719 C 103.453125 17.214844 100.5 4.816406 96.410156 0.65625 C 95.929688 0.171875 95.214844 0.0507812 94.617188 0.300781 C 94.476562 0.355469 94.359375 0.453125 94.242188 0.546875 C 94.203125 0.582031 94.148438 0.597656 94.109375 0.636719 C 94.109375 0.636719 94.105469 0.640625 94.105469 0.640625 C 93.800781 0.941406 93.609375 1.351562 93.609375 1.8125 L 93.609375 73.492188 C 93.609375 74.996094 94.222656 76.359375 95.222656 77.359375 C 96.222656 78.363281 97.582031 78.980469 99.078125 78.980469 C 100.570312 78.980469 101.9375 78.363281 102.933594 77.359375 C 103.929688 76.359375 104.542969 74.992188 104.542969 73.492188 L 104.542969 46.457031 C 104.550781 44.957031 103.9375 43.589844 102.9375 42.589844 Z M 99.410156 35.445312 C 98.929688 37.546875 98.21875 39.199219 97.242188 40.164062 C 97.125 40.277344 97 40.371094 96.875 40.460938 L 96.875 7.800781 C 98.898438 12.996094 100.1875 20.707031 100.175781 27.550781 C 100.175781 30.460938 99.925781 33.195312 99.410156 35.445312 Z M 101.289062 73.472656 C 101.289062 74.085938 101.039062 74.625 100.636719 75.03125 C 100.234375 75.433594 99.675781 75.6875 99.082031 75.6875 C 98.46875 75.6875 97.933594 75.433594 97.527344 75.03125 C 97.125 74.628906 96.875 74.089844 96.875 73.472656 L 96.875 46.441406 C 96.875 45.824219 97.125 45.285156 97.527344 44.878906 L 97.585938 44.824219 C 97.988281 44.476562 98.507812 44.246094 99.082031 44.246094 C 99.695312 44.246094 100.234375 44.496094 100.636719 44.878906 C 101.039062 45.285156 101.289062 45.84375 101.289062 46.441406 Z M 101.289062 73.472656 " fill-opacity="1" fill-rule="nonzero"/></g></svg>
