<svg xmlns="http://www.w3.org/2000/svg" xmlns:xlink="http://www.w3.org/1999/xlink" width="114" zoomAndPan="magnify" viewBox="0 0 85.5 102.75" height="137" preserveAspectRatio="xMidYMid meet" version="1.0"><defs><clipPath id="981779d577"><path d="M 0 1 L 85 1 L 85 102.328125 L 0 102.328125 Z M 0 1 " clip-rule="nonzero"/></clipPath></defs><path fill="#754643" d="M 27.871094 59.734375 C 28.476562 61.699219 28.707031 63.660156 29.046875 65.671875 C 29.074219 65.835938 29.335938 65.792969 29.332031 65.632812 C 29.328125 63.632812 28.765625 61.542969 28.164062 59.652344 C 28.105469 59.460938 27.8125 59.542969 27.871094 59.734375 Z M 27.871094 59.734375 " fill-opacity="1" fill-rule="nonzero"/><path fill="#754643" d="M 37.007812 61.730469 C 36.90625 61.625 36.75 61.78125 36.851562 61.886719 C 37.078125 62.121094 37.3125 62.351562 37.539062 62.589844 C 37.648438 62.703125 37.828125 62.527344 37.710938 62.414062 C 37.476562 62.183594 37.238281 61.957031 37.007812 61.730469 Z M 37.007812 61.730469 " fill-opacity="1" fill-rule="nonzero"/><g clip-path="url(#981779d577)"><path fill="#754643" d="M 83.632812 28.058594 C 83.964844 27.820312 84.085938 27.238281 83.636719 26.941406 C 80.957031 25.160156 77.902344 24.378906 74.835938 23.542969 C 71.882812 22.742188 68.875 21.726562 65.835938 21.273438 C 65.898438 21.03125 65.945312 20.78125 65.984375 20.519531 C 66.003906 20.363281 65.957031 20.238281 65.878906 20.148438 C 65.90625 20.097656 65.9375 20.042969 65.960938 19.984375 C 66.988281 17.808594 67.804688 14.308594 66.695312 12 C 66.605469 11.816406 66.507812 11.65625 66.40625 11.511719 C 66.460938 10.640625 66.277344 9.804688 65.878906 8.996094 C 65.8125 8.863281 65.710938 8.789062 65.597656 8.761719 C 65.429688 7.5625 64.28125 6.707031 63.082031 6.1875 C 59.824219 4.765625 56.300781 3.769531 52.945312 2.601562 C 50.671875 1.808594 47.480469 0.183594 45.085938 1.503906 C 43.226562 2.527344 42.835938 4.816406 42.75 6.746094 C 42.648438 8.984375 42.730469 11.246094 42.90625 13.5 C 42.683594 13.464844 42.464844 13.421875 42.253906 13.367188 C 41.53125 12.878906 40.679688 12.511719 39.828125 12.25 C 39.28125 11.847656 38.78125 11.359375 38.324219 10.773438 C 38.171875 10.582031 37.769531 10.527344 37.574219 10.675781 C 35.957031 11.921875 34.339844 13.15625 32.730469 14.410156 C 31.230469 15.578125 29.476562 16.65625 28.316406 18.175781 C 27.78125 17.828125 27.265625 17.445312 26.707031 17.128906 C 25.503906 16.441406 24.171875 15.832031 22.78125 15.691406 C 20.339844 15.441406 18.476562 16.773438 17.308594 18.832031 C 16.035156 21.078125 15.152344 23.75 14.882812 26.449219 C 12.359375 27.828125 10.039062 29.6875 7.625 31.242188 C 5.605469 32.539062 3.292969 33.675781 1.417969 35.210938 C 1.179688 34.941406 0.683594 35.035156 0.628906 35.496094 C 0.316406 38.105469 0.46875 40.839844 0.472656 43.46875 C 0.476562 44.90625 0 46.964844 1.039062 48.128906 C 1.109375 48.210938 1.203125 48.242188 1.292969 48.238281 C 1.304688 48.246094 1.3125 48.253906 1.328125 48.265625 C 2.027344 48.570312 2.730469 48.871094 3.441406 49.167969 C 3.136719 58.679688 3.222656 68.203125 3.703125 77.707031 C 3.632812 79.472656 3.570312 81.234375 3.527344 83 C 3.519531 83.355469 3.777344 83.53125 4.050781 83.53125 C 4.074219 83.828125 4.089844 84.132812 4.113281 84.429688 C 4.125 84.59375 4.253906 84.78125 4.441406 84.761719 C 4.460938 84.761719 4.476562 84.761719 4.496094 84.753906 C 4.503906 84.777344 4.507812 84.800781 4.519531 84.824219 C 4.445312 84.957031 4.46875 85.132812 4.632812 85.257812 C 4.648438 85.269531 4.660156 85.277344 4.667969 85.285156 C 4.675781 85.292969 4.679688 85.304688 4.679688 85.3125 C 4.675781 85.46875 4.730469 85.628906 4.875 85.777344 C 4.996094 85.894531 5.199219 85.851562 5.289062 85.730469 C 8.523438 87.96875 12.394531 88.96875 16.25 89.839844 C 16.78125 90.027344 17.304688 90.214844 17.835938 90.402344 C 18.132812 90.507812 18.433594 90.605469 18.730469 90.710938 C 18.855469 90.867188 19.074219 90.929688 19.265625 90.898438 C 21.472656 91.65625 23.6875 92.382812 25.914062 93.0625 C 26.238281 93.160156 26.5625 93.257812 26.890625 93.351562 C 26.964844 93.816406 27.519531 93.898438 27.824219 93.625 C 29.273438 94.050781 30.722656 94.457031 32.171875 94.847656 C 36.824219 96.539062 41.453125 98.300781 46.066406 100.109375 C 46.519531 100.363281 46.980469 100.550781 47.457031 100.65625 C 47.894531 100.832031 48.328125 101 48.761719 101.175781 C 48.789062 101.1875 48.820312 101.207031 48.847656 101.21875 C 48.53125 101.5625 49.007812 102.191406 49.40625 101.890625 C 49.453125 101.859375 49.492188 101.824219 49.539062 101.792969 C 49.5625 102.210938 50.175781 102.191406 50.214844 101.769531 C 50.21875 101.734375 50.21875 101.699219 50.222656 101.664062 C 57.703125 95.8125 65.066406 89.816406 72.441406 83.84375 C 74.328125 82.316406 76.210938 80.792969 78.097656 79.265625 C 78.796875 78.699219 79.550781 78.132812 80.011719 77.339844 C 80.515625 76.476562 80.566406 75.488281 80.542969 74.511719 C 80.449219 69.800781 80.21875 65.089844 80.054688 60.378906 C 80.011719 59.277344 79.976562 58.183594 79.9375 57.082031 C 80.132812 52.773438 80.488281 48.476562 81.082031 44.207031 C 81.121094 43.902344 81.039062 43.671875 80.886719 43.515625 C 80.878906 43.394531 80.867188 43.277344 80.851562 43.160156 C 80.851562 43.140625 80.84375 43.132812 80.835938 43.113281 C 81.945312 42.527344 83.078125 41.964844 84.234375 41.449219 C 84.4375 41.570312 84.753906 41.464844 84.757812 41.164062 C 84.816406 36.863281 83.988281 32.40625 83.632812 28.058594 Z M 81.828125 27.355469 C 77.9375 30.378906 74.042969 33.40625 70.082031 36.335938 C 70.070312 36.257812 70.058594 36.175781 70.046875 36.089844 C 70.015625 35.875 69.683594 35.96875 69.714844 36.179688 C 69.734375 36.308594 69.753906 36.433594 69.773438 36.5625 C 69.574219 36.710938 69.375 36.863281 69.171875 37.007812 C 69.164062 36.964844 69.160156 36.925781 69.140625 36.882812 C 68.757812 36.054688 67.621094 35.796875 66.84375 35.441406 C 66.121094 35.117188 65.40625 34.773438 64.664062 34.5 C 66.125 33.359375 67.652344 32.300781 69.261719 31.335938 C 69.582031 31.144531 69.652344 30.683594 69.382812 30.417969 C 67.789062 28.859375 65.75 28.511719 63.613281 28.25 C 60.335938 27.847656 56.839844 27.183594 53.535156 27.351562 C 53.457031 27.164062 53.359375 26.972656 53.214844 26.769531 C 57.628906 26.984375 63.820312 26.484375 65.578125 22.101562 C 70.808594 24.238281 76.867188 24.574219 81.828125 27.355469 Z M 72.394531 37.183594 C 72.390625 36.960938 72.042969 36.960938 72.046875 37.183594 C 72.132812 39.96875 72.097656 42.796875 72.304688 45.582031 C 71.515625 46.089844 70.726562 46.601562 69.949219 47.125 C 69.734375 43.996094 69.730469 40.875 69.796875 37.726562 C 69.839844 37.695312 69.886719 37.664062 69.925781 37.632812 C 70.09375 38.769531 70.261719 39.90625 70.429688 41.039062 C 70.664062 42.640625 70.839844 44.296875 71.199219 45.875 C 71.230469 46.011719 71.449219 45.984375 71.441406 45.84375 C 71.332031 44.269531 71.027344 42.675781 70.792969 41.113281 L 70.242188 37.410156 C 71.703125 36.363281 73.160156 35.304688 74.613281 34.238281 C 74.480469 35.917969 74.445312 37.601562 74.511719 39.289062 C 74.546875 40.25 74.613281 41.207031 74.710938 42.160156 C 74.769531 42.734375 74.808594 43.355469 74.910156 43.953125 C 74.621094 44.128906 74.332031 44.308594 74.042969 44.492188 C 73.910156 43.332031 73.726562 42.179688 73.632812 41.015625 C 73.515625 39.507812 73.460938 38 73.460938 36.488281 C 73.460938 36.339844 73.230469 36.339844 73.226562 36.488281 C 73.183594 39.160156 73.191406 42.035156 73.71875 44.695312 C 73.359375 44.921875 73 45.144531 72.644531 45.371094 C 72.671875 42.644531 72.472656 39.898438 72.394531 37.183594 Z M 72.433594 46.917969 C 71.640625 47.453125 70.847656 47.992188 70.0625 48.535156 C 70.058594 48.484375 70.054688 48.429688 70.050781 48.375 C 70.832031 47.832031 71.625 47.3125 72.417969 46.792969 C 72.421875 46.828125 72.421875 46.859375 72.425781 46.894531 C 72.429688 46.90625 72.429688 46.910156 72.433594 46.917969 Z M 72.605469 46.671875 C 73.765625 45.925781 74.941406 45.199219 76.140625 44.503906 C 74.949219 45.253906 73.769531 46.023438 72.597656 46.808594 C 72.605469 46.761719 72.605469 46.71875 72.605469 46.671875 Z M 75.277344 43.71875 C 75.207031 43.140625 75.089844 42.5625 75.03125 41.992188 C 74.929688 41.039062 74.859375 40.078125 74.816406 39.121094 C 74.746094 37.433594 74.765625 35.738281 74.859375 34.054688 C 75.234375 33.777344 75.605469 33.503906 75.980469 33.226562 C 75.804688 36.46875 75.671875 39.917969 76.265625 43.121094 C 75.941406 43.320312 75.605469 43.515625 75.277344 43.71875 Z M 76.269531 38.054688 C 76.226562 36.375 76.234375 34.695312 76.3125 33.015625 C 76.3125 33.003906 76.304688 32.996094 76.304688 32.984375 C 76.414062 32.90625 76.519531 32.824219 76.632812 32.746094 C 76.742188 34.394531 76.855469 36.046875 76.976562 37.695312 C 77.085938 39.273438 77.09375 40.898438 77.378906 42.457031 C 77.097656 42.628906 76.8125 42.796875 76.535156 42.964844 C 76.496094 41.328125 76.316406 39.691406 76.269531 38.054688 Z M 68.917969 47.8125 C 66.601562 49.382812 64.324219 51.007812 62.097656 52.691406 C 62.144531 51.15625 61.851562 49.546875 61.785156 48.027344 C 61.71875 46.472656 61.742188 44.917969 61.746094 43.363281 C 64.199219 41.6875 66.628906 39.980469 69.046875 38.257812 C 68.71875 41.429688 68.722656 44.632812 68.917969 47.8125 Z M 69.019531 49.261719 C 68.273438 49.789062 67.527344 50.3125 66.785156 50.847656 C 66.554688 51.011719 66.320312 51.179688 66.089844 51.34375 C 66.078125 51.335938 66.066406 51.328125 66.054688 51.320312 C 67.023438 50.5625 68.011719 49.828125 69.011719 49.109375 C 69.011719 49.164062 69.015625 49.214844 69.019531 49.261719 Z M 56.058594 57.492188 C 55.695312 57.800781 55.328125 58.101562 54.964844 58.414062 C 54.773438 58.574219 54.585938 58.742188 54.394531 58.902344 C 54.292969 57.308594 53.921875 55.683594 53.675781 54.109375 C 53.421875 52.484375 53.164062 50.863281 52.90625 49.238281 C 54.09375 48.464844 55.28125 47.691406 56.464844 46.90625 C 56.617188 48.582031 56.875 50.25 57.082031 51.914062 C 57.257812 53.335938 57.375 54.792969 57.601562 56.214844 C 57.179688 56.554688 56.757812 56.902344 56.335938 57.25 C 56.167969 54.371094 55.585938 51.46875 55.214844 48.617188 C 55.183594 48.390625 54.820312 48.382812 54.851562 48.617188 C 55.246094 51.550781 55.445312 54.59375 56.058594 57.492188 Z M 49.742188 53.035156 C 49.707031 52.957031 49.628906 52.90625 49.542969 52.894531 C 49.523438 52.71875 49.507812 52.546875 49.488281 52.367188 C 49.476562 52.222656 49.363281 52.144531 49.257812 52.136719 C 49.339844 51.96875 49.367188 51.757812 49.3125 51.5625 C 49.558594 51.40625 49.800781 51.25 50.046875 51.09375 C 50.050781 52.359375 50.1875 53.648438 50.324219 54.90625 C 50.300781 54.8125 50.277344 54.726562 50.25 54.632812 C 50.226562 54.558594 50.1875 54.511719 50.140625 54.480469 C 50.117188 54.039062 50.097656 53.597656 50.070312 53.15625 C 50.058594 52.972656 49.835938 52.933594 49.742188 53.035156 Z M 50.027344 62.792969 C 49.992188 62.828125 49.957031 62.867188 49.914062 62.902344 C 49.910156 62.902344 49.90625 62.902344 49.90625 62.894531 C 49.90625 62.890625 49.90625 62.886719 49.902344 62.882812 C 49.925781 62.496094 49.945312 62.109375 49.96875 61.71875 C 49.976562 61.804688 49.988281 61.886719 49.996094 61.96875 C 50.003906 62.246094 50.019531 62.523438 50.027344 62.792969 Z M 49.59375 58.085938 C 49.578125 58.539062 49.554688 58.992188 49.53125 59.449219 C 49.519531 59.3125 49.507812 59.179688 49.488281 59.046875 C 49.453125 58.464844 49.429688 57.878906 49.414062 57.296875 C 49.460938 57.5 49.515625 57.707031 49.574219 57.910156 C 49.585938 57.96875 49.589844 58.027344 49.59375 58.085938 Z M 47.535156 64.539062 C 47.503906 65.15625 47.519531 65.785156 47.554688 66.40625 C 47.441406 65.691406 47.324219 64.976562 47.199219 64.265625 C 47.292969 64.277344 47.386719 64.292969 47.472656 64.300781 C 47.460938 64.378906 47.480469 64.46875 47.535156 64.539062 Z M 44.324219 61.949219 C 42.277344 61.511719 40.261719 60.972656 38.253906 60.367188 C 34.339844 59.183594 30.492188 57.777344 26.648438 56.386719 C 26.46875 56.324219 26.292969 56.257812 26.113281 56.191406 C 26.988281 52.4375 27.472656 48.496094 28.144531 44.714844 C 34.902344 47.082031 41.59375 49.613281 48.234375 52.289062 C 48.371094 55.539062 48.714844 58.785156 49.265625 61.988281 C 49.292969 62.246094 49.324219 62.5 49.355469 62.757812 C 49.355469 62.761719 49.355469 62.765625 49.355469 62.773438 C 49.222656 62.746094 49.082031 62.71875 48.949219 62.691406 C 48.828125 62.160156 48.054688 61.988281 47.832031 62.507812 C 46.660156 62.34375 45.476562 62.195312 44.324219 61.949219 Z M 45.6875 68.394531 C 45.585938 67.46875 45.472656 66.546875 45.351562 65.625 C 45.347656 65.582031 45.320312 65.554688 45.289062 65.542969 C 45.265625 65.347656 45.238281 65.152344 45.210938 64.953125 C 45.21875 64.9375 45.222656 64.917969 45.234375 64.902344 C 45.265625 64.839844 45.230469 64.777344 45.183594 64.75 C 45.144531 64.464844 45.109375 64.179688 45.066406 63.894531 C 45.679688 64.023438 46.289062 64.136719 46.894531 64.21875 C 46.890625 64.238281 46.886719 64.253906 46.890625 64.277344 C 46.992188 65.066406 47.09375 65.851562 47.199219 66.640625 C 47.074219 66.625 46.929688 66.734375 46.917969 66.875 C 46.867188 67.464844 46.816406 68.050781 46.765625 68.644531 C 46.511719 67.550781 46.328125 66.453125 46.214844 65.339844 C 46.195312 65.109375 46.175781 64.882812 46.152344 64.652344 C 46.117188 64.363281 45.660156 64.347656 45.6875 64.652344 C 45.820312 65.902344 45.820312 67.15625 45.6875 68.394531 Z M 44.992188 65.511719 C 45.109375 66.433594 45.222656 67.351562 45.332031 68.273438 C 45.199219 67.453125 45.050781 66.640625 44.890625 65.824219 C 44.921875 65.722656 44.953125 65.613281 44.992188 65.511719 Z M 44.792969 65.339844 C 44.691406 64.8125 44.578125 64.292969 44.464844 63.765625 C 44.570312 63.789062 44.671875 63.808594 44.773438 63.832031 C 44.828125 64.230469 44.875 64.625 44.925781 65.023438 C 44.882812 65.128906 44.835938 65.230469 44.792969 65.339844 Z M 42.875 64.890625 C 42.75 64.699219 42.578125 64.605469 42.398438 64.617188 C 42.257812 64.117188 42.109375 63.613281 41.953125 63.121094 C 42.554688 63.292969 43.164062 63.457031 43.78125 63.609375 C 43.777344 65.167969 43.628906 66.71875 43.34375 68.253906 C 43.09375 67.167969 42.8125 66.089844 42.515625 65.023438 C 42.574219 65.007812 42.632812 65 42.703125 64.996094 C 42.773438 65.097656 42.941406 65 42.875 64.890625 Z M 40.9375 66.316406 C 40.941406 66.363281 40.957031 66.394531 40.976562 66.417969 C 40.957031 66.628906 40.933594 66.847656 40.914062 67.0625 C 40.914062 67.042969 40.914062 67.027344 40.914062 67.011719 C 40.921875 66.796875 40.574219 66.796875 40.574219 67.011719 C 40.574219 67.03125 40.574219 67.042969 40.574219 67.0625 C 40.105469 65.472656 39.636719 63.875 39.167969 62.285156 C 39.867188 62.5 40.589844 62.722656 41.320312 62.9375 C 41.292969 63.21875 41.261719 63.503906 41.238281 63.78125 C 41.144531 63.664062 40.902344 63.699219 40.902344 63.890625 C 40.90625 64.695312 40.882812 65.507812 40.9375 66.316406 Z M 37.792969 64.980469 C 37.933594 65.640625 38.082031 66.300781 38.222656 66.964844 L 38.191406 67.273438 C 37.691406 65.542969 37.191406 63.808594 36.6875 62.082031 C 36.632812 61.894531 36.308594 61.863281 36.273438 62.082031 C 36.15625 62.84375 36.078125 63.605469 36.03125 64.367188 C 35.917969 63.3125 35.8125 62.25 35.714844 61.191406 C 36.542969 61.464844 37.378906 61.734375 38.214844 61.992188 C 38.378906 62.039062 38.546875 62.09375 38.714844 62.144531 C 38.714844 62.148438 38.710938 62.152344 38.710938 62.15625 C 38.589844 63.335938 38.46875 64.519531 38.347656 65.703125 L 38.167969 64.878906 C 38.117188 64.625 37.734375 64.730469 37.792969 64.980469 Z M 38.875 64.625 C 38.871094 65.738281 38.863281 66.851562 38.847656 67.960938 C 38.777344 67.640625 38.707031 67.316406 38.632812 66.996094 Z M 33.265625 60.34375 C 33.210938 60.371094 33.171875 60.417969 33.167969 60.480469 C 33.027344 62.175781 32.972656 63.859375 32.957031 65.546875 C 32.605469 63.597656 32.136719 61.664062 31.628906 59.753906 C 32.171875 59.957031 32.722656 60.152344 33.265625 60.34375 Z M 31.226562 65.871094 C 30.488281 63.675781 30.011719 61.429688 29.871094 59.113281 C 30.324219 59.28125 30.785156 59.453125 31.242188 59.617188 C 31.34375 61.695312 31.3125 63.792969 31.226562 65.871094 Z M 25.296875 52.78125 C 25.308594 53.160156 25.3125 53.535156 25.316406 53.914062 C 25.246094 54.558594 25.183594 55.203125 25.144531 55.839844 C 24.390625 55.5625 23.636719 55.28125 22.882812 55 C 22.632812 52.511719 22.402344 49.960938 21.882812 47.535156 C 21.835938 47.332031 21.519531 47.378906 21.523438 47.582031 C 21.613281 49.976562 21.984375 52.414062 22.34375 54.800781 C 21.957031 54.65625 21.570312 54.511719 21.1875 54.367188 C 21.027344 52.433594 20.898438 50.488281 20.597656 48.570312 C 20.570312 48.382812 20.273438 48.433594 20.273438 48.617188 C 20.304688 50.472656 20.496094 52.324219 20.660156 54.175781 C 20.28125 54.035156 19.898438 53.890625 19.519531 53.75 C 19.339844 52.582031 19.195312 51.410156 19.085938 50.230469 C 18.976562 49 19.003906 47.726562 18.769531 46.511719 C 18.75 46.402344 18.554688 46.394531 18.535156 46.511719 C 18.347656 47.835938 18.535156 49.238281 18.667969 50.5625 C 18.769531 51.574219 18.914062 52.582031 19.078125 53.578125 C 18.84375 53.492188 18.605469 53.402344 18.367188 53.3125 C 18.144531 52.210938 17.953125 51.101562 17.792969 49.988281 C 17.546875 48.261719 17.496094 46.503906 17.195312 44.789062 C 17.175781 44.6875 17.035156 44.722656 17.023438 44.8125 C 16.875 46.507812 17.128906 48.253906 17.363281 49.933594 C 17.515625 51.011719 17.707031 52.082031 17.929688 53.148438 C 17.773438 53.089844 17.621094 53.03125 17.464844 52.972656 C 17.453125 52.558594 17.445312 52.148438 17.445312 51.734375 C 17.445312 51.535156 17.140625 51.535156 17.136719 51.734375 C 17.128906 52.105469 17.121094 52.476562 17.128906 52.847656 C 16.941406 52.777344 16.753906 52.710938 16.566406 52.640625 C 16.066406 50.378906 15.957031 48.152344 15.84375 45.847656 C 15.839844 45.726562 15.65625 45.726562 15.648438 45.847656 C 15.644531 45.933594 15.640625 46.019531 15.628906 46.101562 C 15.554688 46.019531 15.394531 46.046875 15.378906 46.191406 C 15.234375 48.28125 15.628906 50.441406 16.171875 52.492188 C 15.929688 52.398438 15.683594 52.308594 15.433594 52.214844 C 15.40625 52.128906 15.390625 52.039062 15.363281 51.953125 C 15.277344 51.667969 14.839844 51.699219 14.808594 51.984375 C 14.785156 51.976562 14.757812 51.96875 14.730469 51.953125 C 14.898438 50.21875 14.570312 48.382812 14.605469 46.648438 C 14.648438 44.59375 14.859375 42.542969 15.234375 40.523438 C 18.476562 41.507812 21.714844 42.496094 24.90625 43.585938 C 25.636719 43.835938 26.363281 44.097656 27.09375 44.351562 C 26.59375 46.535156 26.085938 48.824219 25.699219 51.125 C 25.652344 49.691406 25.5625 48.238281 25.257812 46.855469 C 25.222656 46.699219 24.988281 46.742188 24.988281 46.890625 C 24.984375 48.851562 25.242188 50.820312 25.296875 52.78125 Z M 16.230469 39.46875 C 16.632812 39.296875 17.035156 39.121094 17.429688 38.929688 C 17.988281 38.667969 18.660156 38.429688 19.191406 38.0625 C 21.914062 40.347656 25.535156 41.429688 29.144531 41.171875 C 28.316406 41.777344 27.5 42.394531 26.6875 43.003906 C 26.199219 42.835938 25.707031 42.664062 25.21875 42.5 C 22.25 41.5 19.253906 40.460938 16.230469 39.46875 Z M 48.789062 52.457031 C 48.863281 52.453125 48.9375 52.433594 48.992188 52.40625 C 48.96875 52.878906 48.949219 53.347656 48.929688 53.820312 Z M 48.742188 51.039062 C 41.824219 48.328125 34.84375 45.78125 27.808594 43.382812 C 29.222656 42.503906 30.65625 41.617188 32.019531 40.648438 C 36.707031 39.277344 39.992188 35.574219 44.058594 33.066406 C 42.035156 35.308594 40.613281 38.125 40.007812 41.046875 C 39.761719 42.222656 39.164062 44.308594 40.25 45.230469 C 41.101562 45.953125 43.128906 45.941406 44.222656 46.160156 C 45.882812 46.496094 47.550781 46.835938 49.226562 47.109375 C 49.722656 47.195312 50.125 46.730469 49.878906 46.257812 C 48.484375 43.523438 47.917969 40.644531 48.042969 37.761719 C 48.804688 38.144531 49.597656 38.535156 50.398438 38.835938 C 53.539062 40.429688 56.753906 41.90625 59.890625 43.464844 C 59.894531 43.46875 59.90625 43.46875 59.910156 43.46875 C 59.488281 43.746094 59.0625 44.023438 58.640625 44.292969 C 58.523438 44.199219 58.304688 44.292969 58.351562 44.480469 C 57.546875 45 56.746094 45.511719 55.941406 46.019531 C 53.5 47.558594 50.855469 49.046875 48.742188 51.039062 Z M 37.554688 33.710938 C 37.488281 33.746094 37.421875 33.785156 37.355469 33.820312 C 36.617188 32.570312 36.300781 31.15625 36.46875 29.699219 C 36.558594 28.929688 36.78125 28.179688 37.136719 27.492188 C 37.449219 26.886719 37.914062 26.410156 38.296875 25.863281 C 38.417969 25.949219 38.539062 26.046875 38.660156 26.148438 C 38.394531 26.320312 38.21875 26.648438 38.109375 26.960938 C 37.359375 29.035156 37.324219 31.519531 37.554688 33.710938 Z M 29.917969 30.964844 C 29.855469 31.648438 29.886719 32.34375 30.035156 33.015625 C 29.835938 32.800781 29.664062 32.5625 29.503906 32.3125 C 29.140625 30.851562 29.144531 29.324219 29.605469 27.925781 C 29.605469 28.054688 29.605469 28.183594 29.621094 28.3125 C 29.628906 28.429688 29.808594 28.433594 29.804688 28.3125 C 29.785156 27.953125 29.808594 27.605469 29.859375 27.277344 C 30.140625 26.65625 30.523438 26.066406 31.015625 25.535156 C 31.140625 25.402344 31.265625 25.277344 31.394531 25.15625 C 31.09375 25.679688 30.859375 26.234375 30.675781 26.773438 C 29.824219 27.992188 29.445312 29.449219 29.917969 30.964844 Z M 30.324219 28.421875 C 30.296875 28.699219 30.28125 28.988281 30.277344 29.289062 C 30.21875 29.457031 30.167969 29.625 30.125 29.796875 C 30.125 29.332031 30.191406 28.875 30.324219 28.421875 Z M 51.363281 27.953125 C 51.402344 27.929688 51.441406 27.902344 51.480469 27.875 C 51.75 27.714844 51.570312 27.308594 51.269531 27.375 C 51.148438 27.402344 51.023438 27.429688 50.90625 27.457031 C 50.839844 27.386719 50.769531 27.3125 50.710938 27.246094 C 50.523438 27.050781 50.175781 27.308594 50.324219 27.542969 C 50.335938 27.554688 50.34375 27.566406 50.351562 27.582031 C 50.246094 27.605469 50.140625 27.628906 50.03125 27.652344 C 50.007812 27.605469 49.984375 27.558594 49.960938 27.511719 C 50.207031 27.136719 50.453125 26.765625 50.714844 26.402344 C 50.75 26.421875 50.78125 26.441406 50.816406 26.464844 C 51.109375 26.644531 51.335938 26.796875 51.515625 26.964844 C 51.550781 27.039062 51.585938 27.109375 51.625 27.175781 C 51.8125 27.613281 51.910156 28.058594 51.921875 28.527344 C 51.730469 28.339844 51.546875 28.144531 51.363281 27.953125 Z M 51.675781 29 C 51.636719 29.035156 51.589844 29.070312 51.542969 29.105469 C 51.511719 28.984375 51.476562 28.863281 51.433594 28.746094 C 51.515625 28.828125 51.59375 28.914062 51.675781 29 Z M 50.539062 28.5625 C 50.617188 28.496094 50.695312 28.429688 50.777344 28.359375 C 50.921875 28.6875 51.039062 29.019531 51.117188 29.367188 C 50.910156 29.109375 50.71875 28.84375 50.539062 28.5625 Z M 50.75 29.667969 C 50.730469 29.679688 50.71875 29.695312 50.699219 29.707031 C 50.617188 29.730469 50.535156 29.753906 50.449219 29.777344 C 50.382812 29.511719 50.316406 29.246094 50.25 28.980469 C 50.40625 29.210938 50.570312 29.445312 50.75 29.667969 Z M 49.613281 26.976562 C 49.464844 26.957031 49.292969 27.097656 49.335938 27.269531 C 49.34375 27.304688 49.355469 27.335938 49.363281 27.371094 C 49.238281 27.578125 49.109375 27.78125 48.988281 27.988281 C 48.859375 28.207031 49.074219 28.460938 49.308594 28.402344 C 49.40625 28.378906 49.511719 28.351562 49.609375 28.328125 C 49.640625 28.445312 49.667969 28.5625 49.699219 28.671875 C 49.613281 28.757812 49.53125 28.847656 49.457031 28.941406 C 49.300781 28.777344 49.140625 28.609375 48.984375 28.449219 C 48.628906 27.84375 48.128906 27.324219 47.503906 26.929688 C 47.304688 26.804688 47.105469 27.085938 47.261719 27.25 C 47.664062 27.679688 48.066406 28.113281 48.472656 28.539062 C 48.472656 28.539062 48.472656 28.542969 48.46875 28.542969 C 48.414062 28.707031 48.359375 28.875 48.308594 29.039062 C 48.253906 29.019531 48.1875 29.03125 48.15625 29.085938 C 48.132812 29.132812 48.113281 29.179688 48.089844 29.226562 C 47.421875 27.847656 46.574219 26.542969 45.492188 25.492188 C 47.171875 25.515625 48.621094 25.375 50.179688 26.125 C 49.984375 26.402344 49.796875 26.6875 49.613281 26.976562 Z M 49.769531 29.921875 C 49.6875 29.933594 49.609375 29.949219 49.527344 29.960938 C 49.515625 29.878906 49.5 29.800781 49.484375 29.71875 C 49.496094 29.703125 49.511719 29.679688 49.523438 29.664062 C 49.609375 29.746094 49.6875 29.835938 49.769531 29.921875 Z M 49.046875 29.449219 C 49.035156 29.464844 49.023438 29.480469 49.011719 29.496094 C 48.90625 29.414062 48.765625 29.355469 48.597656 29.339844 C 48.5625 29.339844 48.53125 29.339844 48.496094 29.335938 C 48.546875 29.140625 48.605469 28.945312 48.664062 28.75 C 48.714844 28.800781 48.761719 28.855469 48.816406 28.910156 C 48.910156 29.082031 48.984375 29.265625 49.046875 29.449219 Z M 42.695312 39.648438 C 42.90625 38.457031 43.113281 37.316406 43.476562 36.183594 C 44.355469 34.816406 45.441406 33.597656 46.6875 32.496094 C 46.53125 32.929688 46.378906 33.363281 46.234375 33.804688 C 44.949219 36.046875 44.226562 38.621094 44.488281 41.191406 C 44.535156 41.617188 45.113281 41.621094 45.148438 41.191406 C 45.382812 38.421875 45.90625 35.949219 47.113281 33.660156 C 47.039062 34.046875 46.964844 34.429688 46.902344 34.820312 C 46.835938 35.21875 46.773438 35.625 46.710938 36.035156 C 46.34375 35.945312 46.125 36.546875 46.472656 36.746094 C 46.511719 36.769531 46.554688 36.792969 46.597656 36.816406 C 46.410156 38.210938 46.289062 39.636719 46.402344 40.996094 C 46.417969 41.207031 46.703125 41.203125 46.726562 40.996094 C 46.824219 40.132812 46.882812 39.269531 46.945312 38.402344 C 46.914062 40.890625 47.402344 43.390625 48.371094 45.714844 C 46.5625 45.289062 44.738281 44.914062 42.921875 44.527344 C 41.699219 44.269531 41.125 44.472656 41.09375 43.15625 C 41.074219 42.296875 41.347656 41.308594 41.574219 40.476562 C 41.839844 39.5 42.191406 38.578125 42.617188 37.714844 C 42.5 38.347656 42.433594 38.984375 42.4375 39.617188 C 42.4375 39.753906 42.667969 39.796875 42.695312 39.648438 Z M 47.078125 32.5 C 47.136719 32.339844 47.195312 32.179688 47.25 32.019531 C 47.339844 31.945312 47.429688 31.867188 47.523438 31.796875 C 47.511719 31.851562 47.5 31.898438 47.488281 31.953125 C 47.34375 32.125 47.210938 32.3125 47.078125 32.5 Z M 47.316406 34.597656 C 47.421875 33.957031 47.542969 33.320312 47.675781 32.6875 C 47.847656 32.414062 48.027344 32.144531 48.21875 31.875 C 48.226562 31.914062 48.242188 31.945312 48.253906 31.980469 C 48.261719 32 48.273438 32.023438 48.28125 32.046875 C 47.710938 33.359375 47.328125 34.734375 47.121094 36.128906 C 47.175781 35.621094 47.238281 35.105469 47.316406 34.597656 Z M 45.726562 28.585938 C 45.84375 28.714844 45.960938 28.84375 46.074219 28.972656 C 46.164062 29.113281 46.25 29.261719 46.328125 29.402344 C 44.539062 29.476562 43.238281 28.78125 41.910156 27.582031 C 42.035156 27.472656 42.175781 27.394531 42.324219 27.332031 C 42.796875 27.511719 43.285156 27.648438 43.785156 27.742188 C 44.449219 27.988281 45.09375 28.273438 45.726562 28.585938 Z M 41.59375 26.660156 C 41.054688 26.394531 40.535156 26.074219 40.050781 25.695312 C 40.027344 25.679688 40.007812 25.675781 39.980469 25.675781 C 39.605469 25.324219 39.214844 24.988281 38.792969 24.699219 C 38.792969 24.523438 38.84375 24.347656 38.949219 24.167969 C 39.15625 24.234375 39.355469 24.304688 39.558594 24.378906 C 40.425781 25.046875 41.316406 25.707031 42.226562 26.328125 C 42.046875 26.3125 41.921875 26.558594 42.105469 26.65625 C 42.203125 26.707031 42.300781 26.757812 42.398438 26.8125 C 42.378906 26.816406 42.355469 26.824219 42.332031 26.828125 C 42.085938 26.769531 41.839844 26.710938 41.59375 26.660156 Z M 41.6875 27.152344 C 41.671875 27.164062 41.660156 27.171875 41.640625 27.183594 C 41.613281 27.207031 41.589844 27.230469 41.5625 27.257812 C 41.503906 27.203125 41.445312 27.144531 41.386719 27.085938 C 41.492188 27.109375 41.589844 27.132812 41.6875 27.152344 Z M 41.578125 25.269531 C 41.699219 25.332031 41.816406 25.398438 41.9375 25.464844 C 42.609375 25.902344 43.277344 26.355469 43.949219 26.804688 C 43.882812 26.78125 43.8125 26.757812 43.746094 26.734375 C 43.1875 26.363281 42.632812 26 42.082031 25.621094 C 41.914062 25.503906 41.75 25.386719 41.578125 25.269531 Z M 43.144531 25.292969 C 42.949219 25.105469 42.75 24.914062 42.550781 24.726562 C 41.722656 23.953125 40.878906 23.171875 39.992188 22.445312 C 41.535156 23.234375 42.917969 24.574219 44.089844 26.058594 C 43.785156 25.789062 43.46875 25.535156 43.144531 25.292969 Z M 40.742188 23.726562 C 40.578125 23.746094 40.46875 23.96875 40.578125 24.105469 C 40.460938 24.046875 40.351562 23.996094 40.234375 23.941406 C 40.210938 23.914062 40.183594 23.886719 40.152344 23.867188 C 39.488281 23.363281 38.804688 23.003906 38.113281 22.773438 C 37.917969 22.632812 37.726562 22.488281 37.53125 22.347656 C 37.394531 22.25 37.226562 22.425781 37.277344 22.554688 C 36.726562 22.453125 36.183594 22.425781 35.644531 22.460938 C 35.15625 22.429688 34.65625 22.535156 34.179688 22.734375 C 31.394531 23.566406 29.09375 26.121094 28.554688 29.050781 C 28.554688 28.960938 28.550781 28.875 28.550781 28.785156 C 28.714844 24.296875 33.191406 21.53125 37.367188 21.710938 C 37.789062 21.726562 38.203125 21.792969 38.601562 21.902344 C 39.308594 22.523438 40.027344 23.121094 40.742188 23.726562 Z M 36.320312 23.589844 C 36.210938 23.597656 36.097656 23.613281 35.984375 23.625 L 36.042969 23.511719 C 36.210938 23.53125 36.378906 23.550781 36.550781 23.566406 C 36.785156 23.601562 37.027344 23.65625 37.257812 23.707031 C 37.679688 23.796875 38.105469 23.90625 38.519531 24.027344 C 38.53125 24.03125 38.546875 24.035156 38.558594 24.039062 C 38.46875 24.164062 38.410156 24.292969 38.378906 24.425781 C 38.058594 24.238281 37.726562 24.078125 37.367188 23.960938 C 37.074219 23.859375 36.761719 23.792969 36.445312 23.761719 C 36.472656 23.6875 36.429688 23.582031 36.320312 23.589844 Z M 31.886719 25.484375 C 32.125 25.007812 32.421875 24.570312 32.773438 24.195312 C 33.421875 23.867188 34.101562 23.660156 34.800781 23.570312 C 34.945312 23.597656 35.09375 23.644531 35.242188 23.699219 C 35.269531 23.710938 35.292969 23.714844 35.316406 23.710938 C 35.304688 23.722656 35.300781 23.734375 35.296875 23.75 C 34.078125 24.035156 32.867188 24.648438 31.886719 25.484375 Z M 33.078125 25.113281 C 32.90625 25.371094 32.78125 25.664062 32.714844 26 C 32.167969 26.375 31.703125 26.832031 31.308594 27.351562 C 31.371094 27.015625 31.449219 26.6875 31.542969 26.359375 C 31.550781 26.328125 31.558594 26.296875 31.574219 26.265625 C 32.03125 25.785156 32.535156 25.417969 33.078125 25.113281 Z M 32.910156 26.789062 C 33.097656 26.871094 33.339844 26.847656 33.445312 26.632812 C 34.460938 24.515625 35.855469 24.46875 37.269531 25.207031 C 37.074219 25.308594 36.875 25.421875 36.675781 25.535156 C 36.445312 25.613281 36.242188 25.738281 36.0625 25.902344 C 34.308594 26.996094 32.628906 28.511719 32.371094 30.589844 C 32.25 31.554688 32.457031 32.601562 32.972656 33.417969 C 32.121094 33.632812 31.453125 32.488281 31.132812 31.628906 C 31.078125 31.222656 31.0625 30.804688 31.070312 30.382812 C 31.246094 29.054688 31.863281 27.796875 32.910156 26.789062 Z M 31.835938 33.644531 C 31.734375 33.488281 31.644531 33.332031 31.566406 33.167969 C 32.019531 33.59375 32.597656 33.859375 33.152344 33.671875 C 33.5 34.125 33.957031 34.488281 34.511719 34.683594 C 33.582031 34.773438 32.640625 34.652344 31.71875 34.238281 C 31.53125 33.859375 31.386719 33.472656 31.269531 33.078125 C 31.375 33.3125 31.5 33.535156 31.65625 33.746094 C 31.726562 33.859375 31.90625 33.757812 31.835938 33.644531 Z M 34.460938 34.308594 C 34.085938 34.109375 33.773438 33.820312 33.523438 33.476562 C 33.539062 33.46875 33.550781 33.457031 33.5625 33.445312 C 33.699219 33.339844 33.519531 33.101562 33.382812 33.203125 C 33.371094 33.207031 33.367188 33.214844 33.359375 33.21875 C 32.816406 32.296875 32.675781 31.078125 32.980469 30.070312 C 33.355469 28.828125 34.242188 27.882812 35.261719 27.082031 C 34.996094 27.679688 34.820312 28.324219 34.691406 28.820312 C 34.226562 30.609375 34.117188 32.496094 34.460938 34.308594 Z M 34.949219 30.011719 C 35.175781 28.761719 35.667969 25.945312 37.300781 25.941406 C 37.542969 25.941406 37.597656 25.675781 37.472656 25.53125 C 37.53125 25.492188 37.585938 25.453125 37.644531 25.417969 C 37.753906 25.484375 37.859375 25.550781 37.964844 25.625 C 36.722656 26.425781 36.117188 28.289062 35.96875 29.65625 C 35.808594 31.171875 36.160156 32.722656 37.042969 33.960938 C 36.457031 34.234375 35.84375 34.449219 35.226562 34.578125 C 35.105469 34.554688 34.996094 34.527344 34.882812 34.492188 C 34.710938 33 34.679688 31.496094 34.949219 30.011719 Z M 37.96875 30.472656 C 38.019531 29.839844 38.105469 29.210938 38.21875 28.589844 C 38.28125 28.269531 38.347656 27.945312 38.429688 27.628906 L 38.507812 27.3125 C 38.5625 26.890625 38.882812 26.730469 39.464844 26.84375 C 39.472656 26.894531 39.519531 26.929688 39.574219 26.933594 C 40.050781 27.371094 40.503906 27.8125 40.925781 28.214844 C 40.691406 28.855469 40.660156 29.59375 40.644531 30.25 C 40.636719 30.554688 41.101562 30.550781 41.113281 30.25 C 41.128906 29.710938 41.136719 29.105469 41.296875 28.5625 C 41.515625 28.761719 41.726562 28.949219 41.914062 29.101562 C 42.523438 29.585938 43.1875 29.972656 43.886719 30.226562 C 41.917969 31.019531 40.050781 32.210938 38.332031 33.269531 C 38.21875 33.339844 38.105469 33.40625 37.992188 33.472656 C 37.90625 32.472656 37.894531 31.476562 37.96875 30.472656 Z M 50.546875 64.367188 C 50.617188 64.351562 50.671875 64.316406 50.710938 64.253906 C 50.925781 64.074219 51.023438 63.765625 50.957031 63.496094 C 51.234375 63.335938 51.511719 63.167969 51.789062 63.003906 C 51.480469 65.730469 51.527344 68.550781 51.542969 71.285156 C 51.550781 74.046875 51.648438 76.8125 51.832031 79.566406 C 51.839844 79.703125 51.855469 79.839844 51.863281 79.984375 C 51.355469 75.519531 50.855469 71.054688 50.332031 66.589844 C 50.46875 66.628906 50.640625 66.550781 50.632812 66.375 C 50.601562 65.707031 50.574219 65.035156 50.546875 64.367188 Z M 51.332031 61.601562 C 51.195312 61.726562 51.054688 61.847656 50.917969 61.972656 C 50.859375 61.898438 50.765625 61.847656 50.671875 61.84375 C 50.632812 60.960938 50.578125 60.085938 50.507812 59.203125 C 50.515625 59.179688 50.527344 59.164062 50.53125 59.136719 C 50.589844 58.792969 50.628906 58.445312 50.652344 58.105469 C 50.761719 59.128906 50.90625 60.152344 51.136719 61.132812 C 51.167969 61.265625 51.386719 61.238281 51.378906 61.101562 C 51.257812 59.261719 50.914062 57.421875 50.726562 55.585938 C 50.566406 54.035156 50.535156 52.453125 50.347656 50.902344 C 50.730469 50.65625 51.113281 50.40625 51.496094 50.164062 C 51.710938 51.785156 51.921875 53.40625 52.121094 55.03125 C 52.234375 55.929688 52.339844 56.828125 52.4375 57.722656 C 52.523438 58.503906 52.503906 59.363281 52.78125 60.097656 C 52.804688 60.15625 52.902344 60.175781 52.914062 60.097656 C 53.046875 59.273438 52.835938 58.378906 52.742188 57.554688 C 52.632812 56.601562 52.519531 55.648438 52.398438 54.695312 C 52.195312 53.132812 51.960938 51.582031 51.699219 50.03125 C 52.003906 49.835938 52.308594 49.636719 52.613281 49.441406 C 52.84375 50.976562 53.070312 52.511719 53.304688 54.042969 C 53.566406 55.714844 53.703125 57.492188 54.136719 59.136719 C 53.828125 59.398438 53.519531 59.660156 53.21875 59.929688 C 53.15625 59.925781 53.09375 59.953125 53.066406 60.023438 C 53.0625 60.039062 53.058594 60.054688 53.050781 60.070312 C 52.472656 60.574219 51.902344 61.085938 51.332031 61.601562 Z M 57.761719 57.085938 C 57.765625 57.101562 57.765625 57.113281 57.769531 57.125 C 57.605469 57.242188 57.441406 57.359375 57.277344 57.472656 C 57.441406 57.34375 57.601562 57.214844 57.761719 57.085938 Z M 57.414062 51.574219 C 57.207031 49.957031 57.042969 48.316406 56.773438 46.703125 C 57.378906 46.304688 57.980469 45.898438 58.585938 45.496094 C 59.054688 47.566406 59.445312 49.640625 59.699219 51.75 C 59.71875 51.90625 59.964844 51.914062 59.953125 51.75 C 59.789062 49.554688 59.472656 47.390625 58.9375 45.261719 C 59.519531 44.875 60.09375 44.484375 60.667969 44.09375 C 60.691406 45.546875 60.746094 47 60.820312 48.453125 C 60.828125 49.128906 60.859375 49.800781 60.925781 50.457031 C 60.984375 51.457031 61.035156 52.460938 61.089844 53.464844 C 60.046875 54.261719 59.019531 55.078125 58 55.902344 C 57.847656 54.457031 57.597656 53.003906 57.414062 51.574219 Z M 60.71875 54.746094 C 60.242188 55.175781 59.773438 55.605469 59.304688 56.046875 C 58.894531 56.332031 58.484375 56.621094 58.074219 56.914062 C 58.074219 56.890625 58.070312 56.863281 58.070312 56.839844 C 58.949219 56.132812 59.828125 55.433594 60.71875 54.746094 Z M 61.140625 56.757812 C 61.011719 58.957031 60.984375 61.167969 60.921875 63.367188 C 60.886719 64.6875 60.824219 66.015625 60.800781 67.339844 C 60.578125 69.230469 60.375 71.128906 60.179688 73.015625 C 60.179688 71.46875 60.148438 69.921875 60.125 68.394531 C 60.066406 65.042969 59.972656 61.675781 59.648438 58.339844 C 59.640625 58.308594 59.632812 58.28125 59.617188 58.261719 C 60.109375 57.742188 60.617188 57.242188 61.140625 56.757812 Z M 60.644531 42.988281 C 60.644531 42.84375 60.570312 42.699219 60.390625 42.609375 C 56.3125 40.632812 52.277344 38.464844 48.125 36.636719 C 48.21875 35.742188 48.378906 34.851562 48.597656 33.964844 C 50.449219 34.84375 52.328125 35.894531 54.269531 36.53125 C 54.410156 36.578125 54.492188 36.367188 54.367188 36.296875 C 52.605469 35.226562 50.566406 34.488281 48.675781 33.640625 C 48.816406 33.125 48.972656 32.613281 49.148438 32.097656 C 49.171875 32.085938 49.195312 32.074219 49.214844 32.058594 C 50.371094 33.191406 51.953125 34.121094 53.574219 34.1875 C 53.746094 34.199219 53.777344 33.933594 53.613281 33.890625 C 52.046875 33.46875 50.703125 32.96875 49.527344 31.886719 C 49.914062 31.667969 50.347656 31.429688 50.78125 31.175781 C 52.183594 31.765625 53.507812 32.476562 54.894531 33.136719 C 55.054688 33.214844 55.179688 33.003906 55.03125 32.898438 C 53.882812 32.074219 52.523438 31.457031 51.167969 30.941406 C 51.578125 30.6875 51.980469 30.414062 52.335938 30.125 C 52.347656 30.132812 52.359375 30.148438 52.371094 30.15625 C 52.304688 30.265625 52.320312 30.414062 52.476562 30.441406 C 52.585938 30.460938 52.6875 30.476562 52.789062 30.5 C 53.933594 31.410156 55.140625 32.179688 56.101562 33.382812 C 57.371094 34.980469 58.183594 36.804688 58.632812 38.796875 C 58.730469 39.238281 59.335938 39.378906 59.632812 39.058594 C 60.925781 37.695312 62.296875 36.425781 63.734375 35.246094 C 64.613281 35.828125 65.589844 36.265625 66.535156 36.722656 C 67.164062 37.03125 67.8125 37.492188 68.507812 37.496094 C 67.234375 38.425781 65.957031 39.347656 64.664062 40.253906 C 63.648438 40.964844 62.617188 41.664062 61.585938 42.359375 C 61.421875 42.28125 61.171875 42.371094 61.148438 42.613281 C 61.148438 42.628906 61.144531 42.644531 61.144531 42.660156 C 60.984375 42.761719 60.8125 42.878906 60.644531 42.988281 Z M 52.421875 24.894531 C 52.496094 24.714844 52.5625 24.539062 52.632812 24.359375 C 52.6875 24.484375 52.875 24.546875 52.949219 24.390625 C 52.996094 24.296875 53.039062 24.207031 53.082031 24.121094 C 53.101562 24.109375 53.121094 24.097656 53.132812 24.074219 C 53.199219 24.40625 53.289062 24.734375 53.40625 25.0625 C 53.074219 25.019531 52.75 24.960938 52.421875 24.894531 Z M 53.445312 28.847656 C 53.476562 28.78125 53.507812 28.71875 53.53125 28.652344 C 53.535156 28.664062 53.535156 28.671875 53.542969 28.6875 C 53.632812 28.828125 53.726562 28.972656 53.820312 29.109375 C 53.691406 29.078125 53.5625 29.046875 53.429688 29.019531 C 53.457031 28.960938 53.460938 28.90625 53.445312 28.847656 Z M 54.867188 28.496094 C 57.640625 29.457031 60.433594 30.617188 63.296875 31.292969 C 63.441406 31.328125 63.554688 31.105469 63.402344 31.035156 C 61.046875 29.988281 58.507812 29.269531 56.035156 28.492188 C 57.636719 28.746094 59.273438 28.882812 60.851562 29.074219 C 63.183594 29.359375 65.988281 29.320312 67.960938 30.757812 C 64.886719 32.664062 62.074219 34.898438 59.523438 37.460938 C 59.246094 36.539062 58.859375 35.566406 58.378906 34.621094 C 58.625 34.898438 58.886719 35.167969 59.152344 35.433594 C 59.257812 35.535156 59.460938 35.398438 59.367188 35.265625 C 58.664062 34.273438 57.855469 33.355469 57.035156 32.453125 C 56.585938 31.839844 56.085938 31.28125 55.546875 30.785156 C 55.441406 30.660156 55.328125 30.535156 55.222656 30.40625 C 56.242188 30.828125 57.222656 31.320312 58.214844 31.863281 C 58.277344 31.917969 58.347656 31.96875 58.410156 32.027344 C 59.339844 32.84375 60.125 33.789062 60.988281 34.671875 C 61.0625 34.746094 61.1875 34.648438 61.136719 34.558594 C 60.738281 33.894531 60.253906 33.28125 59.703125 32.710938 C 59.777344 32.75 59.84375 32.789062 59.914062 32.832031 C 60.222656 33.007812 60.578125 32.578125 60.300781 32.328125 C 59.015625 31.15625 57.339844 30.253906 55.59375 29.640625 C 55.511719 29.59375 55.425781 29.546875 55.347656 29.5 C 55.292969 29.46875 55.242188 29.480469 55.199219 29.507812 C 54.898438 29.410156 54.59375 29.316406 54.296875 29.234375 C 54.125 29.007812 53.960938 28.777344 53.804688 28.539062 C 53.746094 28.453125 53.648438 28.460938 53.585938 28.507812 C 53.636719 28.34375 53.667969 28.167969 53.664062 27.996094 C 54.023438 28.09375 54.390625 28.183594 54.757812 28.257812 C 54.722656 28.34375 54.75 28.453125 54.867188 28.496094 Z M 61.488281 56.429688 C 61.539062 56.382812 61.59375 56.332031 61.644531 56.285156 C 61.949219 56.058594 62.257812 55.824219 62.566406 55.597656 C 62.5625 55.707031 62.550781 55.808594 62.546875 55.914062 C 62.078125 58.257812 61.691406 60.625 61.359375 63 C 61.421875 60.816406 61.503906 58.625 61.488281 56.429688 Z M 53.492188 23.269531 C 53.582031 23.09375 53.671875 22.917969 53.761719 22.742188 C 53.722656 23.003906 53.675781 23.265625 53.636719 23.527344 C 53.582031 23.445312 53.535156 23.359375 53.492188 23.269531 Z M 53.597656 23.78125 C 53.578125 23.90625 53.554688 24.03125 53.539062 24.152344 C 53.507812 24.007812 53.476562 23.867188 53.453125 23.722656 C 53.453125 23.722656 53.453125 23.726562 53.457031 23.726562 C 53.488281 23.78125 53.546875 23.792969 53.597656 23.78125 Z M 53.773438 25.070312 C 53.957031 23.933594 54.144531 22.796875 54.328125 21.65625 C 54.355469 21.601562 54.386719 21.546875 54.417969 21.496094 C 54.429688 22.71875 54.441406 23.945312 54.457031 25.171875 C 54.222656 25.15625 53.992188 25.136719 53.761719 25.109375 C 53.765625 25.09375 53.769531 25.085938 53.773438 25.070312 Z M 53.984375 21.367188 C 53.800781 21.738281 53.617188 22.113281 53.441406 22.488281 C 53.445312 22.425781 53.449219 22.359375 53.449219 22.296875 C 53.605469 21.949219 53.785156 21.609375 53.996094 21.277344 C 53.992188 21.304688 53.988281 21.335938 53.984375 21.367188 Z M 56.914062 18.179688 C 56.691406 18.613281 56.472656 19.042969 56.25 19.476562 C 56.144531 19.6875 56.332031 19.941406 56.527344 19.941406 C 56.523438 19.949219 56.523438 19.957031 56.519531 19.96875 C 56.441406 20.167969 56.648438 20.351562 56.839844 20.332031 C 56.757812 21.507812 56.625 22.679688 56.429688 23.847656 C 56.082031 22.273438 55.910156 20.679688 55.902344 19.066406 C 56.234375 18.746094 56.578125 18.433594 56.921875 18.121094 C 56.914062 18.144531 56.914062 18.164062 56.914062 18.179688 Z M 57.199219 22.03125 L 57.386719 25.007812 C 57.386719 25.011719 57.386719 25.019531 57.390625 25.023438 C 57.167969 25.0625 56.941406 25.09375 56.714844 25.121094 C 56.921875 24.097656 57.082031 23.0625 57.199219 22.03125 Z M 56.21875 25.140625 C 56.226562 25.152344 56.230469 25.15625 56.234375 25.171875 C 55.851562 25.199219 55.46875 25.207031 55.078125 25.203125 C 55.3125 24.238281 55.5 23.269531 55.632812 22.289062 C 55.769531 23.246094 55.960938 24.195312 56.21875 25.140625 Z M 54.882812 23.847656 C 54.863281 22.820312 54.839844 21.785156 54.816406 20.753906 C 55 20.425781 55.183594 20.097656 55.371094 19.769531 C 55.296875 21.140625 55.136719 22.496094 54.882812 23.847656 Z M 58.875 18.238281 C 58.859375 17.914062 58.835938 17.585938 58.816406 17.261719 C 59.007812 17.011719 59.195312 16.753906 59.375 16.496094 C 59.351562 16.96875 59.324219 17.4375 59.300781 17.910156 C 59.160156 18.019531 59.019531 18.125 58.875 18.238281 Z M 59.253906 18.691406 C 59.195312 19.507812 59.128906 20.320312 59.054688 21.128906 C 59.007812 20.398438 58.964844 19.667969 58.921875 18.9375 C 59.03125 18.859375 59.144531 18.773438 59.253906 18.691406 Z M 59.246094 24.3125 C 59.492188 22.414062 59.671875 20.515625 59.804688 18.609375 C 59.96875 20.421875 60.132812 22.234375 60.296875 24.046875 C 59.542969 24.441406 58.75 24.726562 57.929688 24.917969 C 58.097656 23.242188 58.261719 21.566406 58.425781 19.890625 C 58.515625 21.367188 58.605469 22.835938 58.695312 24.3125 C 58.71875 24.667969 59.203125 24.648438 59.246094 24.3125 Z M 61.617188 14.9375 C 61.347656 14.945312 61.082031 14.964844 60.8125 14.988281 C 60.71875 14.847656 60.507812 14.871094 60.457031 15.039062 C 60.421875 15.042969 60.390625 15.046875 60.355469 15.050781 C 60.773438 14.679688 61.191406 14.304688 61.605469 13.929688 C 61.597656 14.269531 61.601562 14.601562 61.617188 14.9375 Z M 61.652344 16.675781 C 61.652344 17.035156 61.648438 17.394531 61.648438 17.757812 C 61.582031 17.460938 61.507812 17.171875 61.429688 16.878906 C 61.503906 16.808594 61.574219 16.742188 61.652344 16.675781 Z M 61.246094 16.242188 C 61.214844 16.140625 61.183594 16.03125 61.148438 15.929688 C 61.300781 15.917969 61.457031 15.90625 61.613281 15.898438 C 61.492188 16.015625 61.371094 16.128906 61.246094 16.242188 Z M 60.875 16.582031 C 60.84375 16.605469 60.8125 16.636719 60.78125 16.664062 C 60.789062 16.535156 60.792969 16.402344 60.796875 16.273438 C 60.824219 16.375 60.851562 16.476562 60.875 16.582031 Z M 60.394531 16.011719 C 60.378906 16.359375 60.359375 16.707031 60.347656 17.054688 C 60.300781 17.089844 60.261719 17.128906 60.21875 17.164062 C 60.179688 16.792969 60.148438 16.425781 60.113281 16.054688 C 60.203125 16.03125 60.296875 16.019531 60.394531 16.011719 Z M 57.984375 18.894531 C 57.84375 18.996094 57.695312 19.09375 57.554688 19.195312 C 57.546875 19.113281 57.542969 19.03125 57.535156 18.945312 C 57.5625 18.882812 57.582031 18.816406 57.605469 18.753906 C 57.753906 18.578125 57.898438 18.402344 58.046875 18.226562 C 58.03125 18.441406 58.007812 18.671875 57.984375 18.894531 Z M 57.910156 19.660156 C 57.84375 20.335938 57.777344 21.007812 57.714844 21.6875 C 57.671875 21.082031 57.636719 20.480469 57.597656 19.875 C 57.699219 19.804688 57.808594 19.730469 57.910156 19.660156 Z M 64.8125 12.359375 C 64.773438 12.398438 64.738281 12.4375 64.703125 12.472656 C 64.695312 12.40625 64.6875 12.34375 64.671875 12.277344 C 64.722656 12.304688 64.761719 12.335938 64.8125 12.359375 Z M 64.757812 18.042969 C 64.953125 16.636719 64.992188 15.242188 64.875 13.847656 C 65.101562 13.984375 65.386719 13.664062 65.179688 13.441406 C 65.085938 13.339844 65.007812 13.238281 64.9375 13.136719 C 65.039062 13.007812 65.144531 12.878906 65.242188 12.746094 C 65.242188 12.746094 65.242188 12.738281 65.246094 12.738281 C 65.578125 13.125 65.714844 13.613281 65.65625 14.21875 C 65.730469 15.1875 65.652344 16.15625 65.449219 17.101562 C 65.039062 19 64.121094 20.792969 62.769531 22.195312 C 62.167969 22.820312 61.519531 23.335938 60.832031 23.75 C 60.746094 21.652344 60.710938 19.5625 60.757812 17.46875 C 60.851562 17.386719 60.945312 17.308594 61.03125 17.226562 C 61.375 18.675781 61.585938 20.144531 61.644531 21.636719 C 61.65625 21.972656 62.164062 21.976562 62.164062 21.636719 C 62.167969 20.570312 62.167969 19.5 62.167969 18.433594 C 62.320312 18.976562 62.503906 19.511719 62.722656 20.039062 C 62.824219 20.285156 63.214844 20.273438 63.214844 19.972656 C 63.214844 18.613281 63.210938 17.253906 63.210938 15.898438 C 63.472656 16.664062 63.828125 17.40625 64.273438 18.105469 C 64.378906 18.277344 64.722656 18.289062 64.757812 18.042969 Z M 62.691406 14.65625 C 62.691406 14.710938 62.691406 14.765625 62.691406 14.820312 C 62.644531 14.867188 62.605469 14.910156 62.566406 14.953125 C 62.429688 14.945312 62.296875 14.9375 62.160156 14.9375 L 62.160156 14.882812 C 62.332031 14.816406 62.511719 14.742188 62.691406 14.65625 Z M 62.421875 14.210938 C 62.484375 14.003906 62.574219 13.8125 62.691406 13.644531 C 62.691406 13.785156 62.691406 13.929688 62.691406 14.070312 C 62.601562 14.121094 62.511719 14.164062 62.421875 14.210938 Z M 62.695312 15.851562 C 62.699219 16.730469 62.703125 17.609375 62.703125 18.492188 C 62.472656 17.71875 62.3125 16.933594 62.207031 16.136719 C 62.300781 16.042969 62.402344 15.949219 62.492188 15.855469 C 62.566406 15.859375 62.632812 15.855469 62.695312 15.851562 Z M 63.339844 13.417969 C 63.332031 13.429688 63.328125 13.449219 63.316406 13.460938 C 63.296875 13.5 63.265625 13.542969 63.238281 13.582031 C 63.234375 13.527344 63.230469 13.46875 63.226562 13.417969 C 63.265625 13.417969 63.304688 13.417969 63.339844 13.417969 Z M 63.28125 13.078125 C 63.339844 13.042969 63.398438 13.011719 63.457031 12.980469 C 63.457031 13.015625 63.453125 13.054688 63.441406 13.09375 C 63.394531 13.085938 63.335938 13.082031 63.28125 13.078125 Z M 64.167969 12.800781 C 64.1875 12.851562 64.203125 12.898438 64.226562 12.945312 C 64.230469 12.960938 64.230469 12.984375 64.234375 13.003906 C 64.214844 13.03125 64.191406 13.054688 64.171875 13.082031 C 64.167969 12.992188 64.167969 12.894531 64.167969 12.800781 Z M 64.328125 13.871094 C 64.429688 14.957031 64.433594 16.050781 64.324219 17.140625 C 64.09375 16.707031 63.894531 16.253906 63.734375 15.792969 C 64.085938 15.726562 64.199219 15.152344 63.785156 15.082031 C 63.722656 15.074219 63.660156 15.066406 63.597656 15.058594 C 63.695312 14.890625 63.777344 14.722656 63.851562 14.554688 C 63.941406 14.398438 64.039062 14.25 64.136719 14.101562 C 64.199219 14.023438 64.265625 13.949219 64.328125 13.871094 Z M 63.828125 12.035156 C 63.867188 12.019531 63.90625 12 63.949219 11.988281 C 63.964844 11.992188 63.976562 11.996094 63.992188 12 C 63.996094 12.105469 64.011719 12.210938 64.03125 12.3125 C 63.976562 12.273438 63.90625 12.253906 63.828125 12.269531 C 63.800781 12.214844 63.769531 12.164062 63.734375 12.121094 C 63.765625 12.089844 63.796875 12.0625 63.828125 12.035156 Z M 44.109375 6.480469 C 44.1875 5.402344 44.34375 4.054688 45.117188 3.222656 C 46.378906 1.871094 48.375 2.597656 49.839844 3.125 C 52.410156 4.050781 54.964844 5.019531 57.53125 5.957031 C 58.683594 6.382812 59.839844 6.800781 60.996094 7.214844 C 62.488281 7.75 64.664062 8.144531 63.175781 10.261719 C 62.933594 10.601562 62.625 10.925781 62.285156 11.238281 C 61.953125 11.433594 61.636719 11.65625 61.351562 11.890625 C 61.238281 11.988281 61.171875 12.09375 61.136719 12.207031 C 60.789062 12.480469 60.449219 12.753906 60.160156 13.019531 L 58.191406 14.8125 C 58.113281 14.761719 58.019531 14.757812 57.953125 14.84375 C 57.792969 15.042969 57.636719 15.25 57.484375 15.453125 L 57.367188 15.558594 C 55.117188 17.605469 50.925781 20.832031 51.304688 24.347656 C 51.222656 24.359375 51.136719 24.386719 51.074219 24.457031 C 50.964844 24.578125 50.902344 24.722656 50.863281 24.871094 C 50.855469 24.882812 50.851562 24.894531 50.84375 24.902344 C 50.453125 24.703125 50.050781 24.523438 49.628906 24.375 C 50.238281 20.3125 51.675781 16.890625 53.351562 13.171875 C 53.511719 12.816406 53.042969 12.34375 52.753906 12.714844 C 50.273438 15.882812 49.058594 20.136719 48.726562 24.105469 C 48.167969 23.972656 47.601562 23.890625 47.050781 23.878906 C 47.289062 22.003906 47.40625 20.132812 47.820312 18.273438 C 48.289062 16.191406 49.144531 14.285156 49.753906 12.257812 C 49.90625 11.757812 49.191406 11.46875 48.921875 11.90625 C 46.992188 15.078125 45.90625 19.851562 46.128906 23.683594 C 46.074219 23.628906 45.980469 23.59375 45.914062 23.621094 C 45.820312 23.660156 45.742188 23.714844 45.660156 23.773438 C 45.625 23.695312 45.59375 23.617188 45.5625 23.535156 C 45.800781 23.378906 45.832031 22.988281 45.488281 22.902344 C 45.40625 22.886719 45.335938 22.8125 45.269531 22.714844 C 45.253906 22.695312 45.242188 22.675781 45.234375 22.652344 C 45.222656 22.625 45.210938 22.609375 45.191406 22.585938 C 44.703125 21.617188 44.601562 18.714844 44.546875 18.1875 C 44.421875 16.953125 44.328125 15.714844 44.253906 14.480469 C 44.320312 14.308594 44.304688 14.101562 44.21875 13.933594 C 44.089844 11.464844 43.9375 8.9375 44.109375 6.480469 Z M 33.113281 15.613281 C 34.664062 14.449219 36.207031 13.269531 37.746094 12.09375 C 37.726562 12.179688 37.746094 12.273438 37.835938 12.347656 C 38.222656 12.675781 38.632812 12.980469 39.0625 13.246094 C 40.207031 14.109375 41.546875 14.640625 43.019531 14.78125 C 43.125 15.921875 43.25 17.054688 43.386719 18.179688 C 43.539062 19.421875 43.363281 22.921875 44.820312 23.507812 C 44.871094 23.75 44.949219 23.984375 45.035156 24.214844 C 44.875 24.277344 44.71875 24.347656 44.574219 24.429688 C 44.496094 24.476562 44.441406 24.535156 44.394531 24.597656 C 43.878906 23.960938 43.320312 23.363281 42.722656 22.832031 C 41.980469 21.347656 40.796875 20.183594 39.246094 19.402344 C 36.996094 18.261719 34.984375 18.4375 32.589844 18.867188 C 31.4375 19.070312 30.410156 19.167969 29.367188 18.753906 C 29.367188 18.671875 29.320312 18.589844 29.234375 18.578125 C 29.128906 18.558594 29.019531 18.546875 28.90625 18.53125 C 30.449219 17.828125 31.765625 16.625 33.113281 15.613281 Z M 17.960938 20.734375 C 18.855469 18.71875 20.082031 16.945312 22.589844 17.128906 C 24.109375 17.238281 25.449219 18.007812 26.734375 18.800781 C 23.480469 19.730469 19.683594 22.820312 20.96875 25.824219 C 21.132812 26.210938 21.789062 26.101562 21.863281 25.710938 C 22.234375 23.773438 22.90625 22.550781 24.484375 21.320312 C 25.554688 20.484375 26.769531 20.066406 27.96875 19.558594 C 28.597656 19.929688 29.21875 20.257812 29.9375 20.394531 C 27.246094 21.191406 24.847656 23.714844 24.144531 26.34375 C 24.074219 26.613281 24.46875 26.796875 24.613281 26.539062 C 25.347656 25.15625 26.125 23.84375 27.28125 22.769531 C 28.347656 21.785156 29.621094 21.121094 30.894531 20.453125 C 32.417969 20.390625 33.847656 19.667969 35.382812 19.628906 C 36.980469 19.589844 38.460938 20.085938 39.726562 20.9375 C 39.191406 20.734375 38.640625 20.589844 38.070312 20.523438 C 33.710938 20.019531 28.75 22.476562 27.539062 26.898438 C 26.578125 30.425781 28.109375 34.15625 31.308594 35.601562 C 31.324219 35.609375 31.335938 35.613281 31.355469 35.625 C 31.871094 35.851562 32.421875 36.027344 33.023438 36.128906 C 34.964844 36.449219 36.699219 35.972656 38.359375 35.117188 C 36.636719 36.507812 34.871094 37.820312 32.789062 38.609375 C 32.285156 38.800781 31.769531 38.957031 31.246094 39.085938 C 27.703125 38.8125 24.660156 38.242188 22.222656 35.3125 C 22.105469 35.164062 21.847656 35.320312 21.90625 35.496094 C 22.695312 37.816406 24.71875 38.917969 26.980469 39.429688 C 22.285156 39.058594 17.929688 36.238281 16.636719 31.285156 C 15.722656 27.789062 16.519531 23.976562 17.960938 20.734375 Z M 8.574219 32.082031 C 10.632812 30.757812 12.855469 29.476562 14.785156 27.929688 C 14.746094 30.425781 15.277344 32.886719 16.566406 35.003906 C 17.101562 35.886719 17.734375 36.679688 18.445312 37.378906 C 18 37.59375 17.574219 37.875 17.160156 38.078125 C 16.574219 38.367188 15.980469 38.644531 15.394531 38.921875 C 15.183594 38.636719 14.691406 38.582031 14.515625 38.910156 C 10.625 37.664062 6.695312 36.523438 2.746094 35.695312 C 4.785156 34.714844 6.722656 33.269531 8.574219 32.082031 Z M 1.652344 47.488281 C 1.605469 47.476562 1.554688 47.472656 1.507812 47.476562 C 1.117188 46.605469 1.40625 45.132812 1.433594 44.277344 C 1.464844 43.34375 1.496094 42.414062 1.515625 41.484375 C 1.550781 39.730469 1.675781 37.945312 1.582031 36.191406 C 1.628906 36.171875 1.683594 36.148438 1.734375 36.128906 C 5.835938 37.65625 10.046875 38.949219 14.257812 40.226562 C 13.9375 42.222656 13.710938 44.222656 13.667969 46.25 C 13.632812 47.980469 13.527344 49.960938 14.003906 51.683594 C 12.433594 51.101562 10.863281 50.53125 9.289062 49.980469 C 9.273438 49.894531 9.257812 49.808594 9.242188 49.722656 C 9.199219 49.519531 8.925781 49.585938 8.90625 49.765625 C 8.90625 49.792969 8.902344 49.820312 8.902344 49.839844 C 6.5 49.011719 4.085938 48.214844 1.652344 47.488281 Z M 13.214844 53.003906 C 13.175781 54.230469 13.136719 55.457031 13.097656 56.679688 C 12.945312 55.398438 12.820312 54.109375 12.714844 52.816406 C 12.882812 52.882812 13.046875 52.941406 13.214844 53.003906 Z M 12.222656 52.640625 C 12.167969 54.226562 12.109375 55.808594 12.058594 57.394531 C 11.84375 55.652344 11.519531 53.921875 11.089844 52.214844 C 11.46875 52.359375 11.84375 52.5 12.222656 52.640625 Z M 10.433594 51.972656 C 10.320312 53.34375 10.199219 54.71875 10.082031 56.09375 C 9.984375 54.605469 9.816406 53.121094 9.582031 51.644531 C 9.867188 51.757812 10.152344 51.863281 10.433594 51.972656 Z M 8.789062 51.339844 C 8.640625 53.238281 8.488281 55.136719 8.335938 57.027344 C 8.113281 54.984375 7.890625 52.941406 7.664062 50.898438 C 8.039062 51.050781 8.414062 51.195312 8.789062 51.339844 Z M 7 54.933594 C 6.90625 55.636719 6.800781 56.34375 6.671875 57.042969 C 6.425781 55.816406 6.269531 54.585938 6.203125 53.34375 C 6.230469 52.371094 6.234375 51.398438 6.203125 50.421875 C 6.199219 50.242188 5.933594 50.242188 5.925781 50.421875 C 5.867188 51.449219 5.867188 52.476562 5.929688 53.5 C 5.886719 54.90625 5.773438 56.3125 5.601562 57.714844 C 5.507812 56.421875 5.410156 55.136719 5.296875 53.84375 C 5.292969 53.792969 5.269531 53.757812 5.246094 53.730469 C 5.214844 53.289062 5.1875 52.855469 5.15625 52.414062 C 5.132812 52.054688 4.796875 49.894531 5.621094 50.15625 C 5.675781 50.175781 5.714844 50.15625 5.746094 50.132812 C 6.277344 50.34375 6.808594 50.554688 7.339844 50.765625 C 7.320312 51.417969 7.285156 52.070312 7.230469 52.722656 C 7.222656 52.628906 7.21875 52.53125 7.214844 52.4375 C 7.199219 52.222656 6.855469 52.214844 6.867188 52.4375 C 6.90625 53.277344 6.949219 54.105469 7 54.933594 Z M 6.121094 85.507812 C 6.324219 85.535156 6.519531 85.5625 6.71875 85.59375 C 8.300781 86.554688 10.050781 87.238281 11.839844 87.847656 C 11.980469 87.898438 12.125 87.945312 12.265625 87.996094 C 12.285156 88.015625 12.300781 88.035156 12.320312 88.058594 C 10.152344 87.460938 8.023438 86.695312 6.121094 85.507812 Z M 14.570312 87.628906 C 12.042969 86.832031 9.472656 86.074219 7.15625 84.839844 C 6.910156 84.667969 6.652344 84.519531 6.386719 84.40625 C 5.828125 84.074219 5.285156 83.703125 4.765625 83.296875 C 4.9375 83.316406 5.105469 83.222656 5.097656 82.996094 C 5.027344 80.886719 4.953125 78.785156 4.882812 76.675781 C 4.953125 72.960938 4.917969 69.238281 4.929688 65.535156 C 4.9375 60.328125 5.222656 54.851562 4.558594 49.664062 C 4.765625 49.753906 4.980469 49.835938 5.191406 49.921875 C 4.519531 50.304688 4.851562 52.34375 4.878906 52.769531 C 4.921875 53.496094 4.972656 54.21875 5.019531 54.941406 C 5.21875 58.507812 5.488281 62.066406 5.730469 65.628906 C 5.988281 69.425781 6.027344 73.328125 6.59375 77.09375 C 6.617188 77.234375 6.835938 77.195312 6.839844 77.0625 C 6.867188 75.136719 6.65625 73.179688 6.523438 71.257812 C 6.390625 69.324219 6.253906 67.390625 6.121094 65.457031 C 5.976562 63.328125 5.835938 61.195312 5.691406 59.058594 C 5.871094 57.835938 6.011719 56.605469 6.09375 55.375 C 6.203125 56.199219 6.34375 57.019531 6.527344 57.839844 C 6.558594 57.976562 6.78125 57.980469 6.808594 57.839844 C 6.90625 57.363281 6.992188 56.882812 7.070312 56.398438 C 7.183594 58.378906 7.292969 60.355469 7.414062 62.335938 C 7.507812 63.925781 7.609375 65.511719 7.707031 67.101562 C 7.804688 68.675781 7.753906 70.367188 8.085938 71.910156 C 8.128906 72.09375 8.375 72.03125 8.390625 71.871094 C 8.527344 70.316406 8.269531 68.65625 8.171875 67.101562 C 8.070312 65.457031 7.964844 63.808594 7.859375 62.164062 C 7.695312 59.609375 7.519531 57.054688 7.34375 54.503906 C 7.421875 53.832031 7.484375 53.167969 7.535156 52.496094 C 7.757812 54.554688 7.980469 56.617188 8.199219 58.675781 C 8.21875 58.875 8.492188 58.878906 8.503906 58.675781 C 8.703125 56.277344 8.902344 53.878906 9.101562 51.476562 C 9.136719 51.488281 9.167969 51.503906 9.207031 51.515625 C 9.503906 53.402344 9.695312 55.304688 9.78125 57.210938 C 9.660156 56.199219 9.535156 55.1875 9.421875 54.179688 C 9.398438 53.953125 9.035156 53.949219 9.0625 54.179688 C 9.386719 57.1875 9.601562 60.257812 10.109375 63.238281 C 10.132812 63.367188 10.347656 63.34375 10.339844 63.207031 C 10.277344 61.894531 10.160156 60.570312 10.011719 59.25 C 10.097656 59.242188 10.175781 59.1875 10.183594 59.078125 C 10.378906 56.886719 10.570312 54.695312 10.753906 52.496094 C 11.414062 55.1875 11.808594 57.933594 11.925781 60.703125 C 11.941406 60.957031 12.316406 60.960938 12.324219 60.703125 L 12.519531 55.535156 C 12.652344 56.828125 12.8125 58.121094 13.003906 59.40625 C 13.042969 59.660156 13.429688 59.585938 13.4375 59.351562 C 13.476562 58.257812 13.515625 57.167969 13.554688 56.074219 C 13.652344 57.007812 13.75 57.9375 13.847656 58.863281 C 13.871094 59.082031 14.167969 59.207031 14.289062 58.984375 C 14.601562 58.421875 14.679688 57.882812 14.570312 57.253906 C 14.53125 57.019531 14.246094 57.046875 14.140625 57.207031 C 14 55.875 13.851562 54.542969 13.710938 53.207031 C 13.859375 53.261719 14.011719 53.316406 14.167969 53.375 C 14.414062 55.269531 14.566406 57.230469 15.011719 59.074219 C 15.046875 59.214844 15.234375 59.226562 15.3125 59.132812 C 15.332031 59.230469 15.355469 59.324219 15.371094 59.421875 C 15.472656 59.941406 15.578125 60.46875 15.679688 60.988281 C 15.71875 61.207031 16.050781 61.113281 16.007812 60.898438 C 15.617188 58.765625 15.371094 56.515625 14.769531 54.425781 C 14.710938 54.128906 14.660156 53.832031 14.601562 53.535156 C 14.707031 53.574219 14.816406 53.617188 14.921875 53.652344 C 15.164062 56.066406 15.675781 58.488281 16.003906 60.878906 C 16.480469 64.304688 16.894531 67.734375 17.253906 71.175781 C 17.863281 77.066406 18.394531 83.007812 18.5625 88.933594 C 17.238281 88.484375 15.90625 88.046875 14.570312 87.628906 Z M 26.304688 91.5 C 25.609375 91.261719 24.914062 91.027344 24.214844 90.792969 C 24.375 89.125 24.324219 87.40625 24.277344 85.746094 C 24.230469 83.792969 24.242188 81.722656 23.828125 79.804688 C 23.789062 79.613281 23.503906 79.664062 23.5 79.851562 C 23.453125 81.804688 23.730469 83.785156 23.789062 85.738281 C 23.835938 87.371094 23.765625 89.015625 23.816406 90.648438 C 22.410156 90.179688 21.007812 89.707031 19.601562 89.246094 C 19.195312 83.066406 18.84375 76.898438 18.175781 70.738281 C 17.855469 67.773438 17.488281 64.816406 17.078125 61.863281 C 16.722656 59.28125 16.464844 56.566406 15.898438 53.980469 C 16.324219 54.136719 16.753906 54.292969 17.183594 54.445312 C 17.34375 57.820312 17.910156 61.191406 18.347656 64.527344 C 18.625 66.640625 18.90625 68.75 19.179688 70.863281 C 19.453125 72.921875 19.652344 75.027344 20.105469 77.0625 C 20.136719 77.199219 20.359375 77.167969 20.351562 77.023438 C 20.253906 74.910156 19.890625 72.789062 19.609375 70.6875 C 19.328125 68.578125 19.042969 66.464844 18.761719 64.351562 C 18.332031 61.109375 17.78125 57.851562 17.5625 54.578125 C 17.824219 54.671875 18.085938 54.765625 18.34375 54.859375 C 18.375 54.984375 18.40625 55.113281 18.4375 55.238281 C 18.492188 55.449219 18.820312 55.363281 18.769531 55.144531 C 18.761719 55.09375 18.75 55.046875 18.738281 54.996094 C 18.839844 55.03125 18.9375 55.066406 19.035156 55.105469 C 19.71875 58.101562 20.375 61.078125 20.726562 64.140625 C 20.78125 64.613281 20.824219 65.078125 20.859375 65.550781 C 20.859375 65.6875 20.859375 65.820312 20.859375 65.953125 C 20.859375 65.988281 20.875 66.015625 20.898438 66.03125 C 21.050781 68.433594 21.035156 70.835938 21.222656 73.242188 C 21.230469 73.363281 21.429688 73.410156 21.449219 73.273438 C 21.863281 70.335938 21.566406 67.21875 21.222656 64.28125 C 21.347656 62.414062 21.367188 60.535156 21.460938 58.675781 C 21.472656 58.5 21.191406 58.5 21.183594 58.675781 C 21.125 59.890625 21.039062 61.105469 20.96875 62.324219 C 20.628906 59.945312 20.164062 57.5625 19.472656 55.269531 C 20.535156 55.65625 21.601562 56.039062 22.664062 56.425781 C 22.6875 56.441406 22.71875 56.453125 22.746094 56.457031 C 23.519531 56.742188 24.296875 57.023438 25.066406 57.308594 C 25 63.128906 25.8125 69.070312 26.246094 74.859375 C 26.671875 80.496094 26.847656 86.0625 26.886719 91.6875 C 26.679688 91.636719 26.492188 91.566406 26.304688 91.5 Z M 49.519531 99.375 C 48.664062 98.789062 47.648438 98.371094 46.722656 98.007812 C 45.503906 97.523438 44.25 97.167969 42.984375 96.847656 C 39.347656 95.519531 35.664062 94.320312 31.972656 93.195312 C 30.695312 92.800781 29.40625 92.433594 28.121094 92.070312 C 28.566406 86.25 27.871094 80.234375 27.382812 74.449219 C 26.910156 68.890625 26.765625 63.132812 25.855469 57.613281 C 25.992188 57.660156 26.132812 57.710938 26.269531 57.761719 C 26.292969 57.773438 26.320312 57.78125 26.339844 57.789062 C 26.109375 58.519531 26.398438 59.609375 26.464844 60.25 C 26.730469 62.722656 27.078125 65.238281 27.75 67.636719 C 27.796875 67.804688 28.078125 67.78125 28.066406 67.59375 C 28.042969 67.28125 28.015625 66.96875 27.984375 66.65625 C 27.980469 66.589844 27.917969 66.574219 27.878906 66.589844 C 27.625 65.300781 27.355469 64.019531 27.152344 62.71875 C 27.019531 61.839844 26.898438 60.957031 26.800781 60.074219 C 26.753906 59.683594 26.714844 59.289062 26.675781 58.894531 C 26.652344 58.695312 26.632812 58.496094 26.617188 58.289062 C 26.585938 58.132812 26.589844 58 26.621094 57.886719 C 27.574219 58.246094 28.535156 58.605469 29.488281 58.960938 C 29.601562 61.679688 30.132812 64.363281 31.179688 66.878906 C 31.257812 67.058594 31.558594 67.0625 31.546875 66.832031 C 31.429688 64.652344 31.367188 62.441406 31.441406 60.253906 C 32.042969 62.9375 32.476562 65.636719 32.957031 68.34375 C 33 68.570312 33.382812 68.519531 33.355469 68.292969 C 33.109375 66.070312 33.144531 63.804688 33.363281 61.578125 C 33.5 62.320312 33.648438 63.066406 33.792969 63.808594 C 34 64.882812 34.121094 66.046875 34.496094 67.074219 C 34.546875 67.222656 34.792969 67.214844 34.785156 67.035156 C 34.734375 65.976562 34.414062 64.90625 34.199219 63.867188 C 33.964844 62.722656 33.730469 61.578125 33.476562 60.433594 C 33.476562 60.421875 33.46875 60.417969 33.464844 60.410156 C 34.085938 60.628906 34.710938 60.84375 35.332031 61.050781 C 35.492188 63.496094 35.75 65.933594 36.078125 68.367188 C 36.078125 68.367188 36.078125 68.371094 36.078125 68.371094 C 36.082031 68.390625 36.082031 68.414062 36.085938 68.429688 C 36.117188 68.671875 36.535156 68.617188 36.511719 68.371094 C 36.359375 66.632812 36.371094 64.902344 36.554688 63.171875 C 37.0625 64.914062 37.570312 66.660156 38.078125 68.402344 C 38.148438 68.640625 38.464844 68.574219 38.488281 68.351562 C 38.492188 68.320312 38.492188 68.289062 38.496094 68.257812 C 38.609375 68.753906 38.714844 69.253906 38.824219 69.753906 C 38.875 69.972656 39.222656 69.921875 39.21875 69.699219 C 39.179688 67.960938 39.15625 66.226562 39.136719 64.492188 C 39.394531 66.632812 39.71875 68.796875 40.175781 70.871094 C 40.210938 71.03125 40.480469 71 40.464844 70.832031 C 40.332031 69.246094 40.105469 67.632812 39.835938 66.03125 L 40.585938 68.574219 C 40.59375 69.207031 40.597656 69.839844 40.609375 70.472656 C 40.609375 70.640625 40.867188 70.640625 40.867188 70.472656 C 40.871094 70.042969 40.875 69.617188 40.878906 69.183594 C 40.988281 69.195312 41.113281 69.121094 41.125 68.984375 C 41.304688 67.148438 41.476562 65.316406 41.65625 63.480469 C 41.789062 63.917969 41.914062 64.351562 42.039062 64.792969 C 42.019531 64.816406 42.003906 64.835938 41.988281 64.855469 C 41.832031 65.109375 41.957031 65.921875 41.953125 66.226562 C 41.949219 66.679688 41.945312 67.132812 41.945312 67.59375 C 41.945312 68.449219 41.960938 69.300781 41.992188 70.15625 C 42.113281 73.464844 42.269531 76.980469 43.039062 80.214844 C 43.070312 80.351562 43.308594 80.328125 43.292969 80.179688 C 43.09375 77.632812 42.644531 75.101562 42.460938 72.542969 C 42.371094 71.289062 42.304688 70.042969 42.265625 68.785156 C 42.246094 68.160156 42.226562 67.535156 42.214844 66.90625 C 42.210938 66.5625 42.207031 66.226562 42.207031 65.882812 C 42.207031 65.765625 42.207031 65.65625 42.207031 65.539062 C 42.183594 65.457031 42.175781 65.390625 42.179688 65.328125 C 42.539062 66.625 42.863281 67.9375 43.144531 69.25 C 43.183594 69.445312 43.492188 69.441406 43.535156 69.25 C 43.894531 67.65625 44.105469 66.042969 44.167969 64.421875 C 44.285156 64.984375 44.394531 65.550781 44.503906 66.121094 C 43.683594 68.882812 44.148438 72.078125 44.230469 74.871094 C 44.34375 78.824219 44.304688 82.828125 44.671875 86.769531 C 44.679688 86.890625 44.855469 86.890625 44.859375 86.769531 C 44.984375 83.042969 44.738281 79.289062 44.617188 75.5625 C 44.558594 73.761719 44.488281 71.96875 44.453125 70.167969 C 44.429688 69.054688 44.441406 67.9375 44.632812 66.851562 C 44.863281 68.164062 45.074219 69.476562 45.242188 70.800781 C 45.269531 70.992188 45.5 71.089844 45.625 70.96875 C 45.746094 72.078125 45.867188 73.1875 45.976562 74.296875 C 46 74.636719 46.015625 74.972656 46.035156 75.308594 C 46.207031 78.558594 46.132812 81.792969 46.191406 85.039062 C 46.191406 85.148438 46.347656 85.144531 46.351562 85.039062 C 46.484375 83.007812 46.472656 80.945312 46.402344 78.890625 C 46.550781 80.699219 46.691406 82.515625 46.808594 84.328125 C 46.972656 86.746094 46.949219 89.21875 47.238281 91.625 C 47.257812 91.789062 47.496094 91.800781 47.5 91.625 C 47.585938 89.269531 47.308594 86.851562 47.152344 84.496094 C 46.992188 82.0625 46.804688 79.636719 46.582031 77.210938 C 46.371094 74.855469 46.128906 72.503906 45.851562 70.15625 C 45.996094 69.492188 46.097656 68.824219 46.160156 68.148438 C 46.292969 68.800781 46.449219 69.445312 46.632812 70.082031 C 46.707031 70.351562 47.070312 70.273438 47.089844 70.019531 C 47.15625 69.269531 47.21875 68.515625 47.285156 67.765625 C 47.304688 67.804688 47.324219 67.847656 47.335938 67.886719 C 47.800781 71.449219 48.242188 75.015625 48.546875 78.601562 C 48.753906 80.972656 48.914062 83.34375 49.039062 85.71875 C 49.164062 88.132812 49.085938 90.617188 49.386719 93.015625 C 49.394531 93.085938 49.449219 93.117188 49.496094 93.117188 C 49.523438 95.207031 49.515625 97.292969 49.519531 99.375 Z M 50.113281 78.3125 C 49.78125 74.167969 49.570312 70.019531 49.351562 65.871094 C 49.402344 65.894531 49.457031 65.890625 49.511719 65.871094 C 49.824219 70.359375 50.175781 74.847656 50.507812 79.328125 C 50.695312 81.839844 50.882812 84.355469 51.070312 86.871094 C 51.148438 87.933594 51.210938 89 51.28125 90.070312 C 50.855469 86.15625 50.425781 82.242188 50.113281 78.3125 Z M 51.363281 97.703125 C 51.347656 98.144531 51.332031 98.585938 51.308594 99.023438 C 50.988281 99.304688 50.667969 99.582031 50.347656 99.867188 C 50.667969 95.40625 50.640625 90.898438 50.464844 86.417969 C 50.671875 88.476562 50.910156 90.53125 51.195312 92.574219 C 51.105469 92.515625 50.964844 92.589844 50.984375 92.726562 C 51.09375 93.480469 51.238281 94.21875 51.363281 94.964844 C 51.351562 95.871094 51.355469 96.785156 51.363281 97.703125 Z M 51.433594 93.316406 C 51.425781 93.273438 51.417969 93.234375 51.402344 93.195312 C 51.449219 93.195312 51.496094 93.183594 51.535156 93.160156 C 51.539062 93.207031 51.542969 93.257812 51.550781 93.304688 C 51.519531 93.285156 51.464844 93.289062 51.433594 93.316406 Z M 51.636719 98.738281 C 51.652344 98.484375 51.667969 98.230469 51.683594 97.976562 C 51.695312 98.207031 51.707031 98.4375 51.710938 98.671875 C 51.683594 98.691406 51.65625 98.714844 51.636719 98.738281 Z M 53.867188 96.804688 C 53.246094 97.339844 52.625 97.871094 52.011719 98.410156 C 52.003906 97.445312 51.953125 96.457031 51.832031 95.484375 C 51.851562 95.160156 51.863281 94.828125 51.871094 94.503906 C 51.898438 94.488281 51.921875 94.457031 51.921875 94.414062 C 51.917969 94.085938 51.910156 93.753906 51.898438 93.421875 C 51.898438 93.289062 51.902344 93.15625 51.902344 93.019531 C 51.902344 92.984375 51.894531 92.960938 51.875 92.941406 C 51.789062 90.917969 51.570312 88.886719 51.417969 86.871094 C 51.226562 84.300781 51.035156 81.730469 50.839844 79.160156 C 50.507812 74.734375 50.191406 70.304688 49.84375 65.882812 C 49.878906 65.886719 49.910156 65.894531 49.945312 65.898438 C 50.445312 70.695312 50.976562 75.484375 51.496094 80.273438 C 51.792969 82.949219 52.085938 85.628906 52.378906 88.300781 C 52.523438 89.609375 52.667969 90.910156 52.816406 92.214844 C 52.789062 92.230469 52.765625 92.257812 52.753906 92.292969 C 52.347656 93.355469 52.679688 94.820312 53.003906 95.863281 C 53.050781 96.027344 53.238281 96.035156 53.34375 95.953125 C 53.410156 96.0625 53.578125 96.027344 53.589844 95.886719 C 53.652344 95.164062 53.566406 94.398438 53.453125 93.636719 C 53.601562 94.394531 53.773438 95.136719 53.992188 95.863281 C 53.996094 95.871094 54 95.882812 54.007812 95.890625 C 53.953125 96.199219 53.90625 96.5 53.867188 96.804688 Z M 58.972656 92.507812 C 57.417969 93.796875 55.871094 95.09375 54.339844 96.402344 C 54.648438 94.933594 55.035156 93.488281 55.4375 92.023438 C 55.46875 91.90625 55.289062 91.820312 55.234375 91.9375 C 54.78125 92.90625 54.4375 93.941406 54.191406 95.003906 C 53.914062 92.546875 53.363281 90.101562 53.046875 87.648438 C 52.695312 84.90625 52.429688 82.15625 52.246094 79.398438 C 52.066406 76.699219 51.972656 73.996094 51.960938 71.285156 C 51.949219 68.464844 52.164062 65.648438 52.15625 62.835938 C 52.15625 62.816406 52.152344 62.804688 52.148438 62.789062 C 52.347656 62.667969 52.550781 62.539062 52.75 62.417969 C 52.757812 62.808594 52.785156 63.199219 52.816406 63.589844 C 52.917969 64.949219 52.996094 66.308594 53.035156 67.671875 C 53.113281 70.546875 53.0625 73.417969 53.074219 76.289062 C 53.089844 79.125 53.195312 81.957031 53.40625 84.78125 C 53.507812 86.136719 53.628906 87.488281 53.773438 88.835938 C 53.921875 90.1875 54.007812 91.597656 54.390625 92.910156 C 54.425781 93.039062 54.625 93.015625 54.625 92.878906 C 54.628906 91.53125 54.367188 90.179688 54.21875 88.839844 C 54.074219 87.492188 53.949219 86.140625 53.847656 84.785156 C 53.636719 82.015625 53.523438 79.242188 53.5 76.464844 C 53.472656 73.707031 53.515625 70.949219 53.445312 68.191406 C 53.410156 66.8125 53.34375 65.4375 53.222656 64.0625 C 53.167969 63.445312 53.105469 62.824219 53.09375 62.207031 C 53.667969 61.847656 54.234375 61.480469 54.800781 61.109375 C 54.703125 65.984375 54.742188 70.855469 54.925781 75.730469 C 55.023438 78.367188 55.15625 81 55.328125 83.632812 C 55.496094 86.144531 55.605469 88.695312 55.957031 91.1875 C 55.917969 91.183594 55.871094 91.203125 55.851562 91.25 C 55.425781 92.378906 55.09375 93.550781 54.757812 94.703125 C 54.691406 94.925781 55.042969 95.027344 55.105469 94.804688 C 55.425781 93.699219 55.753906 92.578125 55.996094 91.453125 C 56.070312 91.636719 56.351562 91.574219 56.414062 91.40625 C 56.550781 91.039062 56.691406 90.667969 56.835938 90.296875 C 56.894531 90.140625 56.644531 90.039062 56.566406 90.1875 C 56.503906 90.308594 56.4375 90.421875 56.375 90.542969 C 56.242188 88.183594 55.964844 85.820312 55.804688 83.464844 C 55.628906 80.832031 55.484375 78.195312 55.382812 75.558594 C 55.191406 70.667969 55.121094 65.769531 55.15625 60.878906 C 55.550781 60.613281 55.945312 60.347656 56.335938 60.082031 C 56.457031 65.808594 56.589844 71.539062 56.738281 77.269531 C 56.820312 80.484375 56.902344 83.695312 56.988281 86.90625 C 56.996094 87.289062 56.828125 88.929688 57.644531 88.785156 C 57.414062 90.191406 57.277344 91.617188 57.105469 93.03125 C 57.070312 93.308594 57.515625 93.308594 57.546875 93.03125 C 57.757812 91.300781 58.023438 89.5625 58.097656 87.820312 C 58.101562 87.667969 57.859375 87.632812 57.828125 87.785156 C 57.8125 87.875 57.792969 87.96875 57.777344 88.0625 C 57.628906 88.027344 57.523438 88.1875 57.605469 88.300781 C 57.324219 87.972656 57.476562 86.746094 57.46875 86.394531 C 57.449219 85.761719 57.433594 85.132812 57.417969 84.5 C 57.382812 83.242188 57.351562 81.980469 57.316406 80.714844 C 57.25 78.191406 57.183594 75.667969 57.113281 73.144531 C 56.992188 68.707031 56.859375 64.269531 56.714844 59.832031 C 57.089844 59.574219 57.460938 59.3125 57.832031 59.050781 C 57.839844 63.695312 57.921875 68.332031 58.113281 72.96875 C 58.308594 77.742188 58.417969 82.59375 59.011719 87.339844 C 58.878906 89.074219 58.804688 90.828125 58.972656 92.507812 Z M 59.320312 83.386719 C 59.3125 83.539062 59.300781 83.6875 59.289062 83.835938 C 59.085938 80.210938 58.773438 76.585938 58.621094 72.957031 C 58.429688 68.332031 58.304688 63.707031 58.257812 59.082031 C 58.394531 59.25 58.640625 59.324219 58.828125 59.109375 C 59 58.914062 59.179688 58.726562 59.351562 58.535156 C 59.433594 61.824219 59.59375 65.101562 59.625 68.390625 C 59.65625 71.746094 59.503906 75.101562 59.5625 78.449219 C 59.5625 78.539062 59.605469 78.59375 59.664062 78.625 C 59.539062 80.214844 59.425781 81.800781 59.320312 83.386719 Z M 65.414062 87.144531 C 65 87.492188 64.578125 87.839844 64.164062 88.191406 C 62.820312 89.316406 61.46875 90.441406 60.113281 91.558594 C 60.414062 89.015625 60.292969 86.328125 60.445312 83.800781 C 60.644531 80.472656 60.90625 77.144531 61.21875 73.824219 C 61.515625 70.71875 61.890625 67.628906 62.292969 64.535156 C 62.292969 65.601562 62.328125 66.664062 62.46875 67.699219 C 62.492188 67.898438 62.777344 67.914062 62.792969 67.699219 C 62.917969 65.574219 62.71875 63.410156 62.738281 61.273438 C 62.738281 61.226562 62.738281 61.171875 62.742188 61.125 C 63.015625 59.042969 63.289062 56.957031 63.535156 54.871094 C 64.359375 54.257812 65.179688 53.636719 66.003906 53.023438 C 65.746094 55.011719 65.570312 57.007812 65.476562 59.007812 C 65.359375 61.542969 65.261719 64.175781 65.621094 66.695312 C 65.644531 66.867188 65.910156 66.816406 65.910156 66.65625 C 65.957031 64.160156 65.777344 61.675781 65.859375 59.175781 C 65.925781 57.027344 66.09375 54.890625 66.351562 52.753906 C 67.300781 52.042969 68.253906 51.339844 69.214844 50.632812 C 68.46875 53.300781 67.992188 56.105469 67.636719 58.929688 C 67.671875 56.644531 67.746094 54.359375 67.867188 52.078125 C 67.878906 51.796875 67.445312 51.796875 67.425781 52.078125 C 67.285156 54.675781 67.195312 57.277344 67.167969 59.878906 C 67.15625 61.128906 67.105469 62.414062 67.109375 63.695312 C 66.96875 65.15625 66.832031 66.601562 66.6875 68.019531 C 66.027344 74.386719 65.621094 80.757812 65.414062 87.144531 Z M 71.035156 56.761719 C 71.027344 59.703125 71.027344 62.640625 71.027344 65.582031 C 71.027344 68.523438 71.027344 71.464844 71.027344 74.40625 C 71.027344 77.0625 70.878906 79.773438 71.027344 82.4375 L 70.078125 83.234375 C 70.070312 82.621094 70.0625 82.011719 70.078125 81.394531 C 70.101562 80.089844 70.359375 78.695312 70.222656 77.402344 C 70.207031 77.207031 69.929688 77.144531 69.867188 77.355469 C 69.523438 78.558594 69.609375 79.984375 69.585938 81.230469 C 69.574219 82.03125 69.578125 82.835938 69.601562 83.636719 C 69.066406 84.085938 68.53125 84.53125 67.992188 84.984375 C 67.960938 84.199219 67.953125 83.414062 67.972656 82.628906 C 68.015625 81.117188 68.277344 79.628906 68.351562 78.121094 C 68.363281 77.925781 68.0625 77.890625 68.015625 78.078125 C 67.648438 79.472656 67.605469 81.027344 67.570312 82.464844 C 67.546875 83.40625 67.574219 84.351562 67.636719 85.289062 L 66.691406 86.078125 C 66.890625 80.199219 67.257812 74.316406 67.800781 68.457031 C 68.085938 65.394531 68.421875 62.339844 68.789062 59.292969 C 68.875 58.597656 68.972656 57.898438 69.070312 57.199219 C 68.972656 58.910156 68.898438 60.613281 68.824219 62.320312 C 68.730469 64.550781 68.664062 66.777344 68.625 69.003906 C 68.585938 71.328125 68.449219 73.722656 68.683594 76.035156 C 68.699219 76.207031 68.933594 76.207031 68.945312 76.035156 C 69.136719 73.773438 69.03125 71.449219 69.0625 69.179688 C 69.097656 66.894531 69.15625 64.605469 69.238281 62.320312 C 69.390625 58.273438 69.683594 54.234375 69.953125 50.195312 C 70.046875 50.144531 70.117188 50.0625 70.15625 49.957031 C 70.644531 49.605469 71.132812 49.257812 71.625 48.910156 C 70.933594 51.457031 71.042969 54.136719 71.035156 56.761719 Z M 79.117188 75.800781 C 76.535156 77.484375 74.234375 79.75 71.867188 81.734375 C 71.753906 81.828125 71.640625 81.925781 71.527344 82.019531 C 71.625 79.609375 71.503906 77.15625 71.5 74.753906 C 71.496094 71.8125 71.496094 68.871094 71.488281 65.929688 C 71.484375 63.046875 71.484375 60.164062 71.472656 57.28125 C 71.464844 54.410156 71.273438 51.445312 72.066406 48.652344 C 72.070312 48.632812 72.070312 48.617188 72.070312 48.597656 C 72.320312 48.433594 72.566406 48.269531 72.816406 48.105469 C 72.925781 54.15625 73.039062 60.199219 73.164062 66.25 C 73.226562 69.355469 73.292969 72.46875 73.375 75.574219 C 73.382812 75.933594 73.1875 77.492188 73.953125 77.460938 C 74.304688 77.449219 74.398438 77.023438 74.207031 76.785156 C 74.175781 76.746094 74.117188 76.738281 74.074219 76.75 C 74.042969 76.753906 74.011719 76.757812 73.984375 76.761719 C 73.980469 76.761719 73.976562 76.765625 73.96875 76.769531 C 73.84375 75.554688 73.753906 70.273438 73.746094 69.703125 C 73.691406 67.230469 73.632812 64.757812 73.574219 62.28125 C 73.464844 57.464844 73.34375 52.652344 73.21875 47.835938 C 73.667969 47.539062 74.113281 47.238281 74.558594 46.941406 C 74.667969 57.296875 75.070312 67.660156 75.375 78.011719 C 75.382812 78.273438 75.777344 78.34375 75.847656 78.070312 C 75.988281 77.523438 76.121094 76.976562 76.265625 76.433594 C 76.320312 76.230469 76.027344 76.152344 75.953125 76.347656 C 75.910156 76.472656 75.863281 76.601562 75.820312 76.726562 C 75.558594 66.785156 75.375 56.828125 74.921875 46.894531 C 74.917969 46.828125 74.886719 46.78125 74.839844 46.753906 C 75.273438 46.464844 75.699219 46.171875 76.128906 45.871094 C 76.757812 45.476562 77.394531 45.082031 78.03125 44.703125 C 78.023438 46.589844 78.007812 48.476562 77.992188 50.363281 C 77.835938 51.0625 77.679688 51.757812 77.550781 52.460938 C 77.527344 52.589844 77.699219 52.640625 77.746094 52.515625 C 77.824219 52.289062 77.90625 52.058594 77.980469 51.828125 C 77.914062 59.550781 77.832031 67.277344 77.972656 74.992188 C 77.976562 75.273438 78.402344 75.273438 78.410156 74.992188 C 78.4375 73.578125 78.453125 72.160156 78.460938 70.742188 C 78.578125 72.457031 78.777344 74.15625 79.109375 75.800781 C 79.121094 75.796875 79.121094 75.800781 79.117188 75.800781 Z M 78.679688 46 C 78.695312 46.335938 78.703125 46.671875 78.71875 47.007812 C 78.617188 47.558594 78.507812 48.109375 78.386719 48.65625 C 78.378906 47.273438 78.371094 45.890625 78.359375 44.507812 C 78.445312 44.460938 78.535156 44.410156 78.617188 44.359375 C 78.632812 44.6875 78.640625 45.007812 78.65625 45.332031 C 78.601562 45.441406 78.546875 45.542969 78.5 45.652344 C 78.421875 45.816406 78.542969 45.972656 78.679688 46 Z M 78.777344 48.871094 C 78.800781 49.554688 78.828125 50.246094 78.851562 50.933594 C 78.675781 52.960938 78.539062 54.988281 78.453125 57.019531 C 78.4375 54.832031 78.414062 52.644531 78.394531 50.457031 C 78.542969 49.933594 78.667969 49.40625 78.777344 48.871094 Z M 79.328125 42.496094 C 79.179688 42.609375 79.027344 42.726562 78.878906 42.84375 C 78.375 43.136719 77.875 43.433594 77.378906 43.738281 C 77.441406 43.636719 77.441406 43.515625 77.402344 43.40625 C 78.046875 43.023438 78.699219 42.640625 79.347656 42.265625 C 79.339844 42.34375 79.335938 42.417969 79.328125 42.496094 Z M 79.457031 40.996094 C 79.453125 41.082031 79.441406 41.160156 79.4375 41.246094 C 78.839844 41.589844 78.25 41.9375 77.660156 42.289062 C 77.707031 40.710938 77.476562 39.097656 77.367188 37.53125 C 77.246094 35.847656 77.117188 34.167969 76.988281 32.484375 C 77.242188 32.296875 77.496094 32.097656 77.75 31.914062 C 77.742188 31.929688 77.730469 31.957031 77.730469 31.984375 C 77.554688 35.050781 77.421875 38.363281 78.039062 41.386719 C 78.066406 41.523438 78.289062 41.492188 78.289062 41.347656 C 78.253906 39.789062 78.046875 38.230469 78 36.671875 C 77.949219 35.105469 77.972656 33.542969 78.054688 31.980469 C 78.058594 31.859375 77.949219 31.808594 77.855469 31.832031 C 78.492188 31.355469 79.136719 30.875 79.773438 30.394531 C 79.714844 32.078125 79.695312 33.761719 79.738281 35.445312 C 79.777344 37.246094 79.785156 39.113281 80.042969 40.902344 C 79.949219 40.957031 79.859375 41.011719 79.757812 41.0625 C 79.757812 41.042969 79.765625 41.015625 79.765625 40.992188 C 79.765625 40.804688 79.46875 40.804688 79.457031 40.996094 Z M 79.664062 42.226562 C 79.671875 42.171875 79.675781 42.125 79.675781 42.074219 C 79.875 41.960938 80.074219 41.847656 80.28125 41.730469 C 80.074219 41.898438 79.871094 42.0625 79.664062 42.226562 Z M 80.386719 40.707031 C 80.34375 38.902344 80.148438 37.085938 80.097656 35.28125 C 80.054688 33.570312 80.054688 31.859375 80.09375 30.148438 C 80.609375 29.753906 81.128906 29.359375 81.644531 28.960938 C 81.722656 29.636719 81.792969 30.3125 81.867188 30.996094 C 81.824219 30.828125 81.777344 30.660156 81.730469 30.5 C 81.652344 30.257812 81.265625 30.289062 81.273438 30.5625 C 81.320312 32.265625 81.800781 34.023438 82.082031 35.699219 C 82.1875 36.328125 82.292969 36.957031 82.402344 37.585938 C 82.324219 38.144531 82.257812 38.707031 82.1875 39.265625 C 82.15625 39.5 82.53125 39.5 82.558594 39.265625 C 82.574219 39.097656 82.597656 38.933594 82.621094 38.769531 C 82.660156 38.980469 82.699219 39.1875 82.738281 39.398438 C 81.953125 39.828125 81.167969 40.261719 80.386719 40.707031 Z M 83.1875 39.148438 C 83.078125 38.378906 82.957031 37.609375 82.832031 36.839844 C 82.84375 36.71875 82.855469 36.597656 82.863281 36.484375 C 82.871094 36.40625 82.816406 36.363281 82.753906 36.34375 C 82.726562 36.191406 82.703125 36.039062 82.679688 35.882812 C 82.625 35.566406 82.578125 35.242188 82.535156 34.910156 C 82.628906 34.9375 82.757812 34.882812 82.75 34.765625 C 82.660156 32.75 82.25 30.710938 81.972656 28.707031 C 82.101562 28.609375 82.230469 28.511719 82.363281 28.410156 C 82.554688 31.890625 82.730469 35.640625 83.492188 39.082031 C 83.410156 39.066406 83.316406 39.078125 83.222656 39.125 C 83.207031 39.136719 83.199219 39.144531 83.1875 39.148438 Z M 83.589844 40.261719 C 83.507812 40.300781 83.425781 40.347656 83.339844 40.390625 C 83.332031 40.324219 83.324219 40.253906 83.316406 40.1875 C 83.429688 40.074219 83.550781 39.96875 83.671875 39.851562 C 83.703125 39.96875 83.730469 40.089844 83.761719 40.203125 C 83.707031 40.21875 83.648438 40.234375 83.589844 40.261719 Z M 83.589844 40.261719 " fill-opacity="1" fill-rule="nonzero"/></g><path fill="#754643" d="M 21.710938 77.074219 C 21.691406 76.898438 21.449219 76.890625 21.4375 77.074219 C 21.289062 79.019531 21.445312 81.023438 21.503906 82.972656 C 21.5625 84.933594 21.546875 86.921875 21.769531 88.871094 C 21.789062 89.019531 21.992188 89.023438 22 88.871094 C 22.121094 86.917969 22.007812 84.933594 21.957031 82.972656 C 21.914062 81.015625 21.960938 79.011719 21.710938 77.074219 Z M 21.710938 77.074219 " fill-opacity="1" fill-rule="nonzero"/><path fill="#754643" d="M 24.472656 89.1875 C 24.429688 89.117188 24.296875 89.160156 24.328125 89.25 C 24.421875 89.5 24.550781 89.730469 24.671875 89.972656 C 24.722656 90.085938 24.890625 89.988281 24.835938 89.875 C 24.71875 89.644531 24.613281 89.40625 24.472656 89.1875 Z M 24.472656 89.1875 " fill-opacity="1" fill-rule="nonzero"/><path fill="#754643" d="M 63.957031 54.863281 C 63.871094 57 63.800781 59.144531 63.726562 61.285156 C 63.65625 63.386719 63.375 65.609375 63.578125 67.703125 C 63.589844 67.863281 63.859375 67.9375 63.886719 67.742188 C 64.214844 65.703125 64.082031 63.515625 64.144531 61.449219 C 64.210938 59.25 64.273438 57.054688 64.324219 54.859375 C 64.335938 54.625 63.96875 54.625 63.957031 54.863281 Z M 63.957031 54.863281 " fill-opacity="1" fill-rule="nonzero"/><path fill="#754643" d="M 77.328125 74.566406 C 77.289062 70.355469 77.042969 66.140625 76.945312 61.929688 C 76.835938 57.378906 76.734375 52.832031 76.671875 48.277344 C 76.667969 48 76.242188 48 76.242188 48.277344 C 76.285156 52.828125 76.34375 57.378906 76.445312 61.929688 C 76.546875 66.46875 76.535156 71.046875 76.859375 75.578125 C 76.882812 75.878906 77.316406 75.882812 77.332031 75.578125 C 77.34375 75.261719 77.359375 74.957031 77.347656 74.640625 C 77.347656 74.613281 77.339844 74.585938 77.328125 74.566406 Z M 77.328125 74.566406 " fill-opacity="1" fill-rule="nonzero"/><path fill="#754643" d="M 75.601562 48.921875 C 75.488281 49.386719 75.375 49.851562 75.28125 50.316406 C 75.246094 50.511719 75.519531 50.589844 75.574219 50.398438 C 75.71875 49.945312 75.835938 49.480469 75.949219 49.015625 C 76.007812 48.792969 75.660156 48.699219 75.601562 48.921875 Z M 75.601562 48.921875 " fill-opacity="1" fill-rule="nonzero"/><path fill="#754643" d="M 53.609375 37.484375 C 52.09375 36.613281 50.40625 36 48.8125 35.296875 C 48.597656 35.203125 48.40625 35.519531 48.625 35.621094 C 50.238281 36.328125 51.84375 37.15625 53.523438 37.6875 C 53.644531 37.71875 53.714844 37.542969 53.609375 37.484375 Z M 53.609375 37.484375 " fill-opacity="1" fill-rule="nonzero"/><path fill="#754643" d="M 39.894531 31.285156 C 40.011719 30.363281 40.121094 29.433594 40.210938 28.507812 C 40.230469 28.328125 39.921875 28.285156 39.894531 28.464844 C 39.75 29.398438 39.628906 30.339844 39.511719 31.28125 C 39.480469 31.523438 39.863281 31.523438 39.894531 31.285156 Z M 39.894531 31.285156 " fill-opacity="1" fill-rule="nonzero"/><path fill="#754643" d="M 24.007812 51.6875 C 23.964844 51.445312 23.5625 51.5 23.578125 51.742188 C 23.65625 52.671875 23.761719 53.597656 23.871094 54.519531 C 23.914062 54.84375 24.429688 54.851562 24.390625 54.519531 C 24.273438 53.570312 24.15625 52.625 24.007812 51.6875 Z M 24.007812 51.6875 " fill-opacity="1" fill-rule="nonzero"/><path fill="#754643" d="M 58.234375 91.238281 C 58.105469 91.582031 57.976562 91.925781 57.847656 92.269531 C 57.734375 92.566406 58.238281 92.714844 58.328125 92.402344 C 58.429688 92.050781 58.53125 91.703125 58.636719 91.351562 C 58.710938 91.085938 58.324219 90.988281 58.234375 91.238281 Z M 58.234375 91.238281 " fill-opacity="1" fill-rule="nonzero"/></svg>