<svg xmlns="http://www.w3.org/2000/svg" xmlns:xlink="http://www.w3.org/1999/xlink" width="72" zoomAndPan="magnify" viewBox="0 0 54 89.999999" height="120" preserveAspectRatio="xMidYMid meet" version="1.0"><defs><clipPath id="cda297628d"><path d="M 0 0 L 54 0 L 54 89.25 L 0 89.25 Z M 0 0 " clip-rule="nonzero"/></clipPath></defs><g clip-path="url(#cda297628d)"><path fill="#754643" d="M 50.984375 69.007812 C 40.214844 73.375 35.3125 81.042969 33.066406 86.164062 C 32.238281 88.054688 30.390625 89.289062 28.328125 89.289062 L 25.691406 89.289062 C 23.628906 89.289062 21.785156 88.054688 20.957031 86.164062 C 18.710938 81.042969 13.808594 73.375 3.039062 69.007812 C 1 68.1875 0.0195312 65.882812 0.855469 63.847656 C 2.949219 58.804688 6.160156 53.5 6.527344 45.269531 C 6.632812 42.867188 6.097656 40.484375 5.148438 38.28125 C 3.898438 35.359375 1.910156 30.085938 1.738281 25.605469 C 1.738281 25.605469 1.738281 24.800781 1.738281 24.800781 C 1.738281 24.179688 2.160156 23.671875 2.734375 23.484375 C 3.636719 23.1875 4.457031 22.824219 5.296875 22.378906 C 9.191406 20.332031 10.773438 14.964844 11.453125 9.8125 C 11.535156 9.21875 11.601562 8.632812 11.65625 8.058594 C 11.828125 6.273438 11.894531 2.9375 11.910156 1.058594 C 11.914062 0.546875 12.328125 0.136719 12.839844 0.136719 L 16.027344 0.136719 C 16.535156 0.136719 16.949219 0.539062 16.957031 1.046875 C 16.984375 2.757812 17.050781 6.488281 17.226562 7.566406 C 17.914062 11.710938 22.191406 15.152344 27.003906 15.320312 C 27.003906 15.320312 27.007812 15.320312 27.011719 15.320312 C 27.011719 15.320312 27.015625 15.320312 27.019531 15.320312 C 31.832031 15.152344 36.113281 11.710938 36.796875 7.566406 C 36.972656 6.488281 37.039062 2.757812 37.066406 1.046875 C 37.074219 0.539062 37.488281 0.136719 37.996094 0.136719 L 41.183594 0.136719 C 41.691406 0.136719 42.105469 0.546875 42.113281 1.058594 C 42.128906 2.9375 42.195312 6.273438 42.367188 8.058594 C 42.417969 8.632812 42.488281 9.21875 42.570312 9.8125 C 43.25 14.964844 44.832031 20.332031 48.726562 22.378906 C 49.5625 22.824219 50.386719 23.1875 51.289062 23.484375 C 51.867188 23.671875 52.285156 24.179688 52.285156 24.800781 C 52.285156 24.800781 52.285156 25.605469 52.285156 25.605469 C 52.113281 30.085938 50.125 35.359375 48.875 38.28125 C 47.925781 40.484375 47.390625 42.867188 47.496094 45.269531 C 47.863281 53.5 51.074219 58.804688 53.167969 63.847656 C 54.003906 65.882812 53.023438 68.1875 50.984375 69.007812 " fill-opacity="1" fill-rule="nonzero"/></g></svg>