<svg xmlns="http://www.w3.org/2000/svg" xmlns:xlink="http://www.w3.org/1999/xlink" width="59" zoomAndPan="magnify" viewBox="0 0 44.25 44.249999" height="59" preserveAspectRatio="xMidYMid meet" version="1.0"><defs><clipPath id="a88ad076c2"><path d="M 0 0 L 42.773438 0 L 42.773438 42.773438 L 0 42.773438 Z M 0 0 " clip-rule="nonzero"/></clipPath></defs><path stroke-linecap="butt" transform="matrix(0.0635115, 0, 0, 0.0635115, -16.417724, -2.54046)" fill="none" stroke-linejoin="miter" d="M 891.62845 376.737727 C 891.62845 386.455455 891.136413 396.173183 890.152339 405.829406 C 889.22977 415.485629 887.815164 425.080348 885.908521 434.552058 C 884.001878 444.085272 881.664703 453.495477 878.835491 462.782673 C 876.006279 472.069869 872.746535 481.172551 869.056258 490.152223 C 865.304477 499.131896 861.183669 507.86555 856.632328 516.414691 C 852.019482 525.025336 847.037609 533.328458 841.686708 541.385562 C 836.274303 549.442665 830.492869 557.25375 824.342409 564.757312 C 818.191948 572.260875 811.672459 579.456914 804.783943 586.283925 C 797.956932 593.172441 790.760893 599.69193 783.257331 605.84239 C 775.753769 611.992851 768.004188 617.774284 759.88558 623.125185 C 751.828476 628.537591 743.525354 633.519464 734.976214 638.070805 C 726.427073 642.68365 717.631914 646.804459 708.652242 650.494736 C 699.734073 654.246517 690.569887 657.506261 681.282691 660.335473 C 671.995495 663.164685 662.58529 665.50186 653.113581 667.408503 C 643.580367 669.253641 633.985648 670.729752 624.329424 671.652321 C 614.673201 672.57489 604.955473 673.066927 595.299249 673.066927 C 585.581521 673.066927 575.863793 672.57489 566.20757 671.652321 C 556.551347 670.729752 547.018132 669.253641 537.484918 667.408503 C 527.951704 665.50186 518.541499 663.164685 509.254303 660.335473 C 499.967107 657.506261 490.864426 654.246517 481.884753 650.494736 C 472.90508 646.804459 464.171426 642.68365 455.622285 638.070805 C 447.01164 633.519464 438.708518 628.537591 430.651415 623.125185 C 422.594311 617.774284 414.783226 611.992851 407.279664 605.84239 C 399.776101 599.69193 392.641567 593.172441 385.753051 586.283925 C 378.864535 579.456914 372.406551 572.260875 366.194586 564.757312 C 360.044125 557.25375 354.262692 549.442665 348.911791 541.385562 C 343.499385 533.328458 338.517512 525.025336 333.966171 516.414691 C 329.353326 507.86555 325.232517 499.131896 321.54224 490.152223 C 317.790459 481.172551 314.530715 472.069869 311.701503 462.782673 C 308.872291 453.495477 306.535116 444.085272 304.628473 434.552058 C 302.783335 425.080348 301.368729 415.485629 300.384655 405.829406 C 299.462086 396.173183 298.970049 386.455455 298.970049 376.737727 C 298.970049 367.081503 299.462086 357.363775 300.384655 347.707552 C 301.368729 338.051328 302.783335 328.45661 304.628473 318.923395 C 306.535116 309.451686 308.872291 300.041481 311.701503 290.754285 C 314.530715 281.467089 317.790459 272.302903 321.54224 263.384735 C 325.232517 254.405062 329.353326 245.609903 333.966171 237.060762 C 338.517512 228.511622 343.499385 220.2085 348.911791 212.151396 C 354.262692 204.094293 360.044125 196.283208 366.194586 188.779645 C 372.406551 181.276083 378.864535 174.080044 385.753051 167.253033 C 392.641567 160.364517 399.776101 153.845028 407.279664 147.694567 C 414.783226 141.544107 422.594311 135.762674 430.651415 130.350268 C 438.708518 124.999367 447.01164 120.017494 455.622285 115.404648 C 464.171426 110.853307 472.90508 106.732499 481.884753 102.980718 C 490.864426 99.290441 499.967107 96.030697 509.254303 93.201485 C 518.541499 90.372273 527.951704 88.035098 537.484918 86.128455 C 547.018132 84.221812 556.551347 82.807206 566.20757 81.884637 C 575.863793 80.900563 585.581521 80.470031 595.299249 80.470031 C 604.955473 80.470031 614.673201 80.900563 624.329424 81.884637 C 633.985648 82.807206 643.580367 84.221812 653.113581 86.128455 C 662.58529 88.035098 671.995495 90.372273 681.282691 93.201485 C 690.569887 96.030697 699.734073 99.290441 708.652242 102.980718 C 717.631914 106.732499 726.427073 110.853307 734.976214 115.404648 C 743.525354 120.017494 751.828476 124.999367 759.88558 130.350268 C 768.004188 135.762674 775.753769 141.544107 783.257331 147.694567 C 790.760893 153.845028 797.956932 160.364517 804.783943 167.253033 C 811.672459 174.080044 818.191948 181.276083 824.342409 188.779645 C 830.492869 196.283208 836.274303 204.094293 841.686708 212.151396 C 847.037609 220.2085 852.019482 228.511622 856.632328 237.060762 C 861.183669 245.609903 865.304477 254.405062 869.056258 263.384735 C 872.746535 272.302903 876.006279 281.467089 878.835491 290.754285 C 881.664703 300.041481 884.001878 309.451686 885.908521 318.923395 C 887.815164 328.45661 889.22977 338.051328 890.152339 347.707552 C 891.136413 357.363775 891.62845 367.081503 891.62845 376.737727 Z M 891.62845 376.737727 " stroke="#000000" stroke-width="0.5" stroke-opacity="1" stroke-miterlimit="10"/><path stroke-linecap="butt" transform="matrix(0.0635115, 0, 0, 0.0635115, -16.417724, -2.54046)" fill="none" stroke-linejoin="miter" d="M 767.63516 376.737727 C 767.63516 388.054574 766.528077 399.309918 764.313912 410.380747 C 762.099746 421.451576 758.840001 432.276387 754.473174 442.732171 C 750.167852 453.187954 744.878455 463.090196 738.543481 472.500401 C 732.270011 481.910606 725.135476 490.64426 717.139877 498.639859 C 709.144278 506.635458 700.410624 513.769993 691.000419 520.043463 C 681.590214 526.316933 671.687972 531.667834 661.232189 535.973156 C 650.776406 540.278479 640.013099 543.599727 628.880765 545.752389 C 617.809936 547.966555 606.616097 549.073637 595.299249 549.073637 C 583.982402 549.073637 572.788563 547.966555 561.656229 545.752389 C 550.5854 543.599727 539.760589 540.278479 529.304805 535.973156 C 518.849022 531.667834 508.94678 526.316933 499.536575 520.043463 C 490.12637 513.769993 481.454221 506.635458 473.397117 498.639859 C 465.401518 490.64426 458.266983 481.910606 451.993513 472.500401 C 445.720043 463.090196 440.369143 453.187954 436.06382 442.732171 C 431.758497 432.276387 428.498753 421.451576 426.284587 410.380747 C 424.070422 399.309918 422.963339 388.054574 422.963339 376.737727 C 422.963339 365.420879 424.070422 354.22704 426.284587 343.156211 C 428.498753 332.023877 431.758497 321.26057 436.06382 310.804787 C 440.369143 300.349004 445.720043 290.446762 451.993513 281.036557 C 458.266983 271.626352 465.401518 262.892698 473.397117 254.897099 C 481.454221 246.9015 490.12637 239.766965 499.536575 233.493495 C 508.94678 227.158521 518.849022 221.869124 529.304805 217.563802 C 539.760589 213.196975 550.5854 209.93723 561.656229 207.723065 C 572.788563 205.508899 583.982402 204.401816 595.299249 204.401816 C 606.616097 204.401816 617.809936 205.508899 628.880765 207.723065 C 640.013099 209.93723 650.776406 213.196975 661.232189 217.563802 C 671.687972 221.869124 681.590214 227.158521 691.000419 233.493495 C 700.410624 239.766965 709.144278 246.9015 717.139877 254.897099 C 725.135476 262.892698 732.270011 271.626352 738.543481 281.036557 C 744.878455 290.446762 750.167852 300.349004 754.473174 310.804787 C 758.840001 321.26057 762.099746 332.023877 764.313912 343.156211 C 766.528077 354.22704 767.63516 365.420879 767.63516 376.737727 Z M 767.63516 376.737727 " stroke="#000000" stroke-width="0.5" stroke-opacity="1" stroke-miterlimit="10"/><g clip-path="url(#a88ad076c2)"><path fill="#000000" d="M 21.390625 0 C 9.578125 0 0 9.574219 0 21.386719 C 0 33.199219 9.578125 42.777344 21.390625 42.777344 C 33.203125 42.777344 42.777344 33.199219 42.777344 21.386719 C 42.777344 9.574219 33.203125 0 21.390625 0 Z M 21.390625 41.59375 C 10.230469 41.59375 1.183594 32.546875 1.183594 21.386719 C 1.183594 10.226562 10.230469 1.179688 21.390625 1.179688 C 32.550781 1.179688 41.59375 10.226562 41.59375 21.386719 C 41.59375 32.546875 32.550781 41.59375 21.390625 41.59375 Z M 21.390625 41.59375 " fill-opacity="1" fill-rule="nonzero"/></g><path fill="#000000" d="M 21.121094 1.121094 L 21.648438 1.121094 L 21.648438 2.574219 L 21.121094 2.574219 Z M 21.121094 1.121094 " fill-opacity="1" fill-rule="nonzero"/><path fill="#000000" d="M 21.34375 1.121094 L 21.425781 1.121094 L 21.425781 2.574219 L 21.34375 2.574219 Z M 21.34375 1.121094 " fill-opacity="1" fill-rule="nonzero"/><path fill="#000000" d="M 19.460938 2.671875 L 19.378906 2.679688 L 19.226562 1.238281 L 19.308594 1.226562 Z M 19.460938 2.671875 " fill-opacity="1" fill-rule="nonzero"/><path fill="#000000" d="M 17.511719 2.972656 L 17.429688 2.992188 L 17.132812 1.570312 L 17.214844 1.554688 Z M 17.511719 2.972656 " fill-opacity="1" fill-rule="nonzero"/><path fill="#000000" d="M 15.605469 3.480469 L 15.527344 3.507812 L 15.078125 2.128906 L 15.15625 2.101562 Z M 15.605469 3.480469 " fill-opacity="1" fill-rule="nonzero"/><path fill="#000000" d="M 13.769531 4.183594 L 13.695312 4.21875 L 13.105469 2.890625 L 13.179688 2.859375 Z M 13.769531 4.183594 " fill-opacity="1" fill-rule="nonzero"/><path fill="#000000" d="M 12.015625 5.074219 L 11.945312 5.117188 L 11.21875 3.859375 L 11.292969 3.816406 Z M 12.015625 5.074219 " fill-opacity="1" fill-rule="nonzero"/><path fill="#000000" d="M 10.359375 6.144531 L 10.292969 6.191406 L 9.4375 5.019531 L 9.507812 4.96875 Z M 10.359375 6.144531 " fill-opacity="1" fill-rule="nonzero"/><path fill="#000000" d="M 8.824219 7.378906 L 8.761719 7.4375 L 7.792969 6.359375 L 7.855469 6.300781 Z M 8.824219 7.378906 " fill-opacity="1" fill-rule="nonzero"/><path fill="#000000" d="M 7.433594 8.769531 L 7.378906 8.832031 L 6.300781 7.863281 L 6.355469 7.800781 Z M 7.433594 8.769531 " fill-opacity="1" fill-rule="nonzero"/><path fill="#000000" d="M 6.191406 10.296875 L 6.144531 10.363281 L 4.964844 9.515625 L 5.015625 9.445312 Z M 6.191406 10.296875 " fill-opacity="1" fill-rule="nonzero"/><path fill="#000000" d="M 5.113281 11.949219 L 5.070312 12.019531 L 3.8125 11.292969 L 3.855469 11.222656 Z M 5.113281 11.949219 " fill-opacity="1" fill-rule="nonzero"/><path fill="#000000" d="M 4.214844 13.699219 L 4.183594 13.773438 L 2.855469 13.1875 L 2.886719 13.109375 Z M 4.214844 13.699219 " fill-opacity="1" fill-rule="nonzero"/><path fill="#000000" d="M 3.507812 15.535156 L 3.480469 15.613281 L 2.101562 15.167969 L 2.125 15.089844 Z M 3.507812 15.535156 " fill-opacity="1" fill-rule="nonzero"/><path fill="#000000" d="M 2.992188 17.441406 L 2.976562 17.523438 L 1.554688 17.21875 L 1.574219 17.140625 Z M 2.992188 17.441406 " fill-opacity="1" fill-rule="nonzero"/><path fill="#000000" d="M 2.683594 19.382812 L 2.671875 19.464844 L 1.230469 19.320312 L 1.238281 19.234375 Z M 2.683594 19.382812 " fill-opacity="1" fill-rule="nonzero"/><path fill="#000000" d="M 1.121094 21.351562 L 2.574219 21.351562 L 2.574219 21.433594 L 1.121094 21.433594 Z M 1.121094 21.351562 " fill-opacity="1" fill-rule="nonzero"/><path fill="#000000" d="M 2.671875 23.316406 L 2.683594 23.398438 L 1.238281 23.554688 L 1.230469 23.472656 Z M 2.671875 23.316406 " fill-opacity="1" fill-rule="nonzero"/><path fill="#000000" d="M 2.976562 25.261719 L 2.996094 25.34375 L 1.574219 25.648438 L 1.558594 25.566406 Z M 2.976562 25.261719 " fill-opacity="1" fill-rule="nonzero"/><path fill="#000000" d="M 3.484375 27.167969 L 3.507812 27.246094 L 2.128906 27.695312 L 2.101562 27.617188 Z M 3.484375 27.167969 " fill-opacity="1" fill-rule="nonzero"/><path fill="#000000" d="M 4.183594 29.003906 L 4.21875 29.078125 L 2.894531 29.671875 L 2.859375 29.597656 Z M 4.183594 29.003906 " fill-opacity="1" fill-rule="nonzero"/><path fill="#000000" d="M 5.074219 30.765625 L 5.117188 30.835938 L 3.859375 31.5625 L 3.816406 31.488281 Z M 5.074219 30.765625 " fill-opacity="1" fill-rule="nonzero"/><path fill="#000000" d="M 6.140625 32.414062 L 6.191406 32.480469 L 5.019531 33.339844 L 4.96875 33.269531 Z M 6.140625 32.414062 " fill-opacity="1" fill-rule="nonzero"/><path fill="#000000" d="M 7.382812 33.949219 L 7.441406 34.011719 L 6.363281 34.984375 L 6.304688 34.921875 Z M 7.382812 33.949219 " fill-opacity="1" fill-rule="nonzero"/><path fill="#000000" d="M 8.769531 35.34375 L 8.832031 35.402344 L 7.863281 36.480469 L 7.800781 36.425781 Z M 8.769531 35.34375 " fill-opacity="1" fill-rule="nonzero"/><path fill="#000000" d="M 10.300781 36.589844 L 10.367188 36.640625 L 9.515625 37.816406 L 9.449219 37.765625 Z M 10.300781 36.589844 " fill-opacity="1" fill-rule="nonzero"/><path fill="#000000" d="M 11.945312 37.664062 L 12.019531 37.707031 L 11.296875 38.964844 L 11.222656 38.921875 Z M 11.945312 37.664062 " fill-opacity="1" fill-rule="nonzero"/><path fill="#000000" d="M 13.703125 38.5625 L 13.777344 38.597656 L 13.191406 39.921875 L 13.113281 39.890625 Z M 13.703125 38.5625 " fill-opacity="1" fill-rule="nonzero"/><path fill="#000000" d="M 15.542969 39.273438 L 15.621094 39.300781 L 15.175781 40.679688 L 15.09375 40.652344 Z M 15.542969 39.273438 " fill-opacity="1" fill-rule="nonzero"/><path fill="#000000" d="M 17.441406 39.78125 L 17.523438 39.800781 L 17.222656 41.21875 L 17.140625 41.203125 Z M 17.441406 39.78125 " fill-opacity="1" fill-rule="nonzero"/><path fill="#000000" d="M 19.386719 40.09375 L 19.46875 40.105469 L 19.316406 41.546875 L 19.234375 41.539062 Z M 19.386719 40.09375 " fill-opacity="1" fill-rule="nonzero"/><path fill="#000000" d="M 21.351562 40.203125 L 21.433594 40.203125 L 21.433594 41.65625 L 21.351562 41.65625 Z M 21.351562 40.203125 " fill-opacity="1" fill-rule="nonzero"/><path fill="#000000" d="M 23.320312 40.101562 L 23.402344 40.09375 L 23.554688 41.535156 L 23.472656 41.542969 Z M 23.320312 40.101562 " fill-opacity="1" fill-rule="nonzero"/><path fill="#000000" d="M 25.265625 39.796875 L 25.347656 39.78125 L 25.648438 41.203125 L 25.566406 41.21875 Z M 25.265625 39.796875 " fill-opacity="1" fill-rule="nonzero"/><path fill="#000000" d="M 27.167969 39.292969 L 27.246094 39.265625 L 27.695312 40.644531 L 27.617188 40.671875 Z M 27.167969 39.292969 " fill-opacity="1" fill-rule="nonzero"/><path fill="#000000" d="M 29.007812 38.597656 L 29.082031 38.5625 L 29.675781 39.886719 L 29.597656 39.921875 Z M 29.007812 38.597656 " fill-opacity="1" fill-rule="nonzero"/><path fill="#000000" d="M 30.761719 37.703125 L 30.835938 37.660156 L 31.566406 38.914062 L 31.492188 38.957031 Z M 30.761719 37.703125 " fill-opacity="1" fill-rule="nonzero"/><path fill="#000000" d="M 32.414062 36.636719 L 32.480469 36.585938 L 33.339844 37.757812 L 33.273438 37.808594 Z M 32.414062 36.636719 " fill-opacity="1" fill-rule="nonzero"/><path fill="#000000" d="M 33.949219 35.398438 L 34.011719 35.34375 L 34.984375 36.421875 L 34.921875 36.476562 Z M 33.949219 35.398438 " fill-opacity="1" fill-rule="nonzero"/><path fill="#000000" d="M 35.34375 34.003906 L 35.402344 33.941406 L 36.484375 34.910156 L 36.429688 34.972656 Z M 35.34375 34.003906 " fill-opacity="1" fill-rule="nonzero"/><path fill="#000000" d="M 36.589844 32.476562 L 36.636719 32.410156 L 37.8125 33.261719 L 37.765625 33.328125 Z M 36.589844 32.476562 " fill-opacity="1" fill-rule="nonzero"/><path fill="#000000" d="M 37.664062 30.824219 L 37.707031 30.75 L 38.964844 31.472656 L 38.921875 31.546875 Z M 37.664062 30.824219 " fill-opacity="1" fill-rule="nonzero"/><path fill="#000000" d="M 38.5625 29.074219 L 38.597656 28.996094 L 39.925781 29.585938 L 39.890625 29.664062 Z M 38.5625 29.074219 " fill-opacity="1" fill-rule="nonzero"/><path fill="#000000" d="M 39.269531 27.238281 L 39.296875 27.160156 L 40.679688 27.601562 L 40.652344 27.679688 Z M 39.269531 27.238281 " fill-opacity="1" fill-rule="nonzero"/><path fill="#000000" d="M 39.785156 25.335938 L 39.804688 25.253906 L 41.222656 25.554688 L 41.207031 25.632812 Z M 39.785156 25.335938 " fill-opacity="1" fill-rule="nonzero"/><path fill="#000000" d="M 40.097656 23.390625 L 40.105469 23.308594 L 41.550781 23.457031 L 41.542969 23.542969 Z M 40.097656 23.390625 " fill-opacity="1" fill-rule="nonzero"/><path fill="#000000" d="M 40.203125 21.339844 L 41.65625 21.339844 L 41.65625 21.425781 L 40.203125 21.425781 Z M 40.203125 21.339844 " fill-opacity="1" fill-rule="nonzero"/><path fill="#000000" d="M 40.109375 19.464844 L 40.101562 19.378906 L 41.542969 19.222656 L 41.554688 19.308594 Z M 40.109375 19.464844 " fill-opacity="1" fill-rule="nonzero"/><path fill="#000000" d="M 39.804688 17.515625 L 39.789062 17.433594 L 41.207031 17.128906 L 41.222656 17.210938 Z M 39.804688 17.515625 " fill-opacity="1" fill-rule="nonzero"/><path fill="#000000" d="M 39.296875 15.613281 L 39.269531 15.53125 L 40.648438 15.078125 L 40.675781 15.15625 Z M 39.296875 15.613281 " fill-opacity="1" fill-rule="nonzero"/><path fill="#000000" d="M 38.589844 13.765625 L 38.554688 13.691406 L 39.878906 13.09375 L 39.914062 13.167969 Z M 38.589844 13.765625 " fill-opacity="1" fill-rule="nonzero"/><path fill="#000000" d="M 37.707031 12.015625 L 37.667969 11.945312 L 38.921875 11.210938 L 38.960938 11.285156 Z M 37.707031 12.015625 " fill-opacity="1" fill-rule="nonzero"/><path fill="#000000" d="M 36.636719 10.363281 L 36.589844 10.296875 L 37.761719 9.4375 L 37.808594 9.503906 Z M 36.636719 10.363281 " fill-opacity="1" fill-rule="nonzero"/><path fill="#000000" d="M 35.394531 8.832031 L 35.339844 8.769531 L 36.410156 7.789062 L 36.46875 7.851562 Z M 35.394531 8.832031 " fill-opacity="1" fill-rule="nonzero"/><path fill="#000000" d="M 34.015625 7.433594 L 33.953125 7.378906 L 34.914062 6.292969 L 34.976562 6.347656 Z M 34.015625 7.433594 " fill-opacity="1" fill-rule="nonzero"/><path fill="#000000" d="M 32.484375 6.1875 L 32.414062 6.136719 L 33.261719 4.960938 L 33.332031 5.007812 Z M 32.484375 6.1875 " fill-opacity="1" fill-rule="nonzero"/><path fill="#000000" d="M 30.828125 5.113281 L 30.753906 5.070312 L 31.476562 3.808594 L 31.546875 3.851562 Z M 30.828125 5.113281 " fill-opacity="1" fill-rule="nonzero"/><path fill="#000000" d="M 29.078125 4.214844 L 29 4.179688 L 29.589844 2.855469 L 29.667969 2.886719 Z M 29.078125 4.214844 " fill-opacity="1" fill-rule="nonzero"/><path fill="#000000" d="M 27.246094 3.507812 L 27.167969 3.480469 L 27.609375 2.097656 L 27.6875 2.121094 Z M 27.246094 3.507812 " fill-opacity="1" fill-rule="nonzero"/><path fill="#000000" d="M 25.34375 2.992188 L 25.261719 2.972656 L 25.554688 1.550781 L 25.636719 1.566406 Z M 25.34375 2.992188 " fill-opacity="1" fill-rule="nonzero"/><path fill="#000000" d="M 23.398438 2.679688 L 23.316406 2.671875 L 23.457031 1.226562 L 23.539062 1.234375 Z M 23.398438 2.679688 " fill-opacity="1" fill-rule="nonzero"/><path fill="#000000" d="M 12.207031 4.964844 L 11.75 5.226562 L 11.023438 3.972656 L 11.480469 3.707031 Z M 12.207031 4.964844 " fill-opacity="1" fill-rule="nonzero"/><path fill="#000000" d="M 5.226562 11.753906 L 4.960938 12.210938 L 3.703125 11.488281 L 3.96875 11.03125 Z M 5.226562 11.753906 " fill-opacity="1" fill-rule="nonzero"/><path fill="#000000" d="M 1.121094 21.128906 L 2.574219 21.128906 L 2.574219 21.65625 L 1.121094 21.65625 Z M 1.121094 21.128906 " fill-opacity="1" fill-rule="nonzero"/><path fill="#000000" d="M 4.964844 30.570312 L 5.226562 31.027344 L 3.96875 31.753906 L 3.707031 31.296875 Z M 4.964844 30.570312 " fill-opacity="1" fill-rule="nonzero"/><path fill="#000000" d="M 11.753906 37.550781 L 12.210938 37.816406 L 11.484375 39.074219 L 11.027344 38.808594 Z M 11.753906 37.550781 " fill-opacity="1" fill-rule="nonzero"/><path fill="#000000" d="M 21.128906 40.203125 L 21.65625 40.203125 L 21.65625 41.65625 L 21.128906 41.65625 Z M 21.128906 40.203125 " fill-opacity="1" fill-rule="nonzero"/><path fill="#000000" d="M 30.574219 37.8125 L 31.03125 37.546875 L 31.753906 38.804688 L 31.296875 39.066406 Z M 30.574219 37.8125 " fill-opacity="1" fill-rule="nonzero"/><path fill="#000000" d="M 37.558594 31.019531 L 37.820312 30.5625 L 39.078125 31.289062 L 38.816406 31.746094 Z M 37.558594 31.019531 " fill-opacity="1" fill-rule="nonzero"/><path fill="#000000" d="M 40.203125 21.121094 L 41.65625 21.121094 L 41.65625 21.648438 L 40.203125 21.648438 Z M 40.203125 21.121094 " fill-opacity="1" fill-rule="nonzero"/><path fill="#000000" d="M 37.8125 12.199219 L 37.550781 11.742188 L 38.808594 11.019531 L 39.070312 11.476562 Z M 37.8125 12.199219 " fill-opacity="1" fill-rule="nonzero"/><path fill="#000000" d="M 31.019531 5.222656 L 30.5625 4.957031 L 31.289062 3.703125 L 31.746094 3.964844 Z M 31.019531 5.222656 " fill-opacity="1" fill-rule="nonzero"/><path fill="#000000" d="M 31.324219 15.449219 L 36.90625 12.226562 L 37.015625 12.410156 L 37.097656 12.363281 L 36.683594 11.652344 L 36.601562 11.699219 L 36.707031 11.882812 L 31.125 15.105469 L 31.019531 14.917969 L 30.933594 14.96875 L 31.347656 15.679688 L 31.429688 15.632812 Z M 31.324219 15.449219 " fill-opacity="1" fill-rule="nonzero"/><path fill="#000000" d="M 37.097656 12.363281 L 37.015625 12.414062 L 37.121094 12.597656 L 31.539062 15.820312 L 31.429688 15.632812 L 31.347656 15.679688 L 31.757812 16.394531 L 31.839844 16.347656 L 31.738281 16.164062 L 37.320312 12.941406 L 37.425781 13.125 L 37.507812 13.078125 Z M 37.097656 12.363281 " fill-opacity="1" fill-rule="nonzero"/><path fill="#000000" d="M 39.410156 20.765625 L 39.410156 20.976562 L 39.503906 20.976562 L 39.503906 20.152344 L 39.410156 20.152344 L 39.410156 20.363281 L 32.960938 20.363281 L 32.960938 20.148438 L 32.867188 20.148438 L 32.867188 20.972656 L 32.960938 20.972656 L 32.960938 20.765625 Z M 39.410156 20.765625 " fill-opacity="1" fill-rule="nonzero"/><path fill="#000000" d="M 39.410156 21.589844 L 39.410156 21.800781 L 39.503906 21.800781 L 39.503906 20.976562 L 39.410156 20.976562 L 39.410156 21.191406 L 32.960938 21.191406 L 32.960938 20.976562 L 32.867188 20.976562 L 32.867188 21.796875 L 32.960938 21.796875 L 32.960938 21.589844 Z M 39.410156 21.589844 " fill-opacity="1" fill-rule="nonzero"/><path fill="#000000" d="M 39.410156 22.625 L 39.503906 22.625 L 39.503906 21.804688 L 39.410156 21.804688 L 39.410156 22.015625 L 32.960938 22.015625 L 32.960938 21.800781 L 32.867188 21.800781 L 32.867188 22.621094 L 32.960938 22.621094 L 32.960938 22.414062 L 39.410156 22.414062 Z M 39.410156 22.625 " fill-opacity="1" fill-rule="nonzero"/><path fill="#000000" d="M 37.515625 29.496094 L 37.410156 29.679688 L 37.492188 29.726562 L 37.902344 29.015625 L 37.820312 28.96875 L 37.714844 29.152344 L 32.132812 25.925781 L 32.238281 25.742188 L 32.15625 25.695312 L 31.746094 26.40625 L 31.828125 26.453125 L 31.933594 26.273438 Z M 37.515625 29.496094 " fill-opacity="1" fill-rule="nonzero"/><path fill="#000000" d="M 37.101562 30.210938 L 36.996094 30.394531 L 37.078125 30.441406 L 37.492188 29.730469 L 37.410156 29.683594 L 37.300781 29.867188 L 31.71875 26.640625 L 31.828125 26.457031 L 31.742188 26.410156 L 31.332031 27.121094 L 31.414062 27.167969 L 31.519531 26.988281 Z M 37.101562 30.210938 " fill-opacity="1" fill-rule="nonzero"/><path fill="#000000" d="M 36.691406 30.925781 L 36.585938 31.109375 L 36.667969 31.15625 L 37.078125 30.445312 L 36.996094 30.398438 L 36.890625 30.582031 L 31.308594 27.355469 L 31.414062 27.171875 L 31.332031 27.125 L 30.921875 27.835938 L 31.003906 27.882812 L 31.105469 27.703125 Z M 36.691406 30.925781 " fill-opacity="1" fill-rule="nonzero"/><path fill="#000000" d="M 36.171875 31.824219 L 36.253906 31.871094 L 36.664062 31.160156 L 36.582031 31.113281 L 36.476562 31.292969 L 30.894531 28.070312 L 31 27.886719 L 30.917969 27.835938 L 30.507812 28.550781 L 30.589844 28.597656 L 30.695312 28.417969 L 36.277344 31.640625 Z M 36.171875 31.824219 " fill-opacity="1" fill-rule="nonzero"/><path fill="#000000" d="M 30.714844 5.964844 L 30.765625 5.882812 L 30.050781 5.472656 L 30.003906 5.554688 L 30.1875 5.660156 L 26.964844 11.242188 L 26.777344 11.136719 L 26.730469 11.21875 L 27.441406 11.628906 L 27.492188 11.546875 L 27.308594 11.441406 L 30.53125 5.859375 Z M 30.714844 5.964844 " fill-opacity="1" fill-rule="nonzero"/><path fill="#000000" d="M 4.125 27.390625 L 4.40625 28.160156 L 4.316406 28.195312 L 4.035156 27.421875 Z M 4.125 27.390625 " fill-opacity="1" fill-rule="nonzero"/><path fill="#000000" d="M 9.800781 35.414062 L 10.410156 35.972656 L 10.347656 36.042969 L 9.738281 35.484375 Z M 9.800781 35.414062 " fill-opacity="1" fill-rule="nonzero"/><path fill="#000000" d="M 18.773438 39.355469 L 19.601562 39.460938 L 19.585938 39.558594 L 18.761719 39.449219 Z M 18.773438 39.355469 " fill-opacity="1" fill-rule="nonzero"/><path fill="#000000" d="M 28.464844 38.042969 L 29.234375 37.734375 L 29.269531 37.820312 L 28.5 38.132812 Z M 28.464844 38.042969 " fill-opacity="1" fill-rule="nonzero"/><path fill="#000000" d="M 13.816406 4.957031 L 13.765625 4.875 L 13.054688 5.285156 L 13.101562 5.367188 L 13.285156 5.261719 L 16.511719 10.847656 L 16.324219 10.953125 L 16.371094 11.035156 L 17.085938 10.625 L 17.035156 10.542969 L 16.855469 10.644531 L 13.632812 5.0625 Z M 13.816406 4.957031 " fill-opacity="1" fill-rule="nonzero"/><path fill="#000000" d="M 11.039062 6.449219 L 15.800781 11.375 L 16.167969 11.164062 L 11.394531 6.242188 Z M 11.039062 6.449219 " fill-opacity="1" fill-rule="nonzero"/><path fill="#000000" d="M 14.636719 12.046875 L 12.683594 5.507812 L 12.75 5.472656 C 12.75 5.472656 13.132812 6.738281 13.351562 7.476562 L 14.691406 12.015625 Z M 14.636719 12.046875 " fill-opacity="1" fill-rule="nonzero"/><path fill="#000000" d="M 11.652344 6.207031 L 10.9375 6.617188 L 10.890625 6.535156 L 11.601562 6.125 Z M 11.652344 6.207031 " fill-opacity="1" fill-rule="nonzero"/><path fill="#000000" d="M 15.03125 11.820312 L 14.320312 12.230469 L 14.273438 12.148438 L 14.984375 11.738281 Z M 15.03125 11.820312 " fill-opacity="1" fill-rule="nonzero"/><path fill="#000000" d="M 16.316406 11.078125 L 15.601562 11.488281 L 15.554688 11.40625 L 16.265625 10.996094 Z M 16.316406 11.078125 " fill-opacity="1" fill-rule="nonzero"/><path fill="#000000" d="M 13.105469 5.371094 L 12.390625 5.78125 L 12.34375 5.699219 L 13.058594 5.285156 Z M 13.105469 5.371094 " fill-opacity="1" fill-rule="nonzero"/><path fill="#000000" d="M 22.636719 3.367188 L 22.636719 3.273438 L 21.816406 3.273438 L 21.816406 3.367188 L 22.027344 3.367188 L 22.027344 9.816406 L 21.8125 9.816406 L 21.8125 9.910156 L 22.636719 9.910156 L 22.636719 9.816406 L 22.425781 9.816406 L 22.425781 3.367188 Z M 22.636719 3.367188 " fill-opacity="1" fill-rule="nonzero"/><path fill="#000000" d="M 23.460938 3.367188 L 23.460938 3.273438 L 22.640625 3.273438 L 22.640625 3.367188 L 22.851562 3.367188 L 22.851562 9.816406 L 22.636719 9.816406 L 22.636719 9.910156 L 23.460938 9.910156 L 23.460938 9.816406 L 23.25 9.816406 L 23.25 3.367188 Z M 23.460938 3.367188 " fill-opacity="1" fill-rule="nonzero"/><path fill="#000000" d="M 19.488281 3.273438 L 21.148438 9.917969 L 21.574219 9.917969 L 19.898438 3.273438 Z M 19.488281 3.273438 " fill-opacity="1" fill-rule="nonzero"/><path fill="#000000" d="M 19.804688 9.917969 L 21.382812 3.28125 L 21.457031 3.28125 C 21.457031 3.28125 21.15625 4.566406 20.976562 5.316406 L 19.871094 9.917969 Z M 19.804688 9.917969 " fill-opacity="1" fill-rule="nonzero"/><path fill="#000000" d="M 19.316406 3.273438 L 20.140625 3.273438 L 20.140625 3.367188 L 19.316406 3.367188 Z M 19.316406 3.273438 " fill-opacity="1" fill-rule="nonzero"/><path fill="#000000" d="M 19.4375 9.824219 L 20.257812 9.824219 L 20.257812 9.917969 L 19.4375 9.917969 Z M 19.4375 9.824219 " fill-opacity="1" fill-rule="nonzero"/><path fill="#000000" d="M 20.921875 9.824219 L 21.742188 9.824219 L 21.742188 9.917969 L 20.921875 9.917969 Z M 20.921875 9.824219 " fill-opacity="1" fill-rule="nonzero"/><path fill="#000000" d="M 20.992188 3.273438 L 21.8125 3.273438 L 21.8125 3.367188 L 20.992188 3.367188 Z M 20.992188 3.273438 " fill-opacity="1" fill-rule="nonzero"/><path fill="#000000" d="M 5.164062 13.265625 L 11.75 15.15625 L 11.960938 14.789062 L 5.367188 12.914062 Z M 5.164062 13.265625 " fill-opacity="1" fill-rule="nonzero"/><path fill="#000000" d="M 11.078125 16.320312 L 6.117188 11.628906 L 6.15625 11.566406 C 6.15625 11.566406 7.117188 12.472656 7.679688 13 L 11.109375 16.261719 Z M 11.078125 16.320312 " fill-opacity="1" fill-rule="nonzero"/><path fill="#000000" d="M 5.570312 12.753906 L 5.160156 13.464844 L 5.078125 13.417969 L 5.488281 12.707031 Z M 5.570312 12.753906 " fill-opacity="1" fill-rule="nonzero"/><path fill="#000000" d="M 11.304688 15.925781 L 10.894531 16.636719 L 10.808594 16.589844 L 11.222656 15.878906 Z M 11.304688 15.925781 " fill-opacity="1" fill-rule="nonzero"/><path fill="#000000" d="M 12.046875 14.636719 L 11.636719 15.351562 L 11.550781 15.300781 L 11.964844 14.589844 Z M 12.046875 14.636719 " fill-opacity="1" fill-rule="nonzero"/><path fill="#000000" d="M 6.40625 11.304688 L 5.996094 12.015625 L 5.914062 11.96875 L 6.324219 11.253906 Z M 6.40625 11.304688 " fill-opacity="1" fill-rule="nonzero"/><path fill="#000000" d="M 3.359375 22.222656 L 3.265625 22.222656 L 3.265625 23.046875 L 3.359375 23.046875 L 3.359375 22.835938 L 9.808594 22.835938 L 9.808594 23.050781 L 9.902344 23.050781 L 9.902344 22.226562 L 9.808594 22.226562 L 9.808594 22.433594 L 3.359375 22.433594 Z M 3.359375 22.222656 " fill-opacity="1" fill-rule="nonzero"/><path fill="#000000" d="M 3.265625 22.050781 L 9.910156 20.394531 L 9.910156 19.96875 L 3.265625 21.640625 Z M 3.265625 22.050781 " fill-opacity="1" fill-rule="nonzero"/><path fill="#000000" d="M 9.910156 21.738281 L 3.273438 20.15625 L 3.273438 20.082031 C 3.273438 20.082031 4.5625 20.386719 5.308594 20.5625 L 9.910156 21.671875 Z M 9.910156 21.738281 " fill-opacity="1" fill-rule="nonzero"/><path fill="#000000" d="M 3.265625 21.402344 L 3.359375 21.402344 L 3.359375 22.222656 L 3.265625 22.222656 Z M 3.265625 21.402344 " fill-opacity="1" fill-rule="nonzero"/><path fill="#000000" d="M 9.816406 21.28125 L 9.910156 21.28125 L 9.910156 22.105469 L 9.816406 22.105469 Z M 9.816406 21.28125 " fill-opacity="1" fill-rule="nonzero"/><path fill="#000000" d="M 9.816406 19.796875 L 9.910156 19.796875 L 9.910156 20.621094 L 9.816406 20.621094 Z M 9.816406 19.796875 " fill-opacity="1" fill-rule="nonzero"/><path fill="#000000" d="M 3.265625 19.726562 L 3.359375 19.726562 L 3.359375 20.550781 L 3.265625 20.550781 Z M 3.265625 19.726562 " fill-opacity="1" fill-rule="nonzero"/><path fill="#000000" d="M 6.089844 30.933594 L 6.003906 30.980469 L 6.417969 31.695312 L 6.5 31.648438 L 6.394531 31.464844 L 11.976562 28.242188 L 12.085938 28.425781 L 12.167969 28.378906 L 11.757812 27.664062 L 11.671875 27.714844 L 11.777344 27.894531 L 6.195312 31.117188 Z M 6.089844 30.933594 " fill-opacity="1" fill-rule="nonzero"/><path fill="#000000" d="M 6.5 31.648438 L 6.417969 31.699219 L 6.828125 32.410156 L 6.910156 32.359375 L 6.804688 32.179688 L 12.390625 28.953125 L 12.496094 29.140625 L 12.578125 29.09375 L 12.167969 28.378906 L 12.085938 28.429688 L 12.191406 28.609375 L 6.605469 31.832031 Z M 6.5 31.648438 " fill-opacity="1" fill-rule="nonzero"/><path fill="#000000" d="M 6.914062 32.363281 L 6.832031 32.410156 L 7.242188 33.125 L 7.324219 33.074219 L 7.21875 32.894531 L 12.800781 29.667969 L 12.910156 29.855469 L 12.992188 29.808594 L 12.582031 29.09375 L 12.5 29.144531 L 12.601562 29.324219 L 7.019531 32.546875 Z M 6.914062 32.363281 " fill-opacity="1" fill-rule="nonzero"/><path fill="#000000" d="M 5.90625 30.8125 L 10.835938 26.054688 L 10.390625 25.921875 L 5.703125 30.457031 Z M 5.90625 30.8125 " fill-opacity="1" fill-rule="nonzero"/><path fill="#000000" d="M 5.914062 30.808594 L 5.835938 30.671875 L 10.472656 25.96875 L 4.199219 27.835938 L 4.160156 27.773438 C 4.160156 27.773438 5.425781 27.390625 6.164062 27.171875 L 10.703125 25.828125 L 10.835938 26.054688 L 7.246094 29.515625 C 6.695312 30.046875 5.914062 30.808594 5.914062 30.808594 Z M 5.914062 30.808594 " fill-opacity="1" fill-rule="nonzero"/><path fill="#000000" d="M 5.675781 30.21875 L 6.085938 30.933594 L 6.003906 30.980469 L 5.59375 30.269531 Z M 5.675781 30.21875 " fill-opacity="1" fill-rule="nonzero"/><path fill="#000000" d="M 22.832031 39.410156 L 22.832031 39.503906 L 23.652344 39.503906 L 23.652344 39.410156 L 23.441406 39.410156 L 23.441406 32.960938 L 23.65625 32.960938 L 23.65625 32.867188 L 22.835938 32.867188 L 22.835938 32.960938 L 23.042969 32.960938 L 23.042969 39.410156 Z M 22.832031 39.410156 " fill-opacity="1" fill-rule="nonzero"/><path fill="#000000" d="M 22.636719 39.503906 L 20.976562 32.859375 L 20.640625 33.175781 L 22.226562 39.503906 Z M 22.636719 39.503906 " fill-opacity="1" fill-rule="nonzero"/><path fill="#000000" d="M 22.636719 39.496094 L 22.476562 39.496094 L 20.722656 33.125 L 19.203125 39.496094 L 19.128906 39.496094 C 19.128906 39.496094 19.433594 38.207031 19.609375 37.460938 L 20.71875 32.859375 L 20.976562 32.859375 L 22.179688 37.695312 C 22.367188 38.4375 22.636719 39.496094 22.636719 39.496094 Z M 22.636719 39.496094 " fill-opacity="1" fill-rule="nonzero"/><path fill="#000000" d="M 22.007812 39.410156 L 22.832031 39.410156 L 22.832031 39.503906 L 22.007812 39.503906 Z M 22.007812 39.410156 " fill-opacity="1" fill-rule="nonzero"/><path fill="#000000" d="M 13.265625 37.511719 L 13.21875 37.59375 L 13.929688 38.003906 L 13.976562 37.921875 L 13.792969 37.816406 L 17.019531 32.230469 L 17.203125 32.339844 L 17.25 32.257812 L 16.539062 31.84375 L 16.492188 31.929688 L 16.671875 32.03125 L 13.449219 37.617188 Z M 13.265625 37.511719 " fill-opacity="1" fill-rule="nonzero"/><path fill="#000000" d="M 13.980469 37.921875 L 13.933594 38.007812 L 14.644531 38.417969 L 14.691406 38.332031 L 14.507812 38.226562 L 17.730469 32.644531 L 17.917969 32.75 L 17.964844 32.667969 L 17.253906 32.257812 L 17.207031 32.339844 L 17.386719 32.445312 L 14.164062 38.027344 Z M 13.980469 37.921875 " fill-opacity="1" fill-rule="nonzero"/><path fill="#000000" d="M 13.046875 37.496094 L 14.933594 30.910156 L 14.484375 31.019531 L 12.691406 37.289062 Z M 13.046875 37.496094 " fill-opacity="1" fill-rule="nonzero"/><path fill="#000000" d="M 13.050781 37.488281 L 12.914062 37.410156 L 14.578125 31.015625 L 10.078125 35.773438 L 10.015625 35.734375 C 10.015625 35.734375 10.921875 34.773438 11.449219 34.210938 L 14.710938 30.78125 L 14.933594 30.910156 L 13.558594 35.699219 C 13.347656 36.4375 13.050781 37.488281 13.050781 37.488281 Z M 13.050781 37.488281 " fill-opacity="1" fill-rule="nonzero"/><path fill="#000000" d="M 12.554688 37.101562 L 13.265625 37.511719 L 13.21875 37.59375 L 12.503906 37.183594 Z M 12.554688 37.101562 " fill-opacity="1" fill-rule="nonzero"/><path fill="#000000" d="M 31.878906 36.25 L 27.121094 31.324219 L 26.988281 31.765625 L 31.523438 36.453125 Z M 31.878906 36.25 " fill-opacity="1" fill-rule="nonzero"/><path fill="#000000" d="M 31.875 36.242188 L 31.738281 36.324219 L 27.035156 31.683594 L 28.902344 37.957031 L 28.839844 37.996094 C 28.839844 37.996094 28.457031 36.730469 28.238281 35.992188 L 26.898438 31.453125 L 27.121094 31.324219 L 30.582031 34.910156 C 31.113281 35.460938 31.875 36.242188 31.875 36.242188 Z M 31.875 36.242188 " fill-opacity="1" fill-rule="nonzero"/><path fill="#000000" d="M 31.285156 36.476562 L 31.996094 36.066406 L 32.046875 36.148438 L 31.332031 36.5625 Z M 31.285156 36.476562 " fill-opacity="1" fill-rule="nonzero"/><path stroke-linecap="butt" transform="matrix(0.0635115, 0, 0, 0.0635115, -16.417724, -2.54046)" fill="none" stroke-linejoin="miter" d="M 611.290447 376.737727 C 611.290447 378.890388 610.859915 380.92004 610.060355 382.888187 C 609.260795 384.856335 608.092208 386.578464 606.616097 388.054574 C 605.078482 389.59219 603.356353 390.699273 601.388206 391.560337 C 599.420058 392.359897 597.390406 392.728925 595.299249 392.728925 C 593.146588 392.728925 591.116936 392.359897 589.148789 391.560337 C 587.180641 390.699273 585.458512 389.59219 583.982402 388.054574 C 582.444786 386.578464 581.337704 384.856335 580.476639 382.888187 C 579.677079 380.92004 579.308051 378.890388 579.308051 376.737727 C 579.308051 374.64657 579.677079 372.616918 580.476639 370.64877 C 581.337704 368.680623 582.444786 366.958494 583.982402 365.482383 C 585.458512 363.944768 587.180641 362.776181 589.148789 361.976621 C 591.116936 361.177061 593.146588 360.746529 595.299249 360.746529 C 597.390406 360.746529 599.420058 361.177061 601.388206 361.976621 C 603.356353 362.776181 605.078482 363.944768 606.616097 365.482383 C 608.092208 366.958494 609.260795 368.680623 610.060355 370.64877 C 610.859915 372.616918 611.290447 374.64657 611.290447 376.737727 Z M 611.290447 376.737727 " stroke="#000000" stroke-width="0.348" stroke-opacity="1" stroke-miterlimit="10"/><path fill="#000000" d="M 21.679688 21.386719 C 21.679688 21.46875 21.648438 21.535156 21.59375 21.59375 C 21.539062 21.648438 21.46875 21.675781 21.390625 21.675781 C 21.308594 21.675781 21.242188 21.648438 21.183594 21.59375 C 21.128906 21.535156 21.101562 21.46875 21.101562 21.386719 C 21.101562 21.308594 21.128906 21.242188 21.183594 21.183594 C 21.242188 21.128906 21.308594 21.097656 21.390625 21.097656 C 21.46875 21.097656 21.539062 21.128906 21.59375 21.183594 C 21.648438 21.242188 21.679688 21.308594 21.679688 21.386719 Z M 21.679688 21.386719 " fill-opacity="1" fill-rule="nonzero"/><path stroke-linecap="butt" transform="matrix(0.0635115, 0, 0, 0.0635115, -16.417724, -2.54046)" fill-opacity="1" fill="#000000" fill-rule="nonzero" stroke-linejoin="miter" d="M 663.323346 117.803328 L 589.948349 407.797554 L 587.30365 407.182507 L 660.740152 117.188282 Z M 663.323346 117.803328 " stroke="#000000" stroke-width="0.5" stroke-opacity="1" stroke-miterlimit="10"/><path stroke-linecap="butt" transform="matrix(0.0153186, -0.0616365, 0.0616365, 0.0153186, -6.41055, 62.341987)" fill-opacity="1" fill="#000000" fill-rule="nonzero" stroke-linejoin="miter" d="M 725.556715 409.266654 L 738.549481 409.269706 L 738.547376 410.791245 L 725.554611 410.788192 Z M 725.556715 409.266654 " stroke="#000000" stroke-width="0.5" stroke-opacity="1" stroke-miterlimit="10"/><path stroke-linecap="butt" transform="matrix(0.0635115, 0, 0, 0.0635115, -16.417724, -2.54046)" fill-opacity="1" fill="#000000" fill-rule="nonzero" stroke-linejoin="miter" d="M 731.039919 411.180307 L 564.546946 370.525761 L 565.223496 367.942568 L 731.654965 408.535609 Z M 731.039919 411.180307 " stroke="#000000" stroke-width="0.5" stroke-opacity="1" stroke-miterlimit="10"/><path fill="#000000" d="M 26.023438 6.4375 L 26.035156 6.4375 C 26.035156 6.4375 25.546875 5.355469 25.925781 3.800781 C 25.921875 3.796875 25.863281 4.015625 25.777344 4.324219 C 25.859375 4.019531 25.917969 3.796875 25.914062 3.800781 C 25.453125 5.328125 24.484375 6.015625 24.484375 6.015625 L 24.488281 6.019531 C 24.292969 6.15625 24.136719 6.355469 24.070312 6.601562 C 23.917969 7.160156 24.25 7.734375 24.804688 7.886719 C 25.363281 8.039062 25.9375 7.707031 26.085938 7.152344 C 26.15625 6.902344 26.125 6.652344 26.023438 6.4375 Z M 25.359375 5.871094 C 25.359375 5.871094 25.386719 5.765625 25.433594 5.601562 C 25.40625 5.695312 25.382812 5.785156 25.359375 5.871094 Z M 25.359375 5.871094 " fill-opacity="1" fill-rule="nonzero"/><path fill="#000000" d="M 29.660156 24.1875 L 29.660156 24.203125 C 29.660156 24.203125 30.742188 23.714844 32.296875 24.089844 C 32.300781 24.089844 32.085938 24.027344 31.777344 23.945312 C 32.078125 24.027344 32.300781 24.085938 32.300781 24.082031 C 30.769531 23.621094 30.082031 22.652344 30.082031 22.652344 L 30.078125 22.65625 C 29.945312 22.460938 29.746094 22.304688 29.496094 22.238281 C 28.9375 22.085938 28.363281 22.414062 28.210938 22.972656 C 28.0625 23.527344 28.390625 24.101562 28.949219 24.253906 C 29.195312 24.320312 29.445312 24.289062 29.660156 24.1875 Z M 30.226562 23.527344 C 30.226562 23.527344 30.335938 23.554688 30.496094 23.597656 C 30.402344 23.574219 30.3125 23.550781 30.226562 23.527344 Z M 30.226562 23.527344 " fill-opacity="1" fill-rule="nonzero"/></svg>